<svg xmlns="http://www.w3.org/2000/svg" version="1.1" xmlns:xlink="http://www.w3.org/1999/xlink" xmlns:svgjs="http://svgjs.dev/svgjs" viewBox="0 0 800 800">
	<defs>
		<linearGradient x1="50%" y1="0%" x2="50%" y2="100%" id="wwwhirl-grad">
			<stop stop-color="hsl(180, 69%, 40%)" stop-opacity="1" offset="45%"></stop>
			<stop stop-color="hsl(180, 69%, 60%)" stop-opacity="1" offset="100%"></stop>
		</linearGradient>
	</defs>
	<g stroke-width="2" stroke="url(#wwwhirl-grad)" fill="none" stroke-linecap="round">
		<path d="M-589.7500617998295 506.1368791518032C-552.2595304566898 448.7763661967997 -484.77657403903856 243.17829231102212 -409.7955113527594 230.80641696778605C-334.81444866648025 218.43454162455 -304.82202359196856 436.0670760714753 -229.84096090568937 446.7518775042701C-154.85989821941018 457.43667893706487 -124.86747314489844 269.72158850196496 -49.88641045861925 282.09346384520103C25.094652227659935 294.4653391884371 55.08707730217168 496.57679365930267 130.06813998845075 506.1368791518032C205.04920267472994 515.6969646443038 235.04162774924157 326.8571582689097 310.02269043552076 327.98187420920385C385.00375312179995 329.10659014949806 414.9961781963116 522.7826750681572 489.9772408825909 511.53551566521537C564.95830356887 500.2883562622735 594.9507286433818 263.3107076422881 669.9317913296609 273.99550907508285C744.91285401594 284.68031050787766 774.9052790904516 548.7636132889529 849.8863417767309 562.8225625426303C924.8674044630102 576.8815117963076 954.8598295375216 340.3537495524399 1029.8408922238011 341.47846549273413C1104.8219549100804 342.60318143302834 1134.8143799845923 551.3504599516295 1209.7954426708711 568.2211990560425C1284.7765053571502 585.0919381604551 1352.2594617748016 452.82534358185876 1389.7499931179411 422.45801319391563" transform="rotate(111, 400, 400)"></path>
		<path d="M-563.0000619853624 503.2683193867999C-526.5227882460915 447.4580905657153 -460.8636955154038 247.41672137955342 -387.9091480368619 235.379221045594C-314.95460055831995 223.3417207116346 -285.77278156690323 435.0922947681025 -212.8182340883613 445.4883177837946C-139.8636866098194 455.88434079948684 -110.68186761840252 273.2426311869572 -37.72732013986058 285.28013152091665C35.227227338681246 297.3176318548761 64.40904633009802 493.9666145832858 137.36359380863996 503.2683193867999C210.3181412871819 512.5700241903139 239.49996027859856 328.83399636560614 312.4545077571405 329.9283145777843C385.40905523568233 331.0226327899624 414.590874227099 519.4642289270362 487.54542170564105 508.5210468052549C560.4999691841829 497.57786468347365 589.6817881755999 267.0050173775419 662.6363356541417 277.40104039323415C735.5908831326835 287.79706340892636 764.7727021241001 544.7429796283509 837.7272496026421 558.4219572805775C910.6817970811842 572.1009349328041 939.863616072601 341.9658149117437 1012.818163551143 343.06013312392184C1085.772711029685 344.1544513361 1114.9545300211018 547.2599115163606 1187.9090774996434 563.6746846990325C1260.8636249781853 580.0894578817044 1326.522717708873 451.3976361295566 1362.9999914481439 421.8510444007471" transform="rotate(108, 400, 400)"></path>
		<path d="M-536.2500621708955 500.3997405483102C-500.78604603549314 446.13979586114465 -436.95081699176893 251.65513137459837 -366.0227847209643 239.9520060499156C-295.0947524501597 228.24888072523285 -266.72353954183785 434.1174943912433 -195.79550727103322 444.22473898983293C-124.86747500022864 454.3319835884226 -96.49626209190666 276.7636547984632 -25.568229821102022 288.46678012314595C45.359802449702556 300.16990544782874 73.73101535802448 491.35641643378267 144.65904762882917 500.3997405483102C215.58707989963375 509.4430646628378 243.95829280795556 330.8108153888163 314.88632507876014 331.87473587287843C385.8143573495647 332.9386563569405 414.18557025788675 516.1457637124288 485.11360252869144 505.5065588718081C556.041634799496 494.86735403118746 584.412847707818 270.6993080393094 655.3408799786225 280.8065526378991C726.2689122494269 290.91379723648873 754.6401251577488 540.7223268942626 825.5681574285536 554.0213329450385C896.4961896993584 567.3203389958144 924.8674026076801 343.57786119756116 995.7954348784849 344.64178168162323C1066.7234671492897 345.70570216568535 1095.0946800576114 543.1693440076053 1166.022712328416 559.1281512685364C1236.9507445992203 575.0869585294674 1300.7859736429446 449.9699096037681 1336.2499897783468 421.24405653409224" transform="rotate(105, 400, 400)"></path>
		<path d="M-509.5000623564285 497.53118078330687C-475.0493038248948 444.82152023006034 -413.03793846813414 255.89356044312967 -344.1364214050668 244.52481012772353C-275.2349043419995 233.15605981231744 -247.67429751677247 433.14271308787045 -178.77278045370514 442.96117926935756C-109.87126339063786 452.7796454508446 -82.3106565654108 280.2846974834555 -13.409139502343464 291.65344779886163C55.49237756072398 303.0221981142677 83.05298438595094 488.74623735776584 151.95450144901827 497.53118078330687C220.8560185120856 506.3161242088479 248.41662533731255 332.7876534855128 317.3181424003799 333.82117624145883C386.2196594634472 334.85469899740485 413.7802662886743 512.8273175713077 482.6817833517416 502.4920900118477C551.583300414809 492.1568624523876 579.1439072400358 274.3936177745632 648.0454243031031 284.2120839560503C716.9469413661704 294.03055013753743 744.5075481913973 536.7016932336606 813.4090652544648 549.6207276829858C882.3105823175324 562.5397621323109 909.8711891427592 345.189926556865 978.7727062058266 346.22344931281094C1047.6742232688941 347.25697206875697 1075.234830094121 539.0787955723365 1144.1363471571883 554.5816369115266C1213.0378642202554 570.0844782507168 1275.049229577016 448.542202151466 1309.4999881085498 420.6370877409237" transform="rotate(102, 400, 400)"></path>
		<path d="M-482.7500625419615 494.66260957421173C-449.31256161429644 443.50323315488424 -389.12505994449936 260.13197806756915 -322.2500580891693 249.09760276143967C-255.3750562338392 238.06322745531023 -228.62505549170714 432.1679203404058 -161.75005363637712 441.69760810479033C-94.87505178104703 451.22729586917484 -68.12505103891493 283.80572872435596 -1.2500491835847924 294.84010403048546C65.62495267174518 305.8744793366149 92.37495341387739 486.1360468376572 159.24995526920736 494.66260957421173C226.12495712453756 503.1891723107663 252.87495786666943 334.7644801381175 319.7499597219995 335.7676051659475C386.6249615773296 336.7707301937774 413.3749623194617 509.508859986095 480.2499641747918 499.4776097077955C547.1249660301219 489.446359429496 573.8749667722539 278.08791606572527 640.7499686275842 287.61760383010983C707.624970482914 297.14729159449433 734.374971225046 532.681048128967 801.2499730803761 545.2201109768413C868.1249749357064 557.7591738247156 894.8749756778384 346.80198047207693 961.7499775331687 347.80510549990686C1028.6249793884988 348.80823052773684 1055.3749801306308 534.9882356929758 1122.2499819859606 550.0351111104251C1189.1249838412905 565.0819865278743 1249.3124855110875 447.11448325507206 1282.7499864387528 420.0301075036634" transform="rotate(99, 400, 400)"></path>
		<path d="M-456.0000627274945 491.79404980920845C-423.5758194036981 442.1849575237999 -365.21218142086457 264.3704071361004 -300.36369477327173 253.67040683924762C-235.51520812567895 242.9704065423948 -209.57581346664176 431.1931390370329 -144.72732681904904 440.4340483843149C-79.8788401714562 449.67495773159686 -53.93944551241907 287.3267714093483 10.909041135173766 298.0267717062011C75.7575277827666 308.7267720030539 101.69692244180374 483.52586776164037 166.54540908939657 491.79404980920845C231.3938957369893 500.0622318567765 257.3332903960264 336.741318234814 322.18177704361926 337.7140455345279C387.030263691212 338.68677283424176 412.96965835024923 506.190413844974 477.81814499784196 496.4631408478351C542.6666316454348 486.7358678506962 568.6060263044722 281.78222580097906 633.4545129520648 291.0231351482611C698.3029995996574 300.26404449554303 724.2423942586945 528.6604144683649 789.0908809062873 540.8195057147886C853.9393675538804 552.9785969612121 879.8787622129175 348.4140458313807 944.7272488605104 349.3867731310946C1009.5757355081032 350.3595004308085 1035.5151301671403 530.8976872577068 1100.363616814733 545.4885967534153C1165.2121034623258 560.0795062491236 1223.5757414451593 445.68677580276994 1255.9999847689558 419.42313871049487" transform="rotate(96, 400, 400)"></path>
		<path d="M-429.2500629130275 488.92549004420505C-397.83907719309974 440.8666818927156 -341.2993028972297 268.6088362046317 -278.47733145737425 258.24321091705553C-215.65536001751866 247.8775856294794 -190.5265714415765 430.21835773366007 -127.70460000172096 439.1704886638395C-64.88262856186543 448.12261959401883 -39.75383998592315 290.84781409434055 23.068131453932438 301.2134393819167C85.89010289378791 311.5790646694929 111.01889146973019 480.9156886856235 173.84086290958567 488.92549004420505C236.66283434944114 496.93529140278656 261.7916229253834 338.7181563315105 324.6135943652389 339.66048590310834C387.43556580509437 340.6028154747062 412.56435438103665 502.871967703853 475.38632582089224 493.4486719878746C538.2082972607477 484.02537627189633 563.3370858366902 285.4765355362329 626.1590572765456 294.4286664664123C688.9810287164009 303.38079739659173 714.1098172923432 524.6397808077629 776.9317887321988 536.4189004527359C839.7537601720544 548.1980200977086 864.8825487479965 350.02611119068445 927.704520187852 350.9684407622823C990.5264916277079 351.9107703338801 1015.6552802036499 526.807138822438 1078.4772516435055 540.9420823964053C1141.2992230833609 555.0770259703729 1197.8389973792307 444.2590683504677 1229.2499830991585 418.8161699173263" transform="rotate(93, 400, 400)"></path>
		<path d="M-402.50006309856053 486.0569302792017C-372.10233498250136 439.54840626163127 -317.38642437359493 272.847265273163 -256.59096814147665 262.8160149948635C-195.79551190935842 252.78476471656398 -171.4773294165111 429.24357643028725 -110.68187318439288 437.90692894336405C-49.88641695227466 446.5702814564409 -25.568234459427288 294.3688567793329 35.227221772690996 304.40010705763234C96.02267800480922 314.4313573359319 120.34086049765665 478.30550960960664 181.13631672977488 486.0569302792017C241.9317729618931 493.8083509487968 266.2499554547403 340.69499442820694 327.04541168685864 341.60692627168874C387.84086791897687 342.51885811517053 412.1590504118243 499.55352156273193 472.9545066439424 490.4342031279142C533.7499628760607 481.3148846930965 558.0681453689081 289.17084527148677 618.8636016010264 297.83419778456357C679.6590578331443 306.49755029764043 703.9772403259917 520.6191471471609 764.77269655811 532.0182951906831C825.5681527902284 543.4174432342052 849.8863352830758 351.63817654998826 910.6817915151939 352.55010839347005C971.4772477473123 353.4620402369518 995.7954302401597 522.7165903871689 1056.5908864722776 536.3955680393956C1117.386342704396 550.0745456916222 1172.1022533133023 442.83136089816566 1202.4999814293615 418.20920112415774" transform="rotate(90, 400, 400)"></path>
		<path d="M-375.7500632840935 483.18835144071204C-346.36559277190304 438.2301115570606 -293.47354584996015 277.085675268208 -234.70460482557914 267.3887999991851C-175.9356638011982 257.6919247301622 -152.42808739144579 428.26877605342804 -93.6591463670648 436.6433501494023C-34.89020534268383 445.0179242453766 -11.382628932931425 297.8898803908388 47.38631209144961 307.5867556598617C106.15525311583053 317.2836309288846 129.662829525583 475.69531146010354 188.43177054996397 483.18835144071204C247.20071157434495 490.6813914213206 270.7082879840973 342.6718134514171 329.4772290084783 343.55334756678286C388.24617003285925 344.43488168214856 411.7537464426117 496.2350563481246 470.5226874669927 487.41971519446747C529.2916284913737 478.60437404081034 552.7992049011261 292.86513593325424 611.568145925507 301.23971002922855C670.3370869498879 309.61428412520286 693.8446633596404 516.5984944130726 752.6136043840213 527.6176708551441C811.3825454084024 538.6368472972155 834.8901218181547 353.2502228358057 893.6590628425358 354.13175695117144C952.4280038669169 355.01329106653714 975.9355802766693 518.6260228784138 1034.7045213010501 531.8490346088995C1093.473462325431 545.0720463393852 1146.3655092473737 441.40363437237716 1175.7499797595644 417.60221325750285" transform="rotate(87, 400, 400)"></path>
		<path d="M-349.0000634696265 480.319795490406C-320.6288505613047 436.91183974067354 -269.5606673263253 281.3241081514365 -212.81824150968163 271.9616078916903C-156.07581569303795 262.5991076319441 -133.37884536638046 427.2939985647524 -76.63641954973673 435.37979424362413C-19.893993733093055 443.4655899224959 2.8029765935644946 301.4109268905284 59.54540241020817 310.7734271502746C116.28782822685184 320.1359274100208 138.98479855350945 473.08513619878397 195.72722437015307 480.319795490406C252.4696501867968 487.5544547820281 275.1666205134543 344.64865536281087 331.9090463300979 345.4997917500605C388.65147214674164 346.35092813731023 411.34844247339925 492.91661402170087 468.090868290043 484.40525014920433C524.8332941066865 475.8938862767078 547.5302644333441 296.55944948320536 604.2726902499878 304.64524516207706C661.0151160666314 312.7310408409488 683.7120863932887 512.5778645671679 740.4545122099328 523.2170694077886C797.1969380265766 533.8562742484094 819.8939083532339 354.86229200980677 876.6363341698777 355.7134283970564C933.3787599865216 356.56456478430607 956.0757303131788 514.5354782578422 1012.8181561298225 527.302524066587C1069.560581946466 540.0695698753318 1120.6287651814455 439.9759307347723 1148.9999780897674 416.9952482790316" transform="rotate(84, 400, 400)"></path>
		<path d="M-322.2500636551595 477.4512357254026C-294.89210835070634 435.59356410958924 -245.6477888026905 285.5625372199678 -190.9318781937841 276.53441196949825C-136.2159675848777 267.5062867190287 -114.32960334131508 426.3192172613796 -59.61369273240865 434.11623452314876C-4.897782123502225 441.91325178491786 16.988582120060357 304.93196957552067 71.70449272896678 313.9600948259902C126.42040333787327 322.9882200764598 148.3067675814359 470.4749571227671 203.02267819034228 477.4512357254026C257.73858879924876 484.42751432803817 279.62495304281117 346.62549345950737 334.34086365171765 347.446232118641C389.05677426062414 348.2669707777746 410.94313850418666 489.59816788057987 465.65904911309303 481.39078128924393C520.3749597219995 473.18339469790794 542.2613239655623 300.25375921845915 596.9772345744685 308.0507764802283C651.693145183375 315.8477937419975 673.5795094269374 508.5572309065659 728.295420035844 518.8164641457358C783.0113306447506 529.0756973849058 804.897694888313 356.4743573691105 859.6136054972196 357.29509602824413C914.3295161061262 358.11583468737774 936.2158803496886 510.4449298225732 990.9317909585948 522.7560097095771C1045.6477015675014 535.0670895965811 1094.892021115517 438.5482232824702 1122.2499764199704 416.3882794858631" transform="rotate(81, 400, 400)"></path>
		<path d="M-295.5000638406925 474.5826607016102C-269.15536614010796 434.2752732197158 -221.73491027905573 289.80095102971 -169.04551487788655 281.1072007885171C-116.35611947671742 272.4134505473242 -95.28036131624975 425.34442069921766 -42.590965915080574 432.8526595438843C10.098429486088548 440.3608983885509 31.174187646556277 308.4529970017239 83.86358304772546 317.14674724291683C136.55297844889458 325.84049748410973 157.62873660936225 467.8647627879612 210.31813201053149 474.5826607016102C263.0075274117006 481.3005586152593 284.08328557216817 348.6023162974148 336.7726809733373 349.3926572284323C389.4620763745065 350.1829981594499 410.5378345349742 486.2797064806698 463.2272299361433 478.37629717049447C515.9166253373126 470.4728878603191 536.9923834977802 303.94805369492394 589.6817788989493 311.45629253959055C642.3711743001184 318.96453138425716 663.4469324605861 504.53658198717494 716.1363278617553 514.4158436248941C768.8257232629246 524.2951052626133 789.9014814233922 358.0864074696252 842.5908768245615 358.8767484006428C895.2802722257306 359.66708933166035 916.3560303861982 506.35436612851527 969.0454257873673 518.2094800937783C1021.7348211885362 530.0645940590414 1069.1552770495887 437.120500571379 1095.4999747501731 415.7812954339055" transform="rotate(78, 400, 400)"></path>
		<path d="M-268.7500640262256 471.7141009366069C-243.41862392950964 432.9569975886315 -197.8220317554209 294.0393800982413 -147.15915156198903 285.680004866325C-96.49627136855716 277.32062963440876 -76.23111929118443 424.36963939584484 -25.568239097752553 431.58909982340884C25.09464109567938 438.8085602509729 45.35979317305214 311.9740396867162 96.02267336648401 320.33341491863246C146.6855535599159 328.6927901505487 166.9507056372887 465.25458371194435 217.61358583072058 471.7141009366069C268.27646602415246 478.1736181612695 288.54161810152516 350.57915439411124 339.20449829495703 351.33909759701277C389.8673784883889 352.09904079991423 410.1325305657617 482.96126033954874 460.7954107591936 475.36182831053395C511.4582909526255 467.7623962815192 531.7234430299983 307.64236343017774 582.3863232234302 314.8618238577418C633.0492034168619 322.08128428530586 653.3143554942345 500.5159483265729 703.9772356876665 510.0152383628414C754.6401158810986 519.5145283991098 774.9052679584711 359.698472828929 825.5681481519032 360.4584160318305C876.2310283453353 361.21835923473196 896.496180422708 502.2638176932463 947.1590606161396 513.6629657367685C997.8219408095715 525.0621137802907 1043.4185329836603 435.6927931190768 1068.749973080376 415.1743266407369" transform="rotate(75, 400, 400)"></path>
		<path d="M-242.00006421175857 468.8455411716036C-217.68188171891126 431.6387219575472 -173.9091532317861 298.2778091667726 -125.2727882460915 290.252808944133C-76.6364232603969 282.2278087214934 -57.181877266119045 423.39485809247196 -8.545512280424475 430.3255401029334C40.09085270527015 437.2562221133949 59.54539869954806 315.49508237170846 108.18176368524263 323.5200825943481C156.81812867093726 331.5450828169877 176.2726746652151 462.6444046359275 224.9090396509098 468.8455411716036C273.5454046366043 475.0466777072796 292.99995063088204 352.55599249080774 341.63631561657667 353.28553796559316C390.2726806022713 354.0150834403786 409.72722659654926 479.6428141984278 458.36359158224377 472.34735945057355C506.9999565679383 465.0519047027194 526.4545025622162 311.3366731654316 575.0908675479109 318.26735517589304C623.7272325336054 325.19803718635455 643.1817785278831 496.4953146659709 691.8181435135779 505.6146331007887C740.4545084992726 514.7339515356064 759.9090544935502 361.3105381882328 808.5454194792451 362.0400836630182C857.1817844649397 362.76962913780363 876.6363304592176 498.1732692579774 925.272695444912 509.1164513797587C973.9090604306066 520.05963350154 1017.6817889177316 434.2650856667747 1041.999971410579 414.56735784756836" transform="rotate(72, 400, 400)"></path>
		<path d="M-215.25006439729157 465.9769699625084C-191.94513950831293 430.32043488237105 -149.9962747081513 302.5162267912121 -103.38642493019398 294.8256015778491C-56.77657515223666 287.1349763644862 -38.13263524105372 422.4200653450073 8.477214536903602 429.06196893836625C55.087064314860925 435.7038725317251 73.73100422604392 319.01611361260893 120.34085400400124 326.7067388259719C166.9507037819585 334.3973640393349 185.59464369314156 460.0342141158188 232.20449347109889 465.9769699625084C278.81434324905615 471.919725809198 297.45828316023903 354.53281914341244 344.0681329381964 355.2319668900818C390.6779827161538 355.9311146367512 409.3219226273367 476.32435661321495 455.93177240529405 469.33287914652135C502.5416221832513 462.34140167982775 521.1855620944343 315.03097145659365 567.7954118723917 321.67287504995255C614.405261650349 328.31477864331146 633.0492015615317 492.4746695612771 679.6590513394892 501.21401639464415C726.2689011174466 509.9533632280111 744.9128410286294 362.92259210344474 791.522690806587 363.6217398501141C838.1325405845444 364.3208875967835 856.7764804957271 494.08270937861664 903.3863302736845 504.56992557865703C949.9961800516417 515.0571417786975 991.9450448518035 432.83736677038075 1015.249969740782 413.960377610308" transform="rotate(69, 400, 400)"></path>
		<path d="M-188.5000645828246 463.1084025681106C-166.20839729771455 429.0021516218922 -126.08339618451649 306.75464823034883 -81.50006161429644 299.3983980262625C-36.916727044076396 292.0421478221762 -19.083393215988366 421.44527641223993 25.49994135423168 427.7984015884963C70.08327592445175 434.1515267647526 87.91660975253978 322.5371486682067 132.49994432275986 329.89339887229306C177.08327889297988 337.24964907637934 194.91661272106796 457.42402741040746 239.49994729128798 463.1084025681106C284.0832818615081 468.7927777258136 301.91661568959603 356.5096496107144 346.49995025981605 357.1783996292677C391.0832848300362 357.847149647821 408.9166186581242 473.00590284269936 453.4999532283442 466.3184026571664C498.08328779856424 459.6309024716334 515.9166216266524 318.7252735624529 560.4999561968724 325.07839873870927C605.0832907670924 331.4315239149656 622.9166245951803 488.45402827128066 667.4999591654005 496.8134035031969C712.0832937356206 505.1727787351132 729.9166275637086 364.534649833354 774.4999621339289 365.2033998519073C819.0832967041488 365.8721498704606 836.9166305322369 489.9921533139533 881.4999651024568 500.02340359225275C926.0832996726767 510.0546538705523 966.2083007858748 431.4096516886841 988.499968070985 413.35340118774496" transform="rotate(66, 400, 400)"></path>
		<path d="M-161.7500647683576 460.23984661780446C-140.4716550871162 427.68387980550517 -102.17051766088167 310.9930811135774 -59.6136982983989 303.97120591876774C-17.05687893591613 296.94933072395804 -0.03415119092301211 420.4704989235643 42.52266817155976 426.5348456827181C85.07948753404253 432.59919244187193 102.10221527903565 326.0581951678963 144.65903464151847 333.08007036270595C187.21585400400124 340.1019455575156 204.23858174899442 454.813852149088 246.7954011114772 460.23984661780446C289.35222047395996 465.665841086521 306.374948218953 358.48649152210817 348.9317675814358 359.1248438125454C391.48858694391856 359.76319610298265 408.51131468891174 469.6874605162757 451.0681340513944 463.3039376119033C493.6249534138773 456.9204147075309 510.64768115887045 322.419587112404 553.2045005213531 328.4839338715578C595.7613198838358 334.5482806307116 612.784047628829 484.4333984253759 655.3408669913118 492.41280205584144C697.8976863537946 500.39220568630697 714.9204140987878 366.14671900735505 757.4772334612707 366.7850712977923C800.0340528237534 367.4234235882295 817.0567805687465 485.9016086933816 859.6135999312291 495.47689304994026C902.1704192937118 505.05217740649886 940.4715567199464 429.98194805107926 961.7499664011877 412.7464362092737" transform="rotate(63, 400, 400)"></path>
		<path d="M-135.00005732449608 457.37127922340665C-114.73490524712332 426.3655965450263 -78.25763150785235 315.2315025527141 -37.72732735310686 308.5440023671811C2.8029768016386356 301.8565021816481 19.015098463536845 419.49570999079697 59.54540261828231 425.27127833284817C100.07570677302783 431.04684667489937 116.28782843492604 329.57923022349405 156.81813258967156 336.26673040902705C197.34843674441709 342.95423059456004 213.56055840631535 452.2036654436766 254.09086256106082 457.37127922340665C294.62116671580634 462.53889300313665 310.83328837770455 360.46332198941013 351.36359253244996 361.0712765517313C391.8938966871955 361.67923111405247 408.1060183490937 466.3690067457601 448.6363225038392 460.2894611225483C489.16662665858473 454.2099154993365 505.37874832048294 326.1138892182633 545.9090524752285 331.88945756031455C586.4393566299739 337.66502590236576 602.6514782918721 480.4127571353794 643.1817824466176 488.0121891643942C683.7120866013631 495.61162119340895 699.9242082632613 367.75877673726427 740.4545124180069 368.36673129958547C780.9848165727526 368.97468586190666 797.1969382346506 481.81105262871813 837.7272423893962 490.93037106353586C878.2575465441414 500.0496894983536 914.7348202834125 428.55423296938255 934.9999723607853 412.13945978671063" transform="rotate(60, 400, 400)"></path>
		<path d="M-108.25002699245096 454.5027118290087C-88.99813251894685 425.04731328454744 -54.34472246663941 319.4699239918509 -15.840933519631193 313.1167988155945C22.662855427377025 306.7636736393382 38.06437100618032 418.52092105802956 76.56815995318854 424.0077109829782C115.07194890019673 429.49450090792686 130.47346447900009 333.1002652790918 168.9772534260083 339.45339045534814C207.48104237301652 345.8065156316045 222.88255795181988 449.5934787382652 261.3863468988281 454.5027118290087C299.89013584583637 459.4119449197523 315.29165142463955 362.4401524567121 353.7954403716478 363.0177092909172C392.299229318656 363.59526612512235 407.70074489745934 463.05055297524456 446.2045338444676 457.27498463319336C484.7083227914758 451.4994162911421 500.10983837027914 329.8081913241226 538.6136273172874 335.29498124907127C577.1174162642956 340.7817711740199 592.5189318430987 476.39211584538293 631.0227207901071 483.611576272947C669.5265097371154 490.831036700511 684.9280253159187 369.37083446717355 723.4318142629269 369.9483913013787C761.9356032099352 370.5259481355838 777.3371187887385 477.7204965640547 815.8409077357467 486.3838490771316C854.3446966827546 495.04720159020843 888.9981067350623 427.1265178876859 908.2500012085663 411.53248336414754" transform="rotate(57, 400, 400)"></path>
		<path d="M-81.50002717798397 451.63415206400543C-63.261390308348496 423.72903765346314 -30.431843943004623 323.7083530603822 6.045429796266319 317.6896028934025C42.52270353553729 311.67085272642277 57.11361303124565 417.5461397546567 93.59088677051662 422.7441512625028C130.06816050978756 427.9421627703489 144.659070005496 336.6213079640841 181.13634374476698 342.6400581310638C217.6136174840379 348.6588082980435 232.20452697974628 446.9832996622483 268.68180071901725 451.63415206400543C305.1590744582882 456.2850044657624 319.74998395399655 364.41699055340854 356.2272576932675 364.9641496594976C392.7045314325385 365.5113087655867 407.29544092824676 459.73210683412356 443.7727146675178 454.2605157732329C480.2499884067887 448.7889247123423 494.8408979024972 333.5025010593764 531.3181716417681 338.7005125672225C567.795445381039 343.8985240750686 582.3863548767473 472.3714821847809 618.8636286160183 479.21097101089424C655.3409023552894 486.0504598370075 669.9318118509977 370.9828998264773 706.4090855902688 371.53005893256636C742.8863593295398 372.0772180386555 757.4772688252482 473.62994812878577 793.954542564519 481.8373347201217C830.4318163037899 490.0447213114577 863.2613626691337 425.69881043538373 881.4999995387693 410.92551457097903" transform="rotate(54, 400, 400)"></path>
		<path d="M-54.74999684593885 448.76559229900204C-37.52461758017202 422.4107620223788 -6.518934901791681 327.94678212891347 27.931823629741984 322.2624069712104C62.38258216127565 316.5780318135073 76.16288557388916 416.57135845128386 110.61364410542282 421.4805915420274C145.06440263695646 426.3898246327709 158.84470604957 340.1423506490764 193.29546458110366 345.82672580677945C227.74622311263738 351.5111009644825 241.52652652525086 444.37312058623155 275.9772850567845 448.76559229900204C310.4280435883182 453.1580640117726 324.20834700093167 366.39382865010504 358.65910553246533 366.91059002807805C393.109864063999 367.42735140605106 406.89016747661253 456.4136606930025 441.3409260081462 451.2460469132725C475.79168453967986 446.07843313354243 489.5719879522933 337.19681079463027 524.022746483827 342.1060438853738C558.4735050153606 347.0152769761173 572.253808427974 468.35084852417896 606.7045669595078 474.81036574884155C641.1553254910416 481.2698829735041 654.935628903655 372.5949651857811 689.3863874351887 373.11172656375413C723.8371459667225 373.62848794172714 737.6174493793359 469.5393996935169 772.0682079108695 477.29082036311195C806.5189664424031 485.042241032707 837.5246491207834 424.2711029830816 854.7500283865503 410.31854577781047" transform="rotate(51, 400, 400)"></path>
		<path d="M-27.999997031471864 445.89702108990696C-11.787875369573655 421.0924749472027 17.39394362184312 332.18519975335295 49.818186945639525 326.8351996049265C82.24243026943591 321.48519945650014 95.21212759895451 415.5965657038192 127.63637092275087 420.2170203774602C160.0606142465473 424.83747505110114 173.03031157606586 343.6633818899769 205.45455489986227 349.0133820384033C237.8787982236587 354.3633821868297 250.84849555317726 441.7629300661229 283.2727388769737 445.89702108990696C315.69698220077004 450.031112113691 328.6666795302886 368.37065530270974 361.090922854085 368.8570189525667C393.5151661778814 369.3433826024236 406.4848635074 453.09520310778976 438.90910683119637 448.2315666092203C471.3333501549928 443.36793011065083 484.30304748451147 340.89110908579227 516.7272908083078 345.5115637594333C549.1515341321041 350.1320184330743 562.1212314616226 464.3302034194852 594.5454747854191 470.40974904269706C626.9697181092156 476.4892946659088 639.9394154387342 374.2070191009931 672.3636587625306 374.69338275085005C704.787902086327 375.179746400707 717.7575994158456 465.44883981415614 750.1818427396419 472.7442945620104C782.6060860634383 480.03974930986453 811.7879050548551 422.8433840866877 828.0000267167533 409.71156554055017" transform="rotate(48, 400, 400)"></path>
		<path d="M-1.2499972170048608 443.0284575102063C13.948866841024696 419.7741955014211 41.30682214547792 336.42362500718696 71.70455026153707 331.4079998680372C102.10227837759618 326.3923747288875 114.26136962401984 414.6217805857491 144.65909774007895 418.9534568422875C175.05682585613806 423.2851330988259 187.21591710256175 347.1844207602719 217.6136452186209 352.20004589942164C248.01137333468 357.21567103857143 260.1704645811037 439.15274717540876 290.56819269716283 443.0284575102063C320.96592081322194 446.9041678450038 333.12501205964554 370.34748958470897 363.5227401757047 370.80345550644984C393.9204682917638 371.25942142819076 406.07955953818754 449.77675315197143 436.4772876542466 445.21709393456257C466.8750157703057 440.6574347171537 479.0341070167294 344.58541500634885 509.4318351327886 348.91709126288725C539.8295632488475 353.2487675194257 551.9886544952712 460.3095659441859 582.3863826113304 466.00913996594704C612.7841107273896 471.70871398770805 624.9432019738133 375.81908064559957 655.3409300898724 376.2750465673405C685.7386582059315 376.73101248908137 697.8977494523552 461.35828756418994 728.2954775684142 468.19777639030326C758.6932056844734 475.0372652164166 786.0511609889265 421.4156728196883 801.2500250469561 409.10459293268434" transform="rotate(45, 400, 400)"></path>
		<path d="M25.500002597462128 440.159897745203C39.68560905162305 418.45591987033674 65.21970066911274 340.6620540757183 93.59091357743458 335.98080394584514C121.96212648575641 331.29955381597205 133.31061164908516 413.6469992823762 161.68182455740703 417.68989712181207C190.05303746572886 421.7327949612479 201.40152262905764 350.7054634452642 229.7727355373795 355.38671357513726C258.1439484457013 360.0679637050104 269.4924336090301 436.542568099392 297.8636465173519 440.159897745203C326.2348594256738 443.77722739101404 337.58334458900254 372.3243276814054 365.95455749732434 372.7498958750303C394.3257704056462 373.1754640686551 405.674255568975 446.45830701085043 434.0454684772969 442.20262507460217C462.41668138561863 437.9469431383539 473.7651665489475 348.27972474160265 502.1363794572693 352.32262258103856C530.5075923655911 356.3655204204744 541.8560775289197 456.28893228358396 570.2272904372418 461.6085347038943C598.5985033455637 466.9281371242047 609.9469885088923 377.4311460049034 638.3182014172143 377.8567141985282C666.6894143255362 378.28228239215304 678.0378994888648 457.2677391289211 706.4091123971866 463.6512620332935C734.7803253055084 470.0347849376659 760.3144169229981 419.98796536738615 774.5000233771591 408.4976241395158" transform="rotate(42, 400, 400)"></path>
		<path d="M52.25000241192912 437.2913303508051C65.4223512622214 417.1376366098579 89.13257919274753 344.90047551485503 115.47727689333212 340.5536003942585C141.82197459391668 336.2067252736621 152.35985367415051 412.6722103496088 178.7045513747351 416.42632977194216C205.04924907531966 420.1804491942754 215.58712815555353 354.22649850086196 241.93182585613812 358.5733736214584C268.2765235567227 362.92024874205487 278.8144026369565 433.93238139398056 305.15910033754113 437.2913303508051C331.5037980381257 440.65027930762966 342.0416771183595 374.3011581487074 368.38637481894403 374.69632861421616C394.73107251952865 375.09149907972494 405.2689515997625 443.1398532403349 431.61364930034705 439.18814858524723C457.95834700093167 435.23644393015957 468.4962260811655 351.97402684746197 494.84092378175006 355.7281462697953C521.1856214823346 359.4822656921286 531.7235005625685 452.26829099358747 558.068198263153 457.20792181244707C584.4128959637377 462.14755263130667 594.9507750439715 379.0432037348126 621.2954727445562 379.4383742003214C647.6401704451407 379.8335446658302 658.1780495253745 453.17718306425763 684.522747225959 459.10474004688916C710.8674449265435 465.0322970295207 734.5776728570697 418.5602502856895 747.750021707362 407.89064771695274" transform="rotate(39, 400, 400)"></path>
		<path d="M79.0000022263961 434.4227705858018C91.15909347281976 415.8193609787736 113.04545771638234 349.1389045833863 137.36364020922963 345.1264044720665C161.68182270207694 341.1139043607467 171.40909569921587 411.697429046236 195.72727819206315 415.16277005146674C220.04546068491047 418.62811105669743 229.77273368204942 357.74754118585423 254.0909161748967 361.76004129717404C278.40909866774405 365.77254140849385 288.136371664883 431.32220231796373 312.4545541577303 434.4227705858018C336.77273665057754 437.5233388536398 346.5000096477164 376.27799624540387 370.8181921405637 376.6427689827966C395.13637463341104 377.0075417201893 404.86364763055 439.8214070992139 429.1818301233973 436.1736797252868C453.50001261624453 432.5259523513597 463.2272856133835 355.6683365827158 487.5454681062308 359.1336775879465C511.8636505990781 362.5990185931773 521.590923596217 448.24765733298545 545.9091060890644 452.8073165503944C570.2272885819117 457.3669757678032 579.9545615790505 380.6552690941164 604.2727440718979 381.0200418315091C628.5909265647452 381.3848145689018 638.3181995618842 449.0866346289887 662.6363820547314 454.55822568987935C686.9545645475787 460.02981675077 708.8409287911412 417.13254283338733 721.0000200375649 407.2836789237842" transform="rotate(36, 400, 400)"></path>
		<path d="M105.7500020408631 431.55420319140393C116.89583568341811 414.5010777182947 136.95833624001716 353.37732602252305 159.25000352512717 349.6992009204799C181.54167081023718 346.02107581843677 190.4583377242812 410.7226401134686 212.75000500939123 413.8992027015968C235.04167229450127 417.0757652897249 243.95833920854528 361.268576241452 266.2500064936553 364.94670134349514C288.54167377876536 368.6248264455383 297.4583406928094 428.71201561255236 319.7500079779194 431.55420319140393C342.04167526302945 434.39639077025544 350.9583421770734 378.25482671270584 373.2500094621834 378.5892017219825C395.5416767472935 378.9235767312591 404.4583436613375 436.5029533286983 426.7500109464475 433.15920323593184C449.0416782315575 429.8154531431653 457.9583451456016 359.3626386885751 480.2500124307116 362.53920127670324C502.5416797158216 365.71576386483144 511.45834662986556 444.22701604298896 533.7500139149756 448.4067036589471C556.0416812000857 452.5863912749052 564.9583481141296 382.26732682402564 587.2500153992398 382.6017018333023C609.5416826843498 382.9360768425789 618.4583495983939 444.9960785643253 640.7500168835038 450.011703703475C663.0416841686138 455.0273288426248 683.1041847252128 415.7048277516907 694.2500183677679 406.67670250122114" transform="rotate(33, 400, 400)"></path>
		<path d="M132.50000185533008 428.6856396117033C142.63257789401646 413.18279827251314 160.87121476365195 357.61575127635706 181.1363668410247 354.27200118359053C201.40151891839744 350.92825109082406 209.50757974934655 409.7478549953985 229.77273182671928 412.6356391664241C250.03788390409204 415.5234233374497 258.14394473504115 364.789615111747 278.4090968124139 368.13336520451355C298.67424888978667 371.47711529728 306.7803097207358 426.10183272183826 327.04546179810853 428.6856396117033C347.3106138754813 431.2694465015683 355.4166747064304 380.23166099470507 375.6818267838031 380.53563827586567C395.94697886117586 380.83961555702626 404.05303969212497 433.18450337288004 424.31819176949773 430.1447305612742C444.5833438468705 427.10495774966824 452.6894046778196 363.0569446091316 472.95455675519236 365.9447287801573C493.21970883256506 368.8325129511829 501.32576966351417 440.20637856768974 521.5909217408869 444.0060945821971C541.8560738182597 447.8058105967045 549.9621346492088 383.87938836863214 570.2272867265815 384.18336564979273C590.4924388039544 384.48734293095333 598.5984996349034 440.90552631435907 618.8636517122762 445.46518553176793C639.1288037896488 450.0248447491768 657.3674406592844 414.2771164846913 667.5000166979708 406.0697298933553" transform="rotate(30, 400, 400)"></path>
		<path d="M159.24998641100802 425.8170760320027C168.36930484582575 411.86451882673157 184.78407802849767 361.85417653019107 203.02271489813316 358.84480144670124C221.26135176776864 355.83542636321135 228.55680651562284 408.77306987732834 246.7954433852583 411.3720756312514C265.03408025489375 413.97108138517444 272.329535002748 368.310653982042 290.56817187238346 371.3200290655319C308.8068087420189 374.32940414902174 316.10226348987317 423.49164983112416 334.3409003595086 425.8170760320027C352.5795372291441 428.1425022328812 359.8749919769983 382.2084952767043 378.1136288466338 382.4820748297488C396.35226571626924 382.75565438279335 403.6477204641234 429.8660534170618 421.8863573337589 427.13025788661645C440.12499420339435 424.3944623561712 447.4204489512486 366.7512505296882 465.65908582088406 369.35025628361126C483.8977226905195 371.9492620375343 491.19317743837365 436.18574109239046 509.43181430800917 439.6054855054471C527.6704511776447 443.0252299185038 534.9659059254989 385.4914499132387 553.2045427951343 385.7650294662832C571.4431796647699 386.03860901932774 578.7386344126242 436.8149740643929 596.9772712822595 440.91866736006085C615.215908151895 445.02236065572885 631.6306813345668 412.84940521769187 640.7499997693847 405.4627572854895" transform="rotate(27, 400, 400)"></path>
		<path d="M185.99998622547503 422.9485124523021C194.1060470564241 410.54623938095 208.6969565521325 366.0926017840251 224.9090782140307 363.4176017098119C241.12119987592888 360.7426016355987 247.6060485406882 407.79828475925825 263.8181702025864 410.1085120960787C280.0302918644846 412.4187394328992 286.51514052924387 371.8316928523371 302.7272621911421 374.5066929265503C318.9393838530403 377.18169300076346 325.42423251779957 420.88146694041006 341.6363541796978 422.9485124523021C357.8484758415959 425.0155579641941 364.3333245063552 384.18532955870353 380.5454461682534 384.428511383632C396.75756783015163 384.67169320856044 403.2424164949109 426.5476034612435 419.4545381568091 424.1157852119588C435.66665981870733 421.68396696267405 442.15150848346667 370.4455564502448 458.3636301453648 372.7557837870653C474.575751807263 375.06601112388574 481.06060047202226 432.16510361709123 497.27272213392047 435.20487642869716C513.4848437958187 438.24464924030303 519.969692460578 387.1035114578452 536.1818141224762 387.34669328277363C552.3939357843744 387.58987510770214 558.8787844491337 432.7244218144267 575.0909061110319 436.37214918835383C591.3030277729301 440.0198765622809 605.8939372686384 411.4216939506925 613.9999980995876 404.8557846776237" transform="rotate(24, 400, 400)"></path>
		<path d="M212.749986039942 420.0799488726015C219.84278926702245 409.22795993516837 232.6098350757673 370.33102703785914 246.7954415299282 367.9904019729226C260.9810479840892 365.64977690798605 266.6552905657535 406.8234996411881 280.84089701991445 408.84494856090606C295.02650347407535 410.86639748062396 300.7007460557397 375.3527317226321 314.8863525099007 377.69335678756863C329.0719589640616 380.0339818525052 334.74620154572597 418.27128404969596 348.9318079998869 420.0799488726015C363.11741445404783 421.888613695507 368.7916570357122 386.1621638407027 382.9772634898731 386.3749479375151C397.162869944034 386.58773203432753 402.83711252569844 423.2291535054252 417.0227189798594 421.10131253730106C431.20832543402025 418.9734715691769 436.8825680156847 374.1398623708013 451.0681744698456 376.1613112905193C465.2537809240065 378.1827602102372 470.9280235056708 428.144466141792 485.1136299598318 430.80426735194715C499.2992364139928 433.46406856210234 504.9734789956571 388.71557300245166 519.1590854498181 388.9283570992641C533.3446919039791 389.14114119607655 539.0189344856433 428.63386956446055 553.2045409398042 431.82563101664675C567.3901473939652 435.01739246883295 580.15719320271 409.99398268369305 587.2499964297905 404.2488120697579" transform="rotate(21, 400, 400)"></path>
		<path d="M239.49998585440898 417.2113852929009C245.57953147762083 407.9096804893868 256.5227135994021 374.56945229169315 268.68180484582575 372.56320223603325C280.8408960922494 370.55695218037334 285.70453259081887 405.848714523118 297.8636238372425 407.58138502573337C310.0227150836662 409.3140555283487 314.88635158223565 378.87377059292714 327.0454428286593 380.880020648587C339.20453407508296 382.88627070424695 344.0681705736524 415.66110115898186 356.2272618200761 417.2113852929009C368.38635306649974 418.76166942681994 373.24998956506914 388.13899812270193 385.4090808114928 388.3213844913983C397.56817205791646 388.5037708600947 402.431808556486 419.9107035496069 414.5908998029096 418.0868398626434C426.7499910493332 416.26297617567985 431.6136275479027 377.8341682913579 443.77271879432635 379.56683879397326C455.93181004074995 381.29950929658867 460.7954465393194 424.1238286664927 472.9545377857431 426.4036582751972C485.1136290321668 428.6834878839016 489.9772655307362 390.3276345470582 502.1363567771599 390.5100209157546C514.2954480235835 390.6924072844509 519.1590845221531 424.54331731449435 531.3181757685766 427.2791128449397C543.4772670150003 430.014908375385 554.4204491367816 408.56627141669367 560.4999947599933 403.6418394618921" transform="rotate(18, 400, 400)"></path>
		<path d="M266.249985668876 414.34281980585166C271.31627368821916 406.5913991362566 280.43559212303694 378.80787563817853 290.5681681617233 377.13600059179527C300.70074420040964 375.464125545412 304.7537746158842 404.87392749769924 314.8863506545706 406.31781958321204C325.01892669325696 407.76171166872484 329.0719571087315 382.3948075558735 339.2045331474179 384.0666826022568C349.33710918610427 385.73855764864004 353.3901396015788 413.05091636091913 363.52271564026523 414.34281980585166C373.6552916789516 415.6347232507842 377.70832209442614 390.11583049735253 387.8408981331125 390.2678191379328C397.9734741717989 390.41980777851313 402.0265045872734 416.59225168644 412.1590806259598 415.0723652806371C422.2916566646462 413.55247887483415 426.3446870801207 381.5284723045658 436.4772631188071 382.9723643900786C446.60983915749347 384.41625647559147 450.662869572968 420.10318928384487 460.7954456116544 422.00304729109854C470.9280216503408 423.90290529835227 474.98105206581533 391.93969418431607 485.1136281045017 392.0916828248964C495.24620414318815 392.24367146547667 499.29923455866265 420.45276315717956 509.43181059734906 422.73259276588396C519.5643866360354 425.0124223745884 528.6837050708532 407.13855824234565 533.7499930901963 403.03486494667766" transform="rotate(15, 400, 400)"></path>
		<path d="M293.00000074213204 411.47425622615106C297.0530311576066 405.27311969047497 304.3484859054608 383.04630089201254 312.4545467364099 381.708800854906C320.56060756735894 380.37130081779935 323.80303189973864 403.8991423796291 331.9090927306877 405.05425604803935C340.0151535616368 406.2093697164496 343.25757789401644 385.9158464261685 351.36363872496554 387.25334646327514C359.46969955591464 388.59084650038176 362.7121238882943 410.44073347020503 370.8181847192434 411.47425622615106C378.9242455501925 412.5077789820971 382.16666988257214 392.09266477935176 390.27273071352124 392.214255691816C398.37879154447035 392.3358466042802 401.62121587685 413.27380173062176 409.7272767077991 412.05789260597936C417.8333375387482 410.841983481337 421.07576187112784 385.2227782251224 429.18182270207694 386.37789189353265C437.28788353302605 387.5330055619429 440.5303078654057 416.0825518085456 448.6363686963548 417.6024382143486C456.7424295273039 419.1223246201515 459.98485385968354 393.55175572892256 468.09091469063264 393.67334664138684C476.19697552158175 393.79493755385107 479.4393998539614 416.36221090721335 487.5454606849105 418.1860745941769C495.6515215158596 420.0099382811405 502.94697626371374 405.71084697534627 507.00000667918835 402.42789233881183" transform="rotate(12, 400, 400)"></path>
		<path d="M319.75000055659905 408.60569264645045C322.7897733682049 403.9548402446934 328.2613644290956 387.28472614584655 334.34091005230744 386.2816011180166C340.42045567551924 385.2784760901867 342.85227392480397 402.924357261559 348.9318195480158 403.79069251286666C355.0113651712276 404.65702776417436 357.44318342051236 389.4368852964636 363.5227290437242 390.4400103242935C369.602274666936 391.4431353521235 372.03409291622074 407.83055057949093 378.1136385394326 408.60569264645045C384.1931841626444 409.38083471340997 386.62500241192913 394.06949906135094 392.70454803514093 394.1606922456991C398.78409365835273 394.2518854300473 401.2159119076375 409.9553517748035 407.2954575308493 409.0434199313217C413.3750031540611 408.1314880878399 415.8068214033459 388.9170841456789 421.8863670265577 389.78341939698663C427.9659126497695 390.64975464829433 430.39773089905424 412.06191433324636 436.4772765222661 413.20182913759857C442.5568221454779 414.34174394195077 444.9886403947626 395.1638172735291 451.0681860179745 395.2550104578773C457.1477316411863 395.3462036422255 459.57954989047107 412.27165865724714 465.6590955136828 413.6395564224698C471.73864113689467 415.0074541876925 477.21023219778533 404.28313570834683 480.2500050093912 401.82091973094606" transform="rotate(9, 400, 400)"></path>
		<path d="M346.4999965563687 405.7371271594012C348.52651176410603 402.6365588915632 352.17423913803316 391.523149492332 356.22726955350765 390.85439947377864C360.2802999689822 390.18564945522536 361.901512135172 401.94957023614023 365.9545425506466 402.5271270703454C370.00757296612113 403.1046839045505 371.62878513231095 392.95792225940994 375.6818155477855 393.6266722779633C379.73484596326006 394.29542229651656 381.3560581294499 405.2203657814282 385.40908854492443 405.7371271594012C389.462118960399 406.2538885373742 391.0833311265888 396.04633143600154 395.13636154206336 396.1071268922337C399.1893919575379 396.1679223484658 400.8106041237277 406.63689991163653 404.8636345392023 406.0289453493154C408.91666495467683 405.4209907869942 410.53787712086665 392.6113881588869 414.5909075363412 393.188944993092C418.64393795181576 393.76650182729713 420.2651501180056 408.0412749505985 424.31818053348013 408.8012181535C428.3712109489547 409.56116135640144 429.9924231151445 396.77587691078696 434.04545353061906 396.8366723670191C438.0984839460936 396.8974678232512 439.71969611228343 408.18110449993236 443.772726527758 409.09303634341416C447.82575694323253 410.0049681868959 451.4734843171596 402.8554225339988 453.4999995248969 401.2139452157316" transform="rotate(6, 400, 400)"></path>
		<path d="M373.250000185533 402.86856548704924C374.2632577894017 401.3182813531302 376.0871214763652 395.7615766535146 378.11363668410246 395.427201644238C380.14015189183976 395.0928266349613 380.9507579749347 400.9747870254188 382.9772731826719 401.2635654425213C385.0037883904092 401.5523438596239 385.8143944735041 396.47896303705363 387.8409096812414 396.8133380463303C389.8674248889787 397.1477130556069 390.67803097207354 402.61018479806273 392.70454617981085 402.86856548704924C394.73106138754815 403.12694617603574 395.541667470643 398.0231676253494 397.5681826783803 398.0535653534655C399.5946978861176 398.08396308158154 400.40530396921247 403.3184518631669 402.4318191769498 403.0144745820063C404.4583343846871 402.71049730084576 405.26894046778193 396.3056959867921 407.29545567551924 396.59447440389465C409.32197088325654 396.8832528209972 410.1325769663514 404.02063938264786 412.1590921740887 404.40061098409865C414.185607381826 404.7805825855494 414.99621346492086 398.38794036274214 417.02272867265816 398.4183380908582C419.04924388039547 398.4487358189742 419.8598499634903 404.09055415731484 421.8863651712276 404.5465200790557C423.9128803789649 405.0024860007966 425.7367440659284 401.427713174348 426.7500016697971 400.60697451521446" transform="rotate(3, 400, 400)"></path>
	</g>
</svg>