<svg xmlns="http://www.w3.org/2000/svg" viewBox="0 0 1000 250" ><g fill="none" stroke-width="2"><path stroke="#30abd1" d="M173.26 103.55q-3.54 4.67-9.93 6.81" vector-effect="non-scaling-stroke"/><path stroke="#3599ba" d="m102.84 110.55-11.04-6.23" vector-effect="non-scaling-stroke"/><path stroke="#068ab6" d="m133.65 176.13-.4-12.41" vector-effect="non-scaling-stroke"/></g><path fill="#328da6" d="m174.68 24.3.36 7.91q.02.59-.52.36c-31.13-13.03-66.21-10.56-95.07 6.91q-.42.25-.84 0l-7.13-4.32q-.7-.42-.01-.85Q119.8 4.23 174.05 23.44q.6.22.63.86Z"/><path fill="#5fbad5" d="M174.14 35.04a1.11 1.1 11.1 0 1 .69 1.02l-.27 61.15a.39.39 0 0 1-.59.33q-45.81-27.72-91.32-55.62c-.42-.26-.87-.12-.62-.95a.98.93-7.4 0 1 .44-.54q44.37-24.3 91.67-5.39Z"/><path fill="#0b779e" d="M181.64 26.94c34.43 16.27 57.43 48.55 63.17 86.15a1.06 1.05 71.7 0 1-.55 1.1l-6.21 3.29q-.49.26-.57-.29-8-55.11-56.42-81.63a.73.73 0 0 1-.37-.67l.35-7.6q.03-.62.6-.35Z"/><path fill="#009ccd" d="M181.6 38.74c30.17 16.28 49.77 45.91 53.43 79.92a.97.96 72.5 0 1-.49.95l-53.32 29.88q-.5.28-.5-.3l.04-109.95a.57.57 0 0 1 .84-.5Z"/><path fill="#328da6" d="M72.55 43.05a.52.51-48 0 1 .04.85q-42.81 32.51-43.47 87.09-.01.56-.5.83l-6.96 3.86a.48.48 0 0 1-.71-.4c-1.61-37.63 14-73.27 44.15-96.23a.73.73 0 0 1 .81-.04l6.64 4.04Z"/><path fill="#5fbad5" d="m76.04 45.21 50.54 30.83a.53.53 0 0 1-.02.92l-94.01 52.6a.58.58 0 0 1-.87-.52c.75-34.39 15.4-63.61 43.46-83.8q.44-.32.9-.03Z"/><path fill="#005878" d="M450.31 117.09a.88.88 0 0 0-.89.84l-2.09 52.31a.82.81-88.2 0 1-.83.79l-16.99-.3q-.69-.02-.66-.71l2.64-51.79a1.19 1.19 0 0 0-1.26-1.25l-5.58.33a1.13 1.12 89.1 0 1-1.19-1.16l.4-11.43a.4.4 0 0 1 .42-.39l7.34.23q1.59.05 1.46-1.53c-.68-8.45-.22-19.16 8.94-23 8.09-3.39 18.31-2.11 26.71-.26a1.16 1.16 0 0 1 .91 1.08l.45 10.49a.82.81 8.5 0 1-1.09.8c-10.68-3.83-20.66-2.98-19.81 11.54a.77.77 0 0 0 .77.72l14.93-.12a1.05 1.05 0 0 1 1.06 1.1l-.51 10.59a1.39 1.39 0 0 1-1.41 1.33l-13.72-.21ZM283.95 93.73c8.65-17.43 34.51-15.26 49.79-11.78q.24.06.26.31l1.1 14.69a.56.56 0 0 1-.76.56q-10.78-4.25-20.57-3.49c-10.92.85-16.88 10.58-6.93 18.64q12.03 9.72 21.1 18.65c7.07 6.96 10.9 15.25 7.18 24.9-8.2 21.22-38.18 16.91-54.98 13.07q-.74-.17-.81-.92l-1.28-15.09a.48.48 0 0 1 .69-.47c8.72 4.26 31.45 10.54 37.24-1.19q2.33-4.72-1.77-9.33-4.05-4.56-17.15-15.59c-10.28-8.67-19.97-19.16-13.11-32.96Z"/><path fill="#5fbad5" d="M173.26 103.55q-3.54 4.67-9.93 6.81L134 93.5a1.68 1.67 44.7 0 0-1.67 0l-29.49 17.05-11.04-6.23 40.8-23.61q.6-.35 1.2 0l39.46 22.84Z"/><path fill="#005878" d="M592.53 95.22c-1.28 24.74-2.95 49.94-2.49 74.69a.84.83 89 0 1-.82.86l-18.56.22a1.55 1.54 1.9 0 1-1.56-1.66q2.83-37.1 3.85-74.27a.25.25 0 0 0-.25-.26l-26.98.33q-.92.01-.9-.91l.25-11.93q.02-.87.89-.87l73.9-.22q1.16 0 1.11 1.16l-.54 12.09q-.04.85-.89.83l-26.51-.52q-.48-.01-.5.46ZM806.63 160.56a.39.39 0 0 0-.69-.27q-11.55 14.59-28.17 11.86c-13.16-2.16-22.05-10.81-23.83-24.13-2.65-19.87 7.45-39.92 28.33-44.01q12.1-2.38 24.66-.36a1.01 1.01 0 0 0 1.17-.99l.21-20.21a1.24 1.23-89.3 0 1 1.24-1.22l17.11.2a.63.63 0 0 1 .62.68q-3.38 44.29-3.9 88.7a.2.19-88.4 0 1-.19.19H807.3a1.35 1.35 0 0 1-1.35-1.45l.68-8.99Zm-28.94-37.38q-8.13 10.85-5.24 23.54c3.78 16.62 24.79 16 30.95 1.44 3.75-8.87 3.77-21.16 3.85-31.4q.01-.52-.5-.66c-9.5-2.46-22.63-1.51-29.06 7.08ZM919.49 89.89l-5.52-.08q-.53-.01-.74-.5-.64-1.53.41-2.7.32-.36.8-.36h16.35a.71.7 1.9 0 1 .71.75l-.16 2.56q-.04.68-.71.53c-1.55-.35-6.32-1.22-6.34 1.22q-.03 8.01-.36 16.02-.03.6-.62.61l-3.6.04q-.52.01-.49-.51l.83-16.98a.57.57 0 0 0-.56-.6ZM945.22 100.89a.42.41 46.9 0 0 .78.03l5.38-14.09a.75.74-80.2 0 1 .66-.47l4.59-.16q.71-.02 1.06.6c.96 1.67-.07 16.75-.09 19.45q-.02 2.3-2.28 1.9-2.1-.36-1.88-2.04c.58-4.32.39-9.19.33-13.52a.45.45 0 0 0-.88-.15l-5.17 14.06a2.79 2.79 0 0 1-5.31-.2l-3.87-13.6a.49.49 0 0 0-.96.11l-.91 14.66a.56.55-85.9 0 1-.59.52l-2.71-.19q-.63-.05-.55-.67 1.15-9.94 1.69-19.92a1.02 1.02 0 0 1 1.02-.96h4.66a.82.81 81.9 0 1 .78.59q2.01 7.05 4.25 14.05ZM393.45 137.4a.5.5 0 0 0-.73-.48q-7.09 3.66-15.21 5.62c-5 1.21-11.87 3.83-13.51 9.01-1.67 5.31 2.25 9.67 7.77 10.27q6.77.73 13.27-1.24.57-.17.41.41l-2.77 9.78a.84.82-87.5 0 1-.63.59c-12.18 2.55-30.55 2.96-35.23-12.18-3.98-12.83 5.98-21.49 17.12-24.98 9.13-2.87 16.34-3.61 23.74-6.51 10.4-4.08 5.16-14.36-4.44-14.43q-14.22-.12-26.98 5.19a.78.77-6.7 0 1-1.07-.84l1.73-10.69a.82.82 0 0 1 .63-.67c13.61-3.11 28.53-5.23 42.42-1.49 10.33 2.79 12.75 10.14 12.02 19.99q-1.69 22.81-2.09 45.28a.78.78 0 0 1-.78.77h-16.88a.77.76 1.7 0 1-.77-.81l1.98-32.59ZM479.19 114.44c8.33-11.18 25.04-13.26 37.82-10.68 15.89 3.2 23.57 17.16 21.09 32.52a1.15 1.15 0 0 1-1.15.98l-46.25-.04a1.5 1.5 0 0 0-1.5 1.52c.41 25.85 25.32 24.05 42.34 17.48a.59.59 0 0 1 .79.65l-2.19 12.71a.76.75 88.9 0 1-.57.6c-13.63 3.11-33.34 4.28-45.02-2.95-17.7-10.95-16.5-37.84-5.36-52.79Zm41.73 14.76c2.34-21.36-27.96-20.2-30.67.07a.66.65 3.8 0 0 .65.74l29.13-.01a.9.9 0 0 0 .89-.8ZM645.69 112.2q-.2 1.9.91.35 8.25-11.56 22.66-9.49a1.36 1.35 3.1 0 1 1.17 1.29l.5 13.73a.66.65-82.2 0 1-.85.65c-12.05-3.75-22.75 3.34-24.07 15.78q-1.8 17.04-1.11 35.76a.71.7 89.2 0 1-.7.73h-16.97a1.02 1.02 0 0 1-1.02-1.09q2.21-32.54 2.36-65.15a.51.51 0 0 1 .51-.51H645a1.36 1.36 0 0 1 1.35 1.5l-.66 6.45ZM714.76 128.55c10.53-2.5 9.8-14.81-1.78-15.14q-14.6-.42-28.15 5.15a.51.51 0 0 1-.7-.55l1.73-10.99a.85.83 88 0 1 .63-.69c12.23-3.01 47.07-8.69 53.27 6.84 1.78 4.47 1.14 12.72.79 17.79q-1.32 19.07-1.66 39.39a.66.66 0 0 1-.66.65l-17.58-.25a.27.26-88 0 1-.26-.29l2.12-33.42a.25.25 0 0 0-.35-.24q-8.83 4.18-18.34 6.46-5.96 1.42-9.53 5.89c-3.81 4.79-.67 11.34 4.99 12.55q6.53 1.39 14.72-1.18.62-.19.44.44l-2.75 9.84q-.11.38-.5.47c-11.03 2.48-28.18 3.06-34.13-9.13-7.55-15.46 5.79-25.58 19.11-29q9.28-2.39 18.59-4.59ZM856.48 137.74c-2.27 26.2 25.07 24.8 41.27 18.8q1.78-.66 1.45 1.21l-2.05 11.73a.87.87 0 0 1-.66.7c-17.49 4.05-46.18 5.56-54.98-14.4q-7.37-16.72.44-34.35c7.6-17.16 26.14-21.05 43.05-17.4 15.25 3.28 22.57 17.65 19.97 32.41a.98.97-85.1 0 1-.96.81h-47q-.49 0-.53.49Zm31.63-9.07c.1-22.08-27.9-18.63-31.04.91a.38.38 0 0 0 .37.44l29.34-.03q1.32 0 1.33-1.32Z"/><path fill="#009ccd" d="M173.26 103.55c2.18 1.18 1.25 3.66 1.25 5.41q-.02 21.4-.01 42.58a1.46 1.45 75 0 1-.72 1.26l-40.13 23.33-.4-12.41 29.63-17.28a1.19 1.17 75 0 0 .58-1.02l-.13-35.06q6.39-2.14 9.93-6.81Z"/><path fill="#0b779e" d="m91.8 104.32 11.04 6.23-.03 34.97q0 .52.45.78l29.99 17.42.4 12.41-41.42-23.74q-.48-.28-.48-.84l.05-47.23ZM84.74 218.02c-30.02-16.14-49.42-46.68-52.55-80.25q-.07-.79.62-1.18l52.5-29.48q.61-.34.6.36l-.66 110.25a.34.34 0 0 1-.51.3Z"/><path fill="#666" d="M128.83 127.71q-2.89-1.79-4.5-4.6c-2.99-5.2-.94-11.73 4.3-14.41 11.91-6.08 21.7 10.38 9.49 18.94a1.15 1.13 66.8 0 0-.46 1.18l4.18 19.49q.15.69-.56.69h-15.82a.52.51-84 0 1-.5-.63l4.21-19.87q.11-.51-.34-.79Z"/><path fill="#0b779e" d="M195.12 213.05q3.16-2.85 6.26-5.49c22.93-19.56 37.31-48.9 36.38-79.56q-.05-1.49.35-2.95.15-.52.62-.79l5.91-3.32a.79.79 0 0 1 1.18.67q1.26 59.09-43.92 95.86-.41.33-.86.07l-5.8-3.38a.69.69 0 0 1-.12-1.11Z"/><path fill="#009ccd" d="M235.55 127.18c-.08 33.51-15.09 65.1-42.76 84.43a1.34 1.33 43.3 0 1-1.45.04l-51.58-31.23a.42.42 0 0 1 .01-.72l94.77-53.11q1.01-.56 1.01.59Z"/><path fill="#00496e" d="M29.7 139.12c4.16 34.87 23.56 64.36 54.2 81.26a2.68 2.67 19.9 0 1 1.34 2.84q-.55 3 .03 5.96a.46.45-82.3 0 1-.65.5c-33.24-16.58-57.93-48.3-62.66-85.92a1.55 1.54 72.3 0 1 .79-1.55l6.26-3.44a.47.46-17.9 0 1 .69.35Z"/><path fill="#0b779e" d="M185.94 215.61a.3.3 0 0 1-.01.51c-28.63 17.06-63.08 18.93-93.47 5.88a1.68 1.68 0 0 1-1.02-1.56l.22-61.26a.43.43 0 0 1 .66-.37l93.62 56.8Z"/><path fill="#00496e" d="M92.39 224.46c31.5 13.36 65.83 10.79 95.31-6.54a1.91 1.91 0 0 1 1.92 0l4.72 2.76q1.75 1.03.02 2.1c-31.13 19.38-67.48 23.33-101.89 10.22a1.42 1.41 9.1 0 1-.91-1.24l-.36-6.46a.86.86 0 0 1 1.19-.84Z"/></svg>