<?xml version="1.0" encoding="UTF-8" standalone="no"?>
<!DOCTYPE svg PUBLIC "-//W3C//DTD SVG 1.1//EN" "http://www.w3.org/Graphics/SVG/1.1/DTD/svg11.dtd">
<svg xmlns="http://www.w3.org/2000/svg" version="1.1" viewBox="0.00 0.00 500.00 500.00">
<g stroke-width="2.00" fill="none" stroke-linecap="butt">
<path stroke="#0e4b60" vector-effect="non-scaling-stroke" d="
  M 211.74 221.45
  L 211.20 221.58"
/>
<path stroke="#0e6d9d" vector-effect="non-scaling-stroke" d="
  M 297.29 240.96
  Q 297.25 241.32 296.52 241.66
  A 0.66 0.66 0.0 0 0 296.15 242.43
  Q 297.70 248.36 297.76 254.43
  C 297.79 257.72 296.83 261.84 296.76 265.61
  C 296.72 267.50 297.75 268.46 299.45 268.89"
/>
<path stroke="#0e4b60" vector-effect="non-scaling-stroke" d="
  M 202.80 285.45
  L 202.09 283.72"
/>
<path stroke="#0e6d9d" vector-effect="non-scaling-stroke" d="
  M 201.50 280.95
  L 201.29 277.91"
/>
<path stroke="#0e6d9d" vector-effect="non-scaling-stroke" d="
  M 202.98 264.27
  L 205.39 260.60"
/>
<path stroke="#0e6d9d" vector-effect="non-scaling-stroke" d="
  M 209.84 256.09
  L 211.20 254.19"
/>
<path stroke="#0e6d9d" vector-effect="non-scaling-stroke" d="
  M 218.47 238.62
  Q 215.02 244.08 216.98 248.67
  Q 217.21 249.22 217.68 248.83
  C 220.57 246.40 223.89 246.73 226.59 246.18
  Q 231.20 245.25 235.70 245.96
  A 0.62 0.62 0.0 0 1 235.63 247.20
  Q 231.81 247.39 227.94 247.21
  C 222.98 246.99 224.28 253.74 225.34 256.43"
/>
<path stroke="#0e6d9d" vector-effect="non-scaling-stroke" d="
  M 224.18 257.44
  L 221.91 260.07"
/>
<path stroke="#109ac7" vector-effect="non-scaling-stroke" d="
  M 221.91 260.07
  Q 221.18 260.53 220.46 260.58"
/>
<path stroke="#0e6d9d" vector-effect="non-scaling-stroke" d="
  M 220.46 260.58
  Q 214.76 265.20 217.12 271.73
  C 218.41 275.29 221.44 276.36 219.85 281.35
  Q 219.69 281.84 219.84 282.33
  Q 220.20 283.57 219.67 284.26"
/>
<path stroke="#0e6d9d" vector-effect="non-scaling-stroke" d="
  M 218.64 283.58
  Q 218.46 283.14 217.81 282.95"
/>
<path stroke="#0e6d9d" vector-effect="non-scaling-stroke" d="
  M 212.99 274.19
  L 212.97 273.64"
/>
<path stroke="#0e6d9d" vector-effect="non-scaling-stroke" d="
  M 206.49 273.50
  L 206.46 274.22"
/>
<path stroke="#0e6d9d" vector-effect="non-scaling-stroke" d="
  M 208.59 284.97
  L 209.76 286.26"
/>
<path stroke="#0e6d9d" vector-effect="non-scaling-stroke" d="
  M 211.46 288.75
  L 211.84 289.28"
/>
<path stroke="#109ac7" vector-effect="non-scaling-stroke" d="
  M 246.24 295.99
  L 248.82 296.54"
/>
<path stroke="#0e6d9d" vector-effect="non-scaling-stroke" d="
  M 267.92 289.21
  Q 268.79 288.53 269.23 287.27"
/>
<path stroke="#0e6d9d" vector-effect="non-scaling-stroke" d="
  M 268.34 286.43
  L 262.76 272.64"
/>
<path stroke="#0e6d9d" vector-effect="non-scaling-stroke" d="
  M 261.04 260.81
  C 256.06 262.58 256.95 255.83 257.23 253.38
  Q 257.28 252.96 257.58 252.66
  L 259.88 250.32
  Q 260.30 249.89 260.90 249.90
  L 266.90 249.99
  Q 267.50 250.00 267.94 250.41
  Q 269.15 251.55 270.67 250.51
  A 0.03 0.03 0.0 0 1 270.72 250.55
  L 270.59 250.79
  Q 270.44 251.08 270.72 251.24
  L 271.36 251.59"
/>
<path stroke="#0e6d9d" vector-effect="non-scaling-stroke" d="
  M 270.00 250.05
  Q 265.60 248.33 260.79 249.35
  A 0.79 0.72 17.1 0 1 260.04 248.08
  Q 260.31 247.87 263.68 247.80
  A 0.27 0.26 46.4 0 0 263.69 247.27
  L 260.90 247.05
  A 0.66 0.66 0.0 0 1 260.96 245.74
  L 272.65 245.86
  Q 273.21 245.87 273.67 246.18
  L 276.05 247.80
  A 0.45 0.45 0.0 0 0 276.75 247.43
  L 276.75 246.85
  Q 276.75 246.39 276.30 246.31
  Q 274.77 246.03 273.34 245.45
  Q 272.83 245.25 272.29 245.25
  L 260.99 245.25
  A 0.68 0.67 82.0 0 1 260.34 244.75
  Q 259.65 242.37 260.78 240.39"
/>
<path stroke="#0e6d9d" vector-effect="non-scaling-stroke" d="
  M 264.58 240.31
  L 263.33 239.61
  A 0.28 0.28 0.0 0 1 263.44 239.09
  L 265.79 238.91
  A 0.20 0.20 0.0 0 0 265.80 238.51
  Q 263.24 238.19 260.70 238.48
  A 0.79 0.79 0.0 0 1 259.83 237.84
  L 259.74 237.40
  A 0.52 0.51 -6.6 0 1 260.23 236.79
  L 268.67 236.54"
/>
<path stroke="#0e6d9d" vector-effect="non-scaling-stroke" d="
  M 250.48 213.89
  Q 249.67 212.98 248.69 213.77"
/>
<path stroke="#0e6d9d" vector-effect="non-scaling-stroke" d="
  M 254.10 221.16
  L 254.19 228.59
  A 0.60 0.60 0.0 0 1 253.21 229.07
  Q 252.47 228.47 251.92 229.11
  Q 251.26 229.87 251.09 228.88
  C 250.71 226.62 251.41 224.90 250.45 222.39"
/>
<path stroke="#0e6d9d" vector-effect="non-scaling-stroke" d="
  M 243.85 219.39
  L 242.50 219.03"
/>
<path stroke="#0e6d9d" vector-effect="non-scaling-stroke" d="
  M 237.24 219.02
  Q 237.03 218.64 238.03 218.28"
/>
<path stroke="#0e6d9d" vector-effect="non-scaling-stroke" d="
  M 217.98 225.23
  Q 214.45 229.17 209.71 229.25"
/>
<path stroke="#0c2d45" vector-effect="non-scaling-stroke" d="
  M 208.48 245.27
  L 209.71 244.55"
/>
<path stroke="#109ac7" vector-effect="non-scaling-stroke" d="
  M 234.03 286.31
  C 236.08 286.69 238.09 292.18 240.27 288.84"
/>
<path stroke="#0e6d9d" vector-effect="non-scaling-stroke" d="
  M 221.21 230.66
  Q 211.74 232.31 204.58 239.23
  Q 204.23 239.57 203.75 239.47
  L 202.58 239.22"
/>
<path stroke="#0e6d9d" vector-effect="non-scaling-stroke" d="
  M 223.02 267.26
  L 221.47 268.92"
/>
<path stroke="#0e6d9d" vector-effect="non-scaling-stroke" d="
  M 221.28 272.81
  Q 224.15 273.25 224.32 276.47"
/>
<path stroke="#0e6d9d" vector-effect="non-scaling-stroke" d="
  M 221.32 277.33
  Q 220.55 281.80 221.30 286.03"
/>
<path stroke="#0e6d9d" vector-effect="non-scaling-stroke" d="
  M 223.30 287.48
  Q 223.83 287.56 224.30 287.96"
/>
<path stroke="#0e6d9d" vector-effect="non-scaling-stroke" d="
  M 243.92 225.03
  Q 243.51 224.89 243.44 225.69
  A 0.47 0.47 0.0 0 0 244.18 226.11
  Q 246.57 224.45 249.46 225.24
  A 0.62 0.61 -1.5 0 0 250.21 224.46
  Q 249.94 223.62 249.49 223.73"
/>
<path stroke="#0e6d9d" vector-effect="non-scaling-stroke" d="
  M 256.37 222.93
  C 254.35 221.77 254.87 225.19 255.23 225.84
  A 0.41 0.41 0.0 0 0 255.99 225.70
  L 256.37 222.93"
/>
<path stroke="#0e6d9d" vector-effect="non-scaling-stroke" d="
  M 257.28 223.19
  Q 256.65 224.65 257.11 225.91
  Q 257.27 226.34 257.09 226.76
  Q 256.35 228.48 257.91 229.86
  A 2.31 2.27 73.2 0 0 258.77 230.33
  L 259.91 230.66"
/>
<path stroke="#0e6d9d" vector-effect="non-scaling-stroke" d="
  M 262.98 230.79
  L 263.76 230.70
  Q 263.86 229.97 263.96 230.83"
/>
<path stroke="#0e6d9d" vector-effect="non-scaling-stroke" d="
  M 263.58 234.47
  L 260.46 234.64
  A 0.82 0.81 -46.1 0 0 260.49 236.27
  Q 263.62 236.32 266.45 235.67"
/>
<path stroke="#0e6d9d" vector-effect="non-scaling-stroke" d="
  M 261.26 262.37
  Q 259.81 261.64 257.96 261.75
  Q 257.48 261.78 257.28 261.34
  L 256.18 259.01
  Q 256.03 258.68 256.03 258.31
  L 256.14 253.11
  Q 256.15 252.73 256.49 252.53
  Q 257.36 252.03 257.51 251.15"
/>
<path stroke="#11355c" vector-effect="non-scaling-stroke" d="
  M 257.51 251.15
  Q 257.97 250.50 258.02 250.89"
/>
<path stroke="#0e6d9d" vector-effect="non-scaling-stroke" d="
  M 258.02 250.89
  Q 259.94 249.92 258.93 247.62
  Q 258.75 247.21 258.80 246.76
  C 259.00 245.03 260.18 233.09 258.40 232.94"
/>
<path stroke="#11355c" vector-effect="non-scaling-stroke" d="
  M 258.40 232.94
  Q 258.44 232.87 258.48 232.80"
/>
<path stroke="#11355c" vector-effect="non-scaling-stroke" d="
  M 258.49 231.03
  L 239.00 231.08
  Q 238.44 231.08 238.20 231.58
  Q 237.60 232.82 237.77 234.24
  Q 237.83 234.80 237.27 234.78
  L 236.96 234.77"
/>
<path stroke="#0e7cac" vector-effect="non-scaling-stroke" d="
  M 236.96 234.77
  Q 236.57 234.63 236.06 235.79"
/>
<path stroke="#0e6d9d" vector-effect="non-scaling-stroke" d="
  M 234.75 235.03
  L 231.35 234.70"
/>
<path stroke="#0e7cac" vector-effect="non-scaling-stroke" d="
  M 226.59 236.01
  L 226.19 236.48"
/>
<path stroke="#0e6d9d" vector-effect="non-scaling-stroke" d="
  M 221.87 245.56
  Q 223.63 247.13 225.57 245.50"
/>
<path stroke="#0e7cac" vector-effect="non-scaling-stroke" d="
  M 225.57 245.50
  C 227.45 245.21 235.16 245.55 235.98 244.61
  A 0.75 0.75 0.0 0 0 235.17 243.41
  Q 234.15 243.78 233.08 243.70
  A 0.23 0.22 -50.5 0 1 233.04 243.26
  L 235.24 242.61
  Q 235.64 242.49 235.68 242.08
  L 235.94 239.32
  Q 236.01 238.64 235.32 238.69
  L 231.55 239.01
  Q 230.93 239.06 230.76 239.66
  Q 230.35 241.13 229.04 241.89
  Q 228.56 242.16 228.40 242.69
  Q 227.99 244.08 225.74 244.17"
/>
<path stroke="#0e6d9d" vector-effect="non-scaling-stroke" d="
  M 225.74 244.17
  C 226.14 240.08 229.04 241.15 230.27 238.82
  Q 230.49 238.40 230.96 238.35
  L 234.95 237.95"
/>
<path stroke="#0e7cac" vector-effect="non-scaling-stroke" d="
  M 236.61 237.47
  L 236.98 249.63
  Q 236.99 250.04 237.40 250.03
  Q 237.62 250.02 237.83 249.72"
/>
<path stroke="#11355c" vector-effect="non-scaling-stroke" d="
  M 237.83 249.72
  L 238.85 250.94"
/>
<path stroke="#0e6d9d" vector-effect="non-scaling-stroke" d="
  M 238.85 250.94
  Q 240.25 253.19 239.75 254.16
  A 0.55 0.55 0.0 0 0 240.71 254.71
  Q 241.21 253.93 240.98 253.03
  A 0.63 0.63 0.0 0 1 241.30 252.32
  Q 241.44 252.25 241.56 252.26
  Q 241.98 252.30 241.98 252.73
  L 241.90 258.46
  A 0.56 0.56 0.0 0 0 243.02 258.55
  Q 243.41 255.77 242.96 252.97
  Q 242.86 252.34 243.50 252.32
  L 254.64 252.07
  Q 255.20 252.06 255.15 252.63
  Q 254.52 259.01 256.15 265.20
  Q 256.25 265.56 256.00 265.85
  Q 255.90 265.97 255.77 266.12
  A 0.32 0.32 0.0 0 1 255.21 265.96
  L 254.81 263.22"
/>
<path stroke="#0e7cac" vector-effect="non-scaling-stroke" d="
  M 254.81 263.22
  L 253.88 258.30"
/>
<path stroke="#0e6d9d" vector-effect="non-scaling-stroke" d="
  M 253.88 258.30
  C 253.97 257.44 254.90 250.46 252.24 254.12"
/>
<path stroke="#0e7cac" vector-effect="non-scaling-stroke" d="
  M 252.24 254.12
  Q 252.04 253.25 251.59 253.03
  Q 251.08 252.78 251.05 253.35
  Q 250.78 259.96 251.16 266.58
  Q 251.19 267.09 250.71 267.26
  Q 250.04 267.50 248.97 266.65"
/>
<path stroke="#0e6d9d" vector-effect="non-scaling-stroke" d="
  M 248.97 266.65
  L 249.00 266.03"
/>
<path stroke="#0e7cac" vector-effect="non-scaling-stroke" d="
  M 249.00 266.03
  Q 250.28 265.23 249.93 263.69"
/>
<path stroke="#0e6d9d" vector-effect="non-scaling-stroke" d="
  M 249.93 263.69
  L 249.98 253.73
  A 0.58 0.58 0.0 0 0 248.82 253.70
  L 248.72 256.03
  Q 248.68 256.90 248.00 256.36
  Q 247.13 255.67 245.98 255.75
  Q 245.45 255.79 245.19 255.34
  L 244.99 255.01
  A 0.56 0.56 0.0 0 0 243.95 255.33
  C 244.12 257.92 244.07 259.08 243.23 261.85
  Q 242.49 264.30 243.11 267.00"
/>
<path stroke="#0e7cac" vector-effect="non-scaling-stroke" d="
  M 243.11 267.00
  Q 242.81 267.51 243.40 268.11
  A 0.45 0.44 -44.5 0 1 243.39 268.73
  L 242.89 269.24
  Q 242.51 269.61 242.24 269.16
  L 241.75 268.36
  Q 241.41 267.78 241.09 268.38
  Q 240.23 270.04 238.52 270.66"
/>
<path stroke="#0e7cac" vector-effect="non-scaling-stroke" d="
  M 233.53 256.82
  Q 233.55 256.28 233.78 255.94
  Q 234.07 255.53 234.54 255.71
  Q 236.49 256.43 238.35 255.37
  Q 238.81 255.11 238.96 254.60
  Q 239.60 252.53 237.82 252.01
  A 0.94 0.93 -0.5 0 1 237.19 251.40
  L 236.93 250.62
  Q 236.76 250.11 236.23 250.06
  Q 232.85 249.80 229.50 250.06
  Q 229.03 250.09 229.27 249.69
  L 229.41 249.45
  Q 229.53 249.25 229.76 249.25
  L 235.24 249.19
  A 0.56 0.56 0.0 0 0 235.32 248.08
  Q 230.70 247.30 226.15 248.26
  Q 225.59 248.38 225.57 248.94
  L 225.33 253.66
  A 0.91 0.91 0.0 0 0 226.79 254.43
  Q 229.08 252.71 231.75 251.54
  Q 232.52 251.21 231.89 251.76
  L 225.80 257.02"
/>
<path stroke="#0e6d9d" vector-effect="non-scaling-stroke" d="
  M 224.93 231.68
  C 226.43 231.17 225.59 229.35 224.77 229.83"
/>
<path stroke="#0e6d9d" vector-effect="non-scaling-stroke" d="
  M 227.94 228.70
  Q 229.49 233.14 235.83 232.15
  Q 236.67 232.02 236.91 230.82
  Q 237.00 230.36 237.41 230.12
  Q 240.17 228.53 238.78 226.45"
/>
<path stroke="#0e7cac" vector-effect="non-scaling-stroke" d="
  M 241.24 225.99
  Q 241.52 228.08 242.19 228.82
  A 0.52 0.52 0.0 0 0 243.05 228.68
  Q 243.61 227.34 242.85 225.54"
/>
<path stroke="#0e7cac" vector-effect="non-scaling-stroke" d="
  M 252.18 276.28
  Q 252.75 278.24 251.44 280.09
  Q 251.13 280.53 251.36 281.02
  Q 251.84 282.04 253.53 282.28"
/>
<path stroke="#0e6d9d" vector-effect="non-scaling-stroke" d="
  M 253.53 282.28
  L 253.82 283.04"
/>
<path stroke="#0e7cac" vector-effect="non-scaling-stroke" d="
  M 253.82 283.04
  Q 253.68 285.78 252.17 288.31
  Q 251.74 289.04 252.52 288.72
  C 254.08 288.08 255.14 283.95 255.38 282.76"
/>
<path stroke="#0e6d9d" vector-effect="non-scaling-stroke" d="
  M 255.38 282.76
  Q 255.05 282.84 255.34 282.06"
/>
<path stroke="#0e7cac" vector-effect="non-scaling-stroke" d="
  M 255.34 282.06
  Q 257.86 278.73 258.85 274.08"
/>
<path stroke="#0e7cac" vector-effect="non-scaling-stroke" d="
  M 267.69 286.62
  L 264.76 279.83
  Q 264.55 279.34 264.09 279.07
  Q 263.41 278.66 263.60 277.88
  Q 263.72 277.38 263.52 276.90
  L 262.52 274.48
  A 1.47 1.47 0.0 0 0 259.79 274.53
  L 257.86 279.70
  A 0.49 0.49 0.0 0 0 258.56 280.30
  Q 259.91 279.56 260.59 278.10
  A 1.10 1.10 0.0 0 1 262.68 278.68
  Q 262.50 280.22 263.13 281.68
  A 1.45 1.44 69.9 0 1 262.23 283.63
  Q 259.26 284.52 258.95 281.89
  A 0.93 0.93 0.0 0 0 257.17 281.63
  L 254.90 286.94
  A 0.79 0.79 0.0 0 0 256.28 287.69
  C 257.82 285.42 264.25 282.86 264.93 287.23
  Q 265.01 287.76 265.54 287.78
  L 266.01 287.80"
/>
<path stroke="#0e7cac" vector-effect="non-scaling-stroke" d="
  M 264.70 288.53
  Q 263.96 285.42 260.10 286.73
  C 258.22 287.37 258.02 288.96 256.44 289.37
  Q 248.61 291.39 240.27 288.84"
/>
<path stroke="#0e6d9d" vector-effect="non-scaling-stroke" d="
  M 240.27 288.84
  Q 239.32 288.64 239.20 285.94"
/>
<path stroke="#0e7cac" vector-effect="non-scaling-stroke" d="
  M 239.20 285.94
  L 234.61 274.96
  A 1.74 1.74 0.0 0 0 231.57 274.65
  Q 230.80 275.76 231.53 276.62"
/>
<path stroke="#0e6d9d" vector-effect="non-scaling-stroke" d="
  M 237.70 279.03
  L 237.92 280.47"
/>
<path stroke="#0e7cac" vector-effect="non-scaling-stroke" d="
  M 237.92 280.47
  L 240.62 287.43
  A 0.56 0.56 0.0 0 0 241.69 287.37
  Q 242.53 284.22 241.63 281.34"
/>
<path stroke="#0e6d9d" vector-effect="non-scaling-stroke" d="
  M 241.63 281.34
  Q 241.26 280.20 241.67 280.39"
/>
<path stroke="#109ac7" vector-effect="non-scaling-stroke" d="
  M 243.11 267.00
  Q 244.57 266.56 245.99 265.35
  A 0.50 0.50 0.0 0 1 246.79 265.56
  L 247.18 266.60
  Q 247.36 267.11 247.91 267.10
  Q 248.41 267.08 248.97 266.65"
/>
<path stroke="#109ac7" vector-effect="non-scaling-stroke" d="
  M 252.24 254.12
  L 252.37 263.47"
/>
<path stroke="#0e7cac" vector-effect="non-scaling-stroke" d="
  M 252.37 263.47
  Q 251.36 267.12 253.98 269.52
  C 254.53 270.02 254.87 269.65 255.11 269.12"
/>
<path stroke="#109ac7" vector-effect="non-scaling-stroke" d="
  M 255.11 269.12
  Q 256.85 269.96 257.25 269.59"
/>
<path stroke="#0e7cac" vector-effect="non-scaling-stroke" d="
  M 252.28 271.92
  L 245.54 269.51
  A 1.04 1.02 37.9 0 0 244.64 269.61
  L 241.73 271.48
  Q 241.35 271.72 241.46 272.16
  Q 242.51 276.23 241.67 280.39"
/>
<path stroke="#109ac7" vector-effect="non-scaling-stroke" d="
  M 241.67 280.39
  L 237.70 279.03"
/>
<path stroke="#0e7cac" vector-effect="non-scaling-stroke" d="
  M 237.70 279.03
  L 235.27 274.00
  Q 235.06 273.56 234.61 273.36
  Q 231.41 271.94 230.33 275.79"
/>
<path stroke="#109ac7" vector-effect="non-scaling-stroke" d="
  M 230.33 275.79
  Q 226.31 272.37 223.02 267.26"
/>
<path stroke="#0e7cac" vector-effect="non-scaling-stroke" d="
  M 223.02 267.26
  Q 221.20 265.01 220.46 260.58"
/>
<path stroke="#0e7cac" vector-effect="non-scaling-stroke" d="
  M 221.91 260.07
  Q 223.11 260.30 224.48 258.24"
/>
<path stroke="#0e6d9d" vector-effect="non-scaling-stroke" d="
  M 220.78 233.82
  L 220.35 233.75
  Q 219.70 233.65 219.91 233.03
  L 220.06 232.58
  Q 220.15 232.30 219.89 232.45
  L 213.11 236.34"
/>
<path stroke="#0e6d9d" vector-effect="non-scaling-stroke" d="
  M 207.32 240.46
  Q 200.86 243.56 201.67 251.51
  Q 201.76 252.41 200.78 252.22"
/>
<path stroke="#0e6d9d" vector-effect="non-scaling-stroke" d="
  M 230.33 275.79
  Q 230.17 276.17 230.28 277.20
  Q 230.37 277.99 230.88 277.39
  L 231.53 276.62"
/>
<path stroke="#109ac7" vector-effect="non-scaling-stroke" d="
  M 231.53 276.62
  Q 234.71 277.57 235.04 282.88
  Q 235.07 283.40 234.54 283.42
  Q 232.92 283.49 232.35 284.37"
/>
<path stroke="#109ac7" vector-effect="non-scaling-stroke" d="
  M 227.88 284.69
  Q 226.70 286.23 227.39 287.74
  A 0.88 0.88 0.0 0 0 229.06 287.48
  Q 229.17 286.54 229.92 286.02
  A 0.49 0.49 0.0 0 1 230.66 286.56
  Q 230.12 288.49 228.40 289.95"
/>
<path stroke="#0e6d9d" vector-effect="non-scaling-stroke" d="
  M 266.17 231.35
  Q 266.57 231.55 265.75 231.56"
/>
<path stroke="#0e6d9d" vector-effect="non-scaling-stroke" d="
  M 263.76 230.70
  Q 264.46 227.90 263.55 226.31
  Q 263.04 225.42 263.02 226.45
  Q 262.99 228.46 263.76 230.70"
/>
<path stroke="#109ac7" vector-effect="non-scaling-stroke" d="
  M 234.71 235.69
  Q 232.00 237.00 231.16 235.33"
/>
<path stroke="#0e6d9d" vector-effect="non-scaling-stroke" d="
  M 255.11 269.12
  L 252.37 263.47"
/>
<path stroke="#109ac7" vector-effect="non-scaling-stroke" d="
  M 253.88 258.30
  C 252.17 257.82 252.01 263.58 254.81 263.22"
/>
<path stroke="#109ac7" vector-effect="non-scaling-stroke" d="
  M 225.74 244.17
  L 225.32 244.64
  Q 225.09 244.91 225.31 245.18
  L 225.57 245.50"
/>
<path stroke="#135377" vector-effect="non-scaling-stroke" d="
  M 258.40 232.94
  L 258.02 250.89"
/>
<path stroke="#135377" vector-effect="non-scaling-stroke" d="
  M 257.51 251.15
  L 238.85 250.94"
/>
<path stroke="#136186" vector-effect="non-scaling-stroke" d="
  M 237.83 249.72
  L 237.54 237.04"
/>
<path stroke="#136186" vector-effect="non-scaling-stroke" d="
  M 237.09 234.95
  Q 237.03 234.86 236.96 234.77"
/>
<path stroke="#109ac7" vector-effect="non-scaling-stroke" d="
  M 249.93 263.69
  Q 249.13 263.32 247.92 264.29
  A 0.97 0.97 0.0 0 0 247.98 265.85
  Q 248.31 266.07 249.00 266.03"
/>
<path stroke="#109ac7" vector-effect="non-scaling-stroke" d="
  M 234.98 237.41
  Q 232.99 236.28 230.67 237.10"
/>
<path stroke="#109ac7" vector-effect="non-scaling-stroke" d="
  M 255.34 282.06
  Q 254.43 281.97 253.53 282.28"
/>
<path stroke="#109ac7" vector-effect="non-scaling-stroke" d="
  M 239.20 285.94
  Q 238.17 287.16 234.49 285.00"
/>
<path stroke="#109ac7" vector-effect="non-scaling-stroke" d="
  M 241.63 281.34
  L 237.92 280.47"
/>
<path stroke="#109ac7" vector-effect="non-scaling-stroke" d="
  M 255.38 282.76
  L 253.82 283.04"
/>
<path stroke="#0e4b60" vector-effect="non-scaling-stroke" d="
  M 290.53 230.84
  A 0.87 0.87 0.0 0 0 289.66 229.97
  A 0.87 0.87 0.0 0 0 288.79 230.84
  A 0.87 0.87 0.0 0 0 289.66 231.71
  A 0.87 0.87 0.0 0 0 290.53 230.84"
/>
<path stroke="#0e6d9d" vector-effect="non-scaling-stroke" d="
  M 273.53 240.13
  L 271.50 239.09
  A 0.40 0.40 0.0 0 0 271.12 239.79
  L 273.85 241.36
  A 0.50 0.49 0.3 0 0 274.53 240.69
  Q 274.29 240.28 273.93 240.24
  A 1.21 0.94 -22.4 0 1 273.53 240.13"
/>
<path stroke="#0e6d9d" vector-effect="non-scaling-stroke" d="
  M 222.84 248.94
  C 222.07 248.90 216.99 250.62 220.01 251.84
  Q 220.64 252.10 220.67 251.42
  Q 220.78 249.48 222.85 249.25
  A 0.16 0.16 0.0 0 0 222.84 248.94"
/>
<path stroke="#0e6d9d" vector-effect="non-scaling-stroke" d="
  M 213.97 263.21
  C 218.99 262.47 218.84 255.31 217.65 251.98
  Q 217.46 251.44 216.93 251.67
  Q 209.40 255.01 212.92 262.64
  A 0.99 0.99 0.0 0 0 213.97 263.21"
/>
<path stroke="#0e6d9d" vector-effect="non-scaling-stroke" d="
  M 291.38 269.41
  Q 290.79 269.79 291.12 269.58"
/>
<path stroke="#0e6d9d" vector-effect="non-scaling-stroke" d="
  M 297.68 275.69
  Q 297.23 275.38 297.27 274.75"
/>
<path stroke="#0e6d9d" vector-effect="non-scaling-stroke" d="
  M 284.54 275.55
  Q 283.58 275.73 284.37 275.70"
/>
<path stroke="#0e6d9d" vector-effect="non-scaling-stroke" d="
  M 278.51 279.62
  Q 276.92 279.66 274.89 278.40
  A 0.79 0.79 0.0 0 1 275.47 276.95
  Q 276.73 277.22 277.72 276.65
  Q 278.56 276.16 277.63 275.88
  Q 274.67 274.99 273.24 277.39
  Q 272.96 277.85 273.30 278.28
  Q 274.66 280.02 276.77 280.37"
/>
<path stroke="#0e6d9d" vector-effect="non-scaling-stroke" d="
  M 275.50 282.29
  Q 275.53 282.43 274.86 282.70"
/>
<path stroke="#0e6d9d" vector-effect="non-scaling-stroke" d="
  M 272.16 287.48
  L 271.73 288.41"
/>
<path stroke="#0e6d9d" vector-effect="non-scaling-stroke" d="
  M 281.72 286.72
  Q 282.25 286.65 282.34 287.21"
/>
<path stroke="#0e4b60" vector-effect="non-scaling-stroke" d="
  M 202.89 282.63
  L 202.96 282.98
  Q 203.05 283.45 203.49 283.25
  Q 206.21 282.00 203.19 282.23
  Q 202.81 282.26 202.89 282.63"
/>
<path stroke="#0e6d9d" vector-effect="non-scaling-stroke" d="
  M 258.75 302.03
  Q 259.43 301.89 259.20 302.49"
/>
<path stroke="#0e6d9d" vector-effect="non-scaling-stroke" d="
  M 265.26 310.96
  Q 265.30 309.98 266.33 310.29"
/>
<path stroke="#0e6d9d" vector-effect="non-scaling-stroke" d="
  M 240.78 313.06
  Q 241.46 313.70 242.37 313.46
  Q 242.77 313.36 242.41 313.14
  Q 241.79 312.76 240.88 312.79
  Q 240.51 312.80 240.78 313.06"
/>
<path stroke="#0e7cac" vector-effect="non-scaling-stroke" d="
  M 240.93 228.58
  Q 241.40 227.68 241.02 226.76
  A 0.68 0.68 0.0 0 0 239.71 226.98
  Q 239.66 227.84 240.00 228.57
  Q 240.45 229.51 240.93 228.58"
/>
<path stroke="#0e6d9d" vector-effect="non-scaling-stroke" d="
  M 244.86 227.24
  Q 244.72 227.10 244.57 226.94
  A 0.30 0.30 0.0 0 0 244.07 227.06
  L 243.72 228.22
  A 0.57 0.57 0.0 0 0 244.25 228.96
  L 249.50 229.08
  Q 250.11 229.10 250.02 228.50
  L 249.84 227.29
  Q 249.75 226.66 249.24 227.04
  Q 247.63 228.27 245.48 227.60
  Q 245.13 227.49 244.86 227.24"
/>
<path stroke="#0e6d9d" vector-effect="non-scaling-stroke" d="
  M 255.3550 229.0080
  A 1.06 0.63 101.7 0 0 256.1869 228.0978
  A 1.06 0.63 101.7 0 0 255.7850 226.9320
  A 1.06 0.63 101.7 0 0 254.9531 227.8422
  A 1.06 0.63 101.7 0 0 255.3550 229.0080"
/>
<path stroke="#0e6d9d" vector-effect="non-scaling-stroke" d="
  M 236.0450 233.3788
  A 1.71 0.78 -4.4 0 0 234.2802 232.7323
  A 1.71 0.78 -4.4 0 0 232.6350 233.6412
  A 1.71 0.78 -4.4 0 0 234.3998 234.2877
  A 1.71 0.78 -4.4 0 0 236.0450 233.3788"
/>
<path stroke="#0e7cac" vector-effect="non-scaling-stroke" d="
  M 243.57 274.41
  Q 242.60 276.51 243.12 280.32
  A 0.72 0.72 0.0 0 0 243.66 280.93
  L 248.65 282.25
  A 2.06 2.05 -67.6 0 1 249.90 285.27
  Q 248.78 287.19 246.36 286.88
  A 1.52 1.51 -81.7 0 1 245.07 285.13
  Q 245.27 283.95 245.08 282.80
  A 1.05 1.05 0.0 0 0 243.00 282.98
  L 243.00 287.27
  Q 243.00 287.88 243.59 288.04
  C 246.20 288.70 250.95 289.26 252.10 286.16
  Q 252.92 283.93 250.44 281.00
  A 0.90 0.90 0.0 0 1 250.47 279.80
  Q 252.03 278.17 251.08 276.15"
/>
<path stroke="#0e7cac" vector-effect="non-scaling-stroke" d="
  M 246.24 275.63
  Q 244.02 276.83 245.42 279.90
  Q 245.63 280.38 246.16 280.30
  Q 250.42 279.68 248.01 276.22"
/>
<path stroke="#0e7cac" vector-effect="non-scaling-stroke" d="
  M 260.31 281.71
  Q 260.07 282.68 261.06 282.74
  Q 261.29 282.75 261.58 282.83
  A 1.51 1.03 51.7 0 0 261.40 280.25
  Q 260.73 280.02 260.31 281.71"
/>
<path stroke="#0e7cac" vector-effect="non-scaling-stroke" d="
  M 246.06 283.57
  L 245.95 285.25
  A 0.65 0.65 0.0 0 0 246.55 285.94
  L 246.71 285.95
  A 2.43 1.34 3.9 0 0 249.23 284.78
  L 249.25 284.48
  A 2.43 1.34 3.9 0 0 246.91 282.98
  L 246.75 282.97
  A 0.65 0.65 0.0 0 0 246.06 283.57"
/>
<path stroke="#0e7cac" vector-effect="non-scaling-stroke" d="
  M 246.7181 279.2112
  A 1.27 0.97 107.5 0 0 248.0251 278.2917
  A 1.27 0.97 107.5 0 0 247.4819 276.7888
  A 1.27 0.97 107.5 0 0 246.1749 277.7083
  A 1.27 0.97 107.5 0 0 246.7181 279.2112"
/>
</g>
<path fill="#0b0a08" d="
  M 164.81 173.69
  Q 165.53 173.71 165.47 174.37
  A 0.31 0.31 0.0 0 1 164.92 174.54
  L 152.91 159.92
  Q 152.56 159.49 152.06 159.27
  L 151.35 158.94
  A 0.61 0.61 0.0 0 1 151.06 158.11
  L 151.46 157.34
  Q 151.77 156.75 151.10 156.75
  L 147.00 156.75
  A 0.50 0.50 0.0 0 0 146.50 157.26
  Q 146.50 157.38 146.51 157.51
  Q 146.53 157.98 146.23 157.62
  C 145.06 156.21 140.03 156.71 138.22 156.80
  A 0.49 0.49 0.0 0 0 137.75 157.29
  L 137.75 164.26
  A 0.73 0.72 0.4 0 0 138.47 164.98
  C 142.19 165.04 146.39 164.09 148.47 168.42
  A 1.10 1.10 0.0 0 1 147.48 170.00
  L 111.80 170.00
  A 0.68 0.67 4.1 0 1 111.13 169.23
  C 111.85 164.19 117.80 164.90 121.41 165.02
  A 0.54 0.54 0.0 0 0 121.97 164.48
  L 122.01 157.38
  Q 122.02 156.75 121.38 156.75
  L 79.25 156.75
  A 2.50 2.50 0.0 0 1 76.75 154.25
  L 76.75 84.00
  A 2.00 2.00 0.0 0 1 78.75 82.00
  L 181.12 82.00
  A 1.88 1.88 0.0 0 1 183.00 83.88
  L 183.00 154.47
  A 2.28 2.28 0.0 0 1 180.72 156.75
  L 153.97 156.75
  Q 150.95 156.75 152.88 159.07
  Q 158.99 166.44 164.81 173.69
  Z
  M 180.75 85.25
  A 1.00 1.00 0.0 0 0 179.75 84.25
  L 79.75 84.25
  A 1.00 1.00 0.0 0 0 78.75 85.25
  L 78.75 148.25
  A 1.00 1.00 0.0 0 0 79.75 149.25
  L 179.75 149.25
  A 1.00 1.00 0.0 0 0 180.75 148.25
  L 180.75 85.25
  Z"
/>
<path fill="#0b0a08" d="
  M 339.60 177.12
  C 340.92 177.96 341.22 175.84 342.20 176.27
  Q 342.78 176.53 342.19 176.78
  Q 337.13 178.92 332.11 181.12
  C 328.10 182.87 322.42 190.55 322.51 194.99
  Q 322.52 195.69 321.92 195.33
  L 321.62 195.16
  Q 321.35 195.00 321.48 194.71
  C 322.11 193.26 322.71 188.08 324.39 187.93
  Q 324.87 187.89 325.14 187.49
  C 326.96 184.87 328.45 182.07 331.54 180.75
  Q 334.23 179.59 336.94 178.48
  Q 337.49 178.26 337.84 177.78
  L 352.35 158.53
  A 1.11 1.11 0.0 0 0 351.46 156.75
  L 323.50 156.75
  A 2.50 2.50 0.0 0 1 321.00 154.25
  L 321.00 84.25
  A 2.25 2.25 0.0 0 1 323.25 82.00
  L 425.25 82.00
  A 2.25 2.25 0.0 0 1 427.50 84.25
  L 427.50 154.00
  A 2.75 2.75 0.0 0 1 424.75 156.75
  L 382.88 156.75
  Q 382.25 156.75 382.25 157.37
  L 382.25 164.25
  Q 382.25 164.89 382.89 164.92
  C 386.89 165.14 390.29 164.12 392.97 168.14
  A 1.20 1.19 73.1 0 1 391.98 170.00
  L 356.51 170.00
  A 0.92 0.91 5.9 0 1 355.61 168.90
  C 356.58 164.09 362.34 165.06 365.92 164.93
  A 0.55 0.54 -0.6 0 0 366.45 164.40
  L 366.52 157.40
  Q 366.53 156.76 365.90 156.76
  L 354.68 156.80
  Q 353.92 156.80 354.04 157.55
  Q 354.21 158.64 353.16 158.98
  Q 352.58 159.16 352.21 159.65
  L 339.48 176.43
  Q 339.17 176.84 339.60 177.12
  Z
  M 425.25 85.16
  A 0.91 0.91 0.0 0 0 424.34 84.25
  L 324.16 84.25
  A 0.91 0.91 0.0 0 0 323.25 85.16
  L 323.25 148.34
  A 0.91 0.91 0.0 0 0 324.16 149.25
  L 424.34 149.25
  A 0.91 0.91 0.0 0 0 425.25 148.34
  L 425.25 85.16
  Z"
/>
<path fill="#0b0a08" d="
  M 346.51 173.51
  C 348.04 171.46 356.83 158.83 358.10 158.36
  Q 358.77 158.11 358.34 158.68
  Q 348.95 171.25 339.34 183.63
  C 337.30 186.25 333.68 187.09 330.73 188.29
  A 1.29 1.28 89.6 0 0 330.01 189.03
  Q 329.76 189.68 328.57 189.61
  A 0.84 0.83 19.6 0 1 327.94 188.29
  Q 328.46 187.57 329.37 187.92
  Q 329.89 188.12 330.41 187.90
  Q 333.98 186.38 337.55 184.87
  Q 338.04 184.66 338.34 184.22
  C 340.16 181.58 342.09 179.48 343.56 176.59
  C 344.27 175.19 345.64 174.67 346.51 173.51
  Z"
/>
<path fill="#0b0a08" d="
  M 150.12 162.08
  L 159.69 173.71
  Q 159.97 174.05 160.40 174.17
  Q 161.55 174.48 161.23 175.73
  A 0.31 0.30 -57.6 0 1 160.70 175.85
  L 150.18 162.99
  Q 149.96 162.72 150.00 162.36
  Q 150.01 162.26 150.04 162.10
  Q 150.06 162.00 150.12 162.08
  Z"
/>
<path fill="#0b0a08" d="
  M 176.37 176.02
  C 178.76 178.98 180.81 180.21 181.00 184.46
  Q 181.03 185.11 180.56 184.66
  C 179.91 184.03 180.45 181.65 179.50 180.50
  Q 173.66 173.43 167.89 166.31
  C 167.35 165.64 166.76 165.36 166.05 164.93
  Q 165.52 164.60 165.78 164.04
  L 165.94 163.69
  Q 166.26 163.00 166.71 163.61
  Q 171.43 169.90 176.37 176.02
  Z"
/>
<path fill="#0b0a08" d="
  M 336.89 164.47
  A 0.57 0.57 0.0 0 1 337.60 163.97
  L 338.35 164.16
  A 0.82 0.82 0.0 0 1 338.25 165.76
  C 336.65 165.96 326.10 180.78 324.39 183.08
  Q 324.10 183.47 324.04 183.95
  L 323.64 187.28
  A 0.18 0.18 0.0 0 1 323.29 187.28
  C 323.10 185.44 323.13 183.82 324.31 182.23
  C 326.75 178.94 336.61 167.69 336.89 164.47
  Z"
/>
<path fill="#0b0a08" d="
  M 164.06 175.69
  Q 164.43 175.66 164.61 176.03
  Q 164.87 176.57 164.31 176.35
  L 162.54 175.68
  Q 161.65 175.35 162.57 175.08
  Q 163.43 174.83 164.06 175.69
  Z"
/>
<path fill="#0b0a08" d="
  M 167.61 176.94
  C 169.69 177.58 176.11 179.42 176.49 181.87
  A 0.24 0.24 0.0 0 1 176.04 182.01
  Q 175.41 180.71 174.12 179.96
  Q 173.96 179.87 173.80 179.81
  L 165.79 176.74
  A 0.66 0.57 58.8 0 1 166.00 175.53
  Q 166.57 175.68 166.88 176.31
  Q 167.11 176.79 167.61 176.94
  Z"
/>
<path fill="#0b0a08" d="
  M 174.83 185.51
  Q 175.99 185.24 176.62 186.19
  A 0.62 0.61 -24.3 0 1 176.26 187.13
  Q 175.17 187.40 174.53 186.46
  Q 174.24 186.03 173.75 185.87
  Q 171.28 185.10 168.97 184.16
  C 165.72 182.84 163.56 179.47 161.50 176.77
  A 0.19 0.19 0.0 0 1 161.78 176.52
  Q 164.46 179.18 166.57 182.31
  A 1.83 1.77 82.6 0 0 167.41 182.98
  L 173.83 185.44
  Q 174.32 185.63 174.83 185.51
  Z"
/>
<path fill="#0b0a08" d="
  M 180.34 187.06
  Q 180.11 186.86 180.09 186.70
  A 0.58 0.58 0.0 0 1 181.18 186.33
  Q 181.70 187.30 181.78 188.45
  Q 181.88 189.70 181.30 188.59
  L 180.83 187.68
  Q 180.65 187.32 180.34 187.06
  Z"
/>
<path fill="#0b0a08" d="
  M 183.14 192.74
  Q 181.25 191.90 181.29 189.77
  Q 181.31 188.99 181.69 189.68
  C 182.97 191.98 186.05 194.40 186.70 196.26
  A 0.37 0.30 23.4 0 1 186.06 196.44
  L 183.87 193.34
  Q 183.59 192.94 183.14 192.74
  Z"
/>
<path fill="#0b0a08" d="
  M 188.54 197.87
  L 189.44 199.34
  A 0.25 0.25 0.0 0 1 189.07 199.67
  Q 188.03 198.84 187.40 197.66
  Q 187.19 197.26 187.60 197.06
  L 187.97 196.89
  Q 188.34 196.71 188.30 196.30
  Q 188.00 193.32 186.73 190.64
  A 0.63 0.63 0.0 0 1 187.33 189.74
  L 187.96 189.77
  Q 188.63 189.81 188.44 190.45
  L 187.99 192.05
  Q 187.83 192.59 188.10 193.09
  Q 189.09 194.97 188.43 197.02
  Q 188.29 197.47 188.54 197.87
  Z"
/>
<path fill="#0b0a08" d="
  M 315.32 199.97
  C 315.32 198.08 316.77 195.46 315.40 193.85
  A 0.66 0.66 0.0 0 1 315.95 192.76
  L 316.76 192.82
  A 0.61 0.61 0.0 0 1 317.31 193.58
  L 315.65 200.01
  Q 315.32 201.28 315.32 199.97
  Z"
/>
<path fill="#0b0a08" d="
  M 191.99 205.54
  Q 192.65 206.32 192.91 206.97
  A 0.28 0.28 0.0 0 1 192.43 207.26
  L 182.13 194.60
  A 0.51 0.47 -88.1 0 1 182.82 193.90
  Q 183.03 194.12 183.01 194.40
  Q 182.96 194.91 183.29 195.30
  Q 187.65 200.42 191.99 205.54
  Z"
/>
<path fill="#0b0a08" d="
  M 317.03 201.08
  Q 318.28 198.09 320.57 195.89
  Q 321.14 195.34 320.78 196.04
  Q 319.35 198.84 317.03 201.08
  Z"
/>
<path fill="#0b0a08" d="
  M 317.03 201.08
  L 310.08 210.35
  A 0.53 0.53 0.0 0 0 310.30 211.16
  Q 310.99 211.44 311.52 210.80
  Q 316.66 204.40 321.64 197.86
  Q 321.97 197.43 322.03 197.97
  C 322.12 198.62 313.37 209.68 312.30 211.09
  A 0.55 0.52 -75.5 0 1 312.00 211.28
  L 302.54 213.24
  Q 302.22 213.31 301.97 213.10
  Q 301.77 212.94 301.47 212.82
  Q 301.17 212.70 301.49 212.65
  L 308.20 211.60
  Q 308.72 211.52 309.01 211.09
  C 310.72 208.51 314.89 204.24 315.43 201.47
  Q 315.53 200.97 316.04 201.01
  L 317.03 201.08
  Z"
/>
<ellipse fill="#0b0a08" cx="0.00" cy="0.00" transform="translate(191.31,202.33) rotate(50.6)" rx="2.67" ry="0.32"/>
<path fill="#0b0a08" d="
  M 196.08 207.33
  A 0.20 0.20 0.0 0 1 195.95 207.69
  L 194.33 207.49
  Q 193.72 207.42 194.03 206.89
  L 194.27 206.50
  Q 194.39 206.30 194.59 206.42
  L 196.08 207.33
  Z"
/>
<ellipse fill="#0b0a08" cx="0.00" cy="0.00" transform="translate(197.92,207.52) rotate(3.1)" rx="1.29" ry="0.27"/>
<path fill="#0b0a08" d="
  M 204.36 207.32
  Q 205.15 207.21 205.08 208.00
  C 204.96 209.54 203.38 208.97 202.69 208.14
  Q 202.25 207.62 202.92 207.52
  L 204.36 207.32
  Z"
/>
<path fill="#0b0a08" d="
  M 201.33 207.84
  L 201.24 208.50
  Q 201.18 208.94 200.81 208.69
  L 199.91 208.09
  Q 199.12 207.56 200.07 207.53
  L 201.02 207.50
  Q 201.38 207.48 201.33 207.84
  Z"
/>
<path fill="#0b0a08" d="
  M 211.74 221.45
  L 211.20 221.58
  Q 206.08 215.60 201.42 209.66
  A 0.27 0.27 0.0 0 1 201.84 209.32
  L 211.74 221.45
  Z"
/>
<path fill="#108bb8" d="
  M 297.29 240.96
  Q 297.25 241.32 296.52 241.66
  A 0.66 0.66 0.0 0 0 296.15 242.43
  Q 297.70 248.36 297.76 254.43
  C 297.79 257.72 296.83 261.84 296.76 265.61
  C 296.72 267.50 297.75 268.46 299.45 268.89
  Q 301.19 287.64 285.46 300.59
  A 0.38 0.37 4.6 0 1 284.97 300.02
  Q 288.37 297.09 289.99 294.15
  Q 291.13 292.08 289.30 293.57
  C 280.83 300.41 274.29 307.32 264.06 313.14
  Q 261.51 314.59 258.61 314.95
  C 239.38 317.34 222.88 313.25 210.56 297.95
  C 207.68 294.38 203.68 290.03 202.80 285.45
  L 202.09 283.72
  Q 201.39 282.44 201.50 280.95
  L 201.29 277.91
  Q 200.61 271.65 202.98 264.27
  L 205.39 260.60
  L 209.84 256.09
  L 211.20 254.19
  L 215.49 250.37
  Q 215.88 250.03 215.78 249.52
  C 214.88 244.95 213.73 241.39 218.47 238.62
  Q 215.02 244.08 216.98 248.67
  Q 217.21 249.22 217.68 248.83
  C 220.57 246.40 223.89 246.73 226.59 246.18
  Q 231.20 245.25 235.70 245.96
  A 0.62 0.62 0.0 0 1 235.63 247.20
  Q 231.81 247.39 227.94 247.21
  C 222.98 246.99 224.28 253.74 225.34 256.43
  Q 224.54 256.77 224.18 257.44
  L 221.91 260.07
  Q 221.18 260.53 220.46 260.58
  Q 214.76 265.20 217.12 271.73
  C 218.41 275.29 221.44 276.36 219.85 281.35
  Q 219.69 281.84 219.84 282.33
  Q 220.20 283.57 219.67 284.26
  L 218.64 283.58
  Q 218.46 283.14 217.81 282.95
  L 212.99 274.19
  L 212.97 273.64
  Q 210.48 269.73 211.52 265.81
  Q 211.68 265.22 211.09 265.05
  Q 209.23 264.51 208.41 262.68
  A 0.96 0.96 0.0 0 0 206.58 263.09
  C 206.61 264.14 205.54 273.77 206.49 273.50
  L 206.46 274.22
  Q 206.08 279.82 208.59 284.97
  L 209.76 286.26
  Q 209.91 288.19 211.46 288.75
  L 211.84 289.28
  C 210.87 292.03 226.21 299.85 228.45 301.84
  C 230.72 303.86 233.26 305.72 235.65 307.65
  Q 245.42 315.54 256.90 312.77
  Q 258.71 312.33 257.17 311.29
  C 249.96 306.38 241.43 304.45 233.56 301.28
  Q 233.08 301.09 232.94 300.58
  L 232.14 297.65
  A 0.56 0.56 0.0 0 1 232.80 296.95
  Q 235.39 297.54 237.89 298.41
  Q 238.40 298.59 238.90 298.42
  L 246.24 295.99
  L 248.82 296.54
  C 254.25 298.49 265.60 294.56 267.92 289.21
  Q 268.79 288.53 269.23 287.27
  Q 269.61 287.12 269.81 286.82
  Q 270.09 286.39 269.67 286.10
  Q 269.26 285.83 268.34 286.43
  L 262.76 272.64
  C 266.95 271.09 273.81 268.99 273.77 265.03
  Q 273.73 260.54 269.40 257.77
  Q 268.92 257.47 268.38 257.66
  L 267.50 257.98
  Q 267.07 258.13 266.69 257.88
  C 264.03 256.13 260.45 257.10 261.04 260.81
  C 256.06 262.58 256.95 255.83 257.23 253.38
  Q 257.28 252.96 257.58 252.66
  L 259.88 250.32
  Q 260.30 249.89 260.90 249.90
  L 266.90 249.99
  Q 267.50 250.00 267.94 250.41
  Q 269.15 251.55 270.67 250.51
  A 0.03 0.03 0.0 0 1 270.72 250.55
  L 270.59 250.79
  Q 270.44 251.08 270.72 251.24
  L 271.36 251.59
  C 274.84 252.68 279.90 254.61 277.69 258.80
  C 276.80 260.51 276.68 261.61 277.48 263.20
  A 0.77 0.77 0.0 0 0 278.17 263.63
  Q 283.47 263.59 283.76 258.53
  C 284.20 250.74 277.20 248.23 270.23 248.79
  A 0.47 0.47 0.0 0 0 269.81 249.39
  L 270.00 250.05
  Q 265.60 248.33 260.79 249.35
  A 0.79 0.72 17.1 0 1 260.04 248.08
  Q 260.31 247.87 263.68 247.80
  A 0.27 0.26 46.4 0 0 263.69 247.27
  L 260.90 247.05
  A 0.66 0.66 0.0 0 1 260.96 245.74
  L 272.65 245.86
  Q 273.21 245.87 273.67 246.18
  L 276.05 247.80
  A 0.45 0.45 0.0 0 0 276.75 247.43
  L 276.75 246.85
  Q 276.75 246.39 276.30 246.31
  Q 274.77 246.03 273.34 245.45
  Q 272.83 245.25 272.29 245.25
  L 260.99 245.25
  A 0.68 0.67 82.0 0 1 260.34 244.75
  Q 259.65 242.37 260.78 240.39
  C 262.59 240.94 276.26 245.44 276.48 244.56
  Q 276.58 244.19 276.22 244.07
  C 271.99 242.67 268.32 240.27 264.58 240.31
  L 263.33 239.61
  A 0.28 0.28 0.0 0 1 263.44 239.09
  L 265.79 238.91
  A 0.20 0.20 0.0 0 0 265.80 238.51
  Q 263.24 238.19 260.70 238.48
  A 0.79 0.79 0.0 0 1 259.83 237.84
  L 259.74 237.40
  A 0.52 0.51 -6.6 0 1 260.23 236.79
  L 268.67 236.54
  Q 276.49 239.43 282.35 244.82
  C 284.84 247.12 286.10 250.92 288.06 253.90
  C 290.53 257.66 291.37 260.04 291.27 264.23
  Q 291.24 265.29 291.68 264.33
  C 292.62 262.27 293.72 260.86 293.69 258.49
  C 293.60 252.05 293.18 245.50 289.80 240.03
  C 286.53 234.75 283.39 232.22 277.57 228.69
  Q 270.03 224.11 263.05 218.67
  Q 262.30 218.09 260.58 217.35
  C 256.83 215.76 255.34 213.92 250.48 213.89
  Q 249.67 212.98 248.69 213.77
  Q 245.53 213.76 243.12 214.82
  A 1.38 1.38 0.0 0 0 243.62 217.46
  Q 245.73 217.54 247.44 218.82
  A 0.54 0.53 47.2 0 0 248.03 218.85
  Q 248.14 218.78 248.27 218.78
  Q 248.93 218.76 249.20 218.89
  L 254.10 221.16
  L 254.19 228.59
  A 0.60 0.60 0.0 0 1 253.21 229.07
  Q 252.47 228.47 251.92 229.11
  Q 251.26 229.87 251.09 228.88
  C 250.71 226.62 251.41 224.90 250.45 222.39
  Q 246.48 221.48 243.85 219.39
  L 242.50 219.03
  C 242.68 217.34 238.64 219.16 237.24 219.02
  Q 237.03 218.64 238.03 218.28
  Q 238.77 218.28 239.09 217.94
  A 0.68 0.67 34.5 0 0 238.89 216.88
  Q 237.68 216.27 236.40 216.74
  Q 235.83 216.95 235.76 216.35
  Q 235.69 215.74 235.83 215.33
  Q 239.80 215.33 243.54 212.88
  Q 243.93 212.62 243.47 212.54
  Q 240.01 211.94 236.74 213.07
  A 1.21 1.17 0.8 0 0 236.03 213.74
  Q 235.76 214.42 235.83 215.33
  C 228.84 212.64 220.84 219.54 217.98 225.23
  Q 214.45 229.17 209.71 229.25
  L 212.82 225.82
  Q 213.15 225.46 213.06 224.98
  Q 212.66 223.00 211.20 221.58
  L 211.74 221.45
  Q 212.73 223.04 214.27 223.70
  A 0.84 0.83 33.9 0 0 215.17 223.53
  C 227.67 211.26 244.25 210.20 260.68 212.55
  C 277.56 214.96 290.47 225.25 297.29 240.96
  Z
  M 282.70 225.35
  C 282.27 224.29 277.33 222.36 277.10 222.26
  Q 276.62 222.05 276.30 221.62
  Q 271.48 215.04 263.18 214.84
  A 0.21 0.21 0.0 0 0 263.03 215.21
  Q 269.92 221.67 279.04 224.21
  Q 279.84 224.43 282.35 225.67
  Q 282.93 225.95 282.70 225.35
  Z
  M 242.25 216.10
  A 0.90 0.90 0.0 0 0 241.35 215.20
  A 0.90 0.90 0.0 0 0 240.45 216.10
  A 0.90 0.90 0.0 0 0 241.35 217.00
  A 0.90 0.90 0.0 0 0 242.25 216.10
  Z
  M 290.53 230.84
  A 0.87 0.87 0.0 0 0 289.66 229.97
  A 0.87 0.87 0.0 0 0 288.79 230.84
  A 0.87 0.87 0.0 0 0 289.66 231.71
  A 0.87 0.87 0.0 0 0 290.53 230.84
  Z
  M 273.53 240.13
  L 271.50 239.09
  A 0.40 0.40 0.0 0 0 271.12 239.79
  L 273.85 241.36
  A 0.50 0.49 0.3 0 0 274.53 240.69
  Q 274.29 240.28 273.93 240.24
  A 1.21 0.94 -22.4 0 1 273.53 240.13
  Z
  M 222.84 248.94
  C 222.07 248.90 216.99 250.62 220.01 251.84
  Q 220.64 252.10 220.67 251.42
  Q 220.78 249.48 222.85 249.25
  A 0.16 0.16 0.0 0 0 222.84 248.94
  Z
  M 213.97 263.21
  C 218.99 262.47 218.84 255.31 217.65 251.98
  Q 217.46 251.44 216.93 251.67
  Q 209.40 255.01 212.92 262.64
  A 0.99 0.99 0.0 0 0 213.97 263.21
  Z
  M 283.97 263.10
  L 283.37 267.65
  Q 283.32 268.06 283.05 268.38
  Q 280.48 271.37 279.90 275.31
  Q 279.79 276.05 280.50 275.80
  C 283.31 274.83 285.16 273.04 287.34 271.07
  C 289.13 269.45 286.22 264.29 285.20 262.80
  A 0.68 0.68 0.0 0 0 283.97 263.10
  Z
  M 291.38 269.41
  Q 290.79 269.79 291.12 269.58
  Q 288.96 270.22 289.74 272.37
  A 0.88 0.85 -4.9 0 0 290.43 272.93
  L 293.49 273.39
  Q 294.18 273.49 294.07 274.18
  L 293.73 276.38
  Q 293.63 277.00 293.01 277.04
  L 289.23 277.28
  A 0.57 0.57 0.0 0 0 288.88 278.27
  Q 290.39 279.64 292.39 279.53
  Q 292.87 279.50 293.25 279.78
  Q 295.23 281.22 293.65 282.70
  Q 293.22 283.10 292.63 283.13
  L 289.46 283.30
  A 1.20 1.19 -40.2 0 0 289.26 285.66
  C 293.99 286.71 297.22 279.18 297.68 275.69
  Q 297.23 275.38 297.27 274.75
  L 297.47 272.29
  Q 297.51 271.79 297.35 271.32
  L 295.02 264.36
  A 0.59 0.59 0.0 0 0 293.93 264.28
  L 291.38 269.41
  Z
  M 289.0353 272.4996
  A 0.88 0.64 -10.5 0 0 288.0534 272.0307
  A 0.88 0.64 -10.5 0 0 287.3047 272.8204
  A 0.88 0.64 -10.5 0 0 288.2866 273.2893
  A 0.88 0.64 -10.5 0 0 289.0353 272.4996
  Z
  M 284.54 275.55
  Q 283.58 275.73 284.37 275.70
  Q 281.93 276.05 282.15 277.98
  Q 282.21 278.51 281.68 278.47
  Q 279.80 278.35 278.51 279.62
  Q 276.92 279.66 274.89 278.40
  A 0.79 0.79 0.0 0 1 275.47 276.95
  Q 276.73 277.22 277.72 276.65
  Q 278.56 276.16 277.63 275.88
  Q 274.67 274.99 273.24 277.39
  Q 272.96 277.85 273.30 278.28
  Q 274.66 280.02 276.77 280.37
  Q 275.41 281.40 275.50 282.29
  Q 275.53 282.43 274.86 282.70
  Q 273.83 283.33 273.72 284.90
  Q 273.69 285.37 273.32 285.65
  Q 272.40 286.34 272.16 287.48
  L 271.73 288.41
  L 268.44 293.51
  Q 268.08 294.05 268.73 294.02
  Q 274.85 293.66 278.78 289.20
  A 2.52 2.51 -81.4 0 1 279.55 288.63
  Q 280.90 287.99 281.72 286.72
  Q 282.25 286.65 282.34 287.21
  Q 278.42 292.32 272.77 294.80
  Q 272.35 294.99 272.56 295.40
  Q 272.78 295.84 273.23 295.73
  Q 282.02 293.49 291.37 287.16
  A 0.53 0.52 -61.4 0 0 291.09 286.20
  L 288.03 286.14
  A 0.68 0.67 -80.1 0 1 287.41 285.25
  L 288.83 280.94
  Q 288.96 280.54 288.71 280.20
  Q 287.76 278.86 288.08 277.07
  Q 288.18 276.54 288.62 276.24
  Q 289.53 275.63 289.20 274.62
  Q 289.03 274.12 288.53 273.96
  Q 285.90 273.07 284.54 275.55
  Z
  M 293.3694 275.2121
  A 1.61 1.36 1.5 0 0 291.7956 273.8105
  A 1.61 1.36 1.5 0 0 290.1506 275.1279
  A 1.61 1.36 1.5 0 0 291.7244 276.5295
  A 1.61 1.36 1.5 0 0 293.3694 275.2121
  Z
  M 289.53 282.66
  L 293.05 282.62
  A 0.23 0.23 0.0 0 0 293.27 282.39
  L 293.27 281.84
  A 1.88 1.65 89.3 0 0 291.59 279.98
  L 290.91 279.98
  A 1.88 1.65 89.3 0 0 289.29 281.88
  L 289.29 282.43
  A 0.23 0.23 0.0 0 0 289.53 282.66
  Z
  M 202.89 282.63
  L 202.96 282.98
  Q 203.05 283.45 203.49 283.25
  Q 206.21 282.00 203.19 282.23
  Q 202.81 282.26 202.89 282.63
  Z
  M 262.11 301.01
  Q 261.20 300.33 260.15 300.05
  Q 259.69 299.93 259.30 300.21
  L 258.27 300.95
  Q 257.84 301.26 257.40 300.98
  C 252.35 297.78 248.40 302.58 242.60 299.75
  Q 242.55 299.73 242.50 299.74
  Q 242.33 299.79 242.22 299.89
  Q 242.00 300.09 242.24 300.26
  Q 249.89 305.67 258.75 302.03
  Q 259.43 301.89 259.20 302.49
  Q 255.62 306.47 250.20 303.86
  A 0.42 0.42 0.0 0 0 249.74 304.55
  C 253.47 307.82 259.95 314.90 265.26 310.96
  Q 265.30 309.98 266.33 310.29
  C 273.32 306.64 280.98 301.12 284.44 293.88
  A 0.52 0.52 0.0 0 0 283.80 293.17
  L 262.11 301.01
  Z
  M 225.42 306.97
  L 225.08 307.20
  Q 224.69 307.46 225.00 307.81
  C 227.93 311.06 233.81 312.71 238.22 313.51
  A 0.26 0.26 0.0 0 0 238.43 313.06
  C 234.12 309.55 230.36 306.51 225.63 303.56
  A 1.31 1.31 0.0 0 0 223.79 305.30
  Q 224.22 306.10 225.42 306.97
  Z
  M 240.78 313.06
  Q 241.46 313.70 242.37 313.46
  Q 242.77 313.36 242.41 313.14
  Q 241.79 312.76 240.88 312.79
  Q 240.51 312.80 240.78 313.06
  Z"
/>
<path fill="#0b0a08" d="
  M 298.79 212.34
  A 0.51 0.51 0.0 0 1 299.57 212.12
  L 300.42 212.75
  A 0.54 0.54 0.0 0 1 300.25 213.70
  L 299.10 214.04
  A 0.55 0.55 0.0 0 1 298.43 213.31
  L 298.79 212.34
  Z"
/>
<path fill="#0c4f82" d="
  M 250.48 213.89
  L 249.41 217.49
  Q 249.36 217.67 249.36 217.48
  Q 249.45 215.08 248.69 213.77
  Q 249.67 212.98 250.48 213.89
  Z"
/>
<rect fill="#0c4f82" x="-0.25" y="-8.96" transform="translate(296.77,221.52) rotate(37.2)" width="0.50" height="17.92" rx="0.25"/>
<path fill="#0c4f82" d="
  M 238.03 218.28
  Q 237.03 218.64 237.24 219.02
  Q 234.25 217.92 231.56 219.05
  C 230.92 219.31 221.91 223.48 221.71 225.23
  Q 221.46 227.50 221.21 230.66
  Q 211.74 232.31 204.58 239.23
  Q 204.23 239.57 203.75 239.47
  L 202.58 239.22
  Q 205.66 233.22 209.71 229.25
  Q 214.45 229.17 217.98 225.23
  Q 220.73 224.27 222.94 222.14
  C 225.74 219.43 230.36 218.41 234.02 217.23
  Q 234.52 217.07 234.91 217.41
  Q 236.24 218.56 238.03 218.28
  Z"
/>
<path fill="#0c4f82" d="
  M 253.93 218.23
  L 260.08 218.10
  Q 260.57 218.09 260.50 218.57
  L 260.46 218.89
  A 0.31 0.31 0.0 0 1 260.06 219.14
  Q 256.54 218.07 253.21 219.43
  Q 252.70 219.64 252.94 219.15
  L 253.13 218.74
  Q 253.37 218.24 253.93 218.23
  Z"
/>
<path fill="#0c4f82" d="
  M 242.50 219.03
  L 243.85 219.39
  L 243.92 225.03
  Q 243.51 224.89 243.44 225.69
  A 0.47 0.47 0.0 0 0 244.18 226.11
  Q 246.57 224.45 249.46 225.24
  A 0.62 0.61 -1.5 0 0 250.21 224.46
  Q 249.94 223.62 249.49 223.73
  Q 250.16 223.41 250.45 222.39
  C 251.41 224.90 250.71 226.62 251.09 228.88
  Q 251.26 229.87 251.92 229.11
  Q 252.47 228.47 253.21 229.07
  A 0.60 0.60 0.0 0 0 254.19 228.59
  L 254.10 221.16
  Q 256.95 221.73 260.10 221.01
  Q 260.52 220.91 260.65 221.33
  L 260.77 221.68
  A 0.48 0.48 0.0 0 1 260.11 222.26
  Q 257.27 220.93 256.37 222.93
  C 254.35 221.77 254.87 225.19 255.23 225.84
  A 0.41 0.41 0.0 0 0 255.99 225.70
  L 256.37 222.93
  Q 257.25 223.01 257.28 223.19
  Q 256.65 224.65 257.11 225.91
  Q 257.27 226.34 257.09 226.76
  Q 256.35 228.48 257.91 229.86
  A 2.31 2.27 73.2 0 0 258.77 230.33
  L 259.91 230.66
  C 258.42 233.80 264.37 232.24 262.98 230.79
  L 263.76 230.70
  Q 263.86 229.97 263.96 230.83
  Q 263.99 232.92 260.88 233.53
  A 0.31 0.31 0.0 0 0 260.86 234.14
  Q 261.88 234.42 263.58 234.47
  L 260.46 234.64
  A 0.82 0.81 -46.1 0 0 260.49 236.27
  Q 263.62 236.32 266.45 235.67
  Q 270.10 235.56 268.67 236.54
  L 260.23 236.79
  A 0.52 0.51 -6.6 0 0 259.74 237.40
  L 259.83 237.84
  A 0.79 0.79 0.0 0 0 260.70 238.48
  Q 263.24 238.19 265.80 238.51
  A 0.20 0.20 0.0 0 1 265.79 238.91
  L 263.44 239.09
  A 0.28 0.28 0.0 0 0 263.33 239.61
  L 264.58 240.31
  L 260.59 239.24
  Q 260.01 239.09 260.32 239.60
  L 260.78 240.39
  Q 259.65 242.37 260.34 244.75
  A 0.68 0.67 82.0 0 0 260.99 245.25
  L 272.29 245.25
  Q 272.83 245.25 273.34 245.45
  Q 274.77 246.03 276.30 246.31
  Q 276.75 246.39 276.75 246.85
  L 276.75 247.43
  A 0.45 0.45 0.0 0 1 276.05 247.80
  L 273.67 246.18
  Q 273.21 245.87 272.65 245.86
  L 260.96 245.74
  A 0.66 0.66 0.0 0 0 260.90 247.05
  L 263.69 247.27
  A 0.27 0.26 46.4 0 1 263.68 247.80
  Q 260.31 247.87 260.04 248.08
  A 0.79 0.72 17.1 0 0 260.79 249.35
  Q 265.60 248.33 270.00 250.05
  Q 272.25 250.64 274.78 250.09
  A 0.58 0.58 0.0 0 1 275.48 250.70
  C 275.41 251.96 272.77 249.91 271.36 251.59
  L 270.72 251.24
  Q 270.44 251.08 270.59 250.79
  L 270.72 250.55
  A 0.03 0.03 0.0 0 0 270.67 250.51
  Q 269.15 251.55 267.94 250.41
  Q 267.50 250.00 266.90 249.99
  L 260.90 249.90
  Q 260.30 249.89 259.88 250.32
  L 257.58 252.66
  Q 257.28 252.96 257.23 253.38
  C 256.95 255.83 256.06 262.58 261.04 260.81
  Q 262.40 261.69 264.18 260.83
  Q 264.64 260.60 264.80 261.09
  L 264.97 261.57
  A 0.41 0.40 -89.7 0 1 264.46 262.08
  Q 262.08 261.26 261.26 262.37
  Q 259.81 261.64 257.96 261.75
  Q 257.48 261.78 257.28 261.34
  L 256.18 259.01
  Q 256.03 258.68 256.03 258.31
  L 256.14 253.11
  Q 256.15 252.73 256.49 252.53
  Q 257.36 252.03 257.51 251.15
  Q 257.97 250.50 258.02 250.89
  Q 259.94 249.92 258.93 247.62
  Q 258.75 247.21 258.80 246.76
  C 259.00 245.03 260.18 233.09 258.40 232.94
  Q 258.44 232.87 258.48 232.80
  C 259.55 232.30 259.57 231.58 258.49 231.03
  L 239.00 231.08
  Q 238.44 231.08 238.20 231.58
  Q 237.60 232.82 237.77 234.24
  Q 237.83 234.80 237.27 234.78
  L 236.96 234.77
  Q 236.57 234.63 236.06 235.79
  C 236.12 235.03 235.39 234.45 234.75 235.03
  L 231.35 234.70
  Q 228.21 234.12 226.59 236.01
  L 226.19 236.48
  Q 221.68 240.09 219.33 245.24
  Q 219.05 245.85 219.71 245.91
  Q 220.80 246.00 221.87 245.56
  Q 223.63 247.13 225.57 245.50
  C 227.45 245.21 235.16 245.55 235.98 244.61
  A 0.75 0.75 0.0 0 0 235.17 243.41
  Q 234.15 243.78 233.08 243.70
  A 0.23 0.22 -50.5 0 1 233.04 243.26
  L 235.24 242.61
  Q 235.64 242.49 235.68 242.08
  L 235.94 239.32
  Q 236.01 238.64 235.32 238.69
  L 231.55 239.01
  Q 230.93 239.06 230.76 239.66
  Q 230.35 241.13 229.04 241.89
  Q 228.56 242.16 228.40 242.69
  Q 227.99 244.08 225.74 244.17
  C 226.14 240.08 229.04 241.15 230.27 238.82
  Q 230.49 238.40 230.96 238.35
  L 234.95 237.95
  C 235.26 238.94 236.32 237.75 236.61 237.47
  L 236.98 249.63
  Q 236.99 250.04 237.40 250.03
  Q 237.62 250.02 237.83 249.72
  L 238.85 250.94
  Q 240.25 253.19 239.75 254.16
  A 0.55 0.55 0.0 0 0 240.71 254.71
  Q 241.21 253.93 240.98 253.03
  A 0.63 0.63 0.0 0 1 241.30 252.32
  Q 241.44 252.25 241.56 252.26
  Q 241.98 252.30 241.98 252.73
  L 241.90 258.46
  A 0.56 0.56 0.0 0 0 243.02 258.55
  Q 243.41 255.77 242.96 252.97
  Q 242.86 252.34 243.50 252.32
  L 254.64 252.07
  Q 255.20 252.06 255.15 252.63
  Q 254.52 259.01 256.15 265.20
  Q 256.25 265.56 256.00 265.85
  Q 255.90 265.97 255.77 266.12
  A 0.32 0.32 0.0 0 1 255.21 265.96
  L 254.81 263.22
  L 253.88 258.30
  C 253.97 257.44 254.90 250.46 252.24 254.12
  Q 252.04 253.25 251.59 253.03
  Q 251.08 252.78 251.05 253.35
  Q 250.78 259.96 251.16 266.58
  Q 251.19 267.09 250.71 267.26
  Q 250.04 267.50 248.97 266.65
  L 249.00 266.03
  Q 250.28 265.23 249.93 263.69
  L 249.98 253.73
  A 0.58 0.58 0.0 0 0 248.82 253.70
  L 248.72 256.03
  Q 248.68 256.90 248.00 256.36
  Q 247.13 255.67 245.98 255.75
  Q 245.45 255.79 245.19 255.34
  L 244.99 255.01
  A 0.56 0.56 0.0 0 0 243.95 255.33
  C 244.12 257.92 244.07 259.08 243.23 261.85
  Q 242.49 264.30 243.11 267.00
  Q 242.81 267.51 243.40 268.11
  A 0.45 0.44 -44.5 0 1 243.39 268.73
  L 242.89 269.24
  Q 242.51 269.61 242.24 269.16
  L 241.75 268.36
  Q 241.41 267.78 241.09 268.38
  Q 240.23 270.04 238.52 270.66
  L 237.68 264.38
  A 0.94 0.94 0.0 0 0 237.08 263.62
  Q 233.78 262.41 233.33 258.78
  A 0.51 0.51 0.0 0 1 233.94 258.22
  Q 235.44 258.54 236.41 257.48
  Q 236.99 256.84 236.13 256.83
  L 233.53 256.82
  Q 233.55 256.28 233.78 255.94
  Q 234.07 255.53 234.54 255.71
  Q 236.49 256.43 238.35 255.37
  Q 238.81 255.11 238.96 254.60
  Q 239.60 252.53 237.82 252.01
  A 0.94 0.93 -0.5 0 1 237.19 251.40
  L 236.93 250.62
  Q 236.76 250.11 236.23 250.06
  Q 232.85 249.80 229.50 250.06
  Q 229.03 250.09 229.27 249.69
  L 229.41 249.45
  Q 229.53 249.25 229.76 249.25
  L 235.24 249.19
  A 0.56 0.56 0.0 0 0 235.32 248.08
  Q 230.70 247.30 226.15 248.26
  Q 225.59 248.38 225.57 248.94
  L 225.33 253.66
  A 0.91 0.91 0.0 0 0 226.79 254.43
  Q 229.08 252.71 231.75 251.54
  Q 232.52 251.21 231.89 251.76
  L 225.80 257.02
  Q 225.81 256.50 225.34 256.43
  C 224.28 253.74 222.98 246.99 227.94 247.21
  Q 231.81 247.39 235.63 247.20
  A 0.62 0.62 0.0 0 0 235.70 245.96
  Q 231.20 245.25 226.59 246.18
  C 223.89 246.73 220.57 246.40 217.68 248.83
  Q 217.21 249.22 216.98 248.67
  Q 215.02 244.08 218.47 238.62
  Q 220.32 236.20 224.50 233.00
  Q 225.19 232.47 224.93 231.68
  C 226.43 231.17 225.59 229.35 224.77 229.83
  L 224.75 228.59
  A 0.48 0.48 0.0 0 1 225.71 228.56
  L 225.76 229.53
  Q 225.79 230.03 226.28 230.04
  Q 227.13 230.07 227.94 228.70
  Q 229.49 233.14 235.83 232.15
  Q 236.67 232.02 236.91 230.82
  Q 237.00 230.36 237.41 230.12
  Q 240.17 228.53 238.78 226.45
  Q 239.69 225.89 239.11 223.85
  A 1.37 1.36 -84.0 0 0 238.46 223.04
  L 236.62 222.03
  A 0.63 0.62 -65.4 0 1 236.34 221.26
  Q 236.57 220.64 237.16 220.42
  A 0.34 0.34 0.0 0 1 237.57 220.91
  L 237.35 221.28
  Q 237.07 221.74 237.50 222.06
  Q 238.35 222.68 239.21 222.19
  Q 239.84 221.83 239.77 222.54
  Q 239.35 227.30 241.24 225.99
  Q 241.52 228.08 242.19 228.82
  A 0.52 0.52 0.0 0 0 243.05 228.68
  Q 243.61 227.34 242.85 225.54
  Q 243.77 222.86 243.05 220.16
  Q 242.91 219.65 242.43 219.86
  C 240.98 220.47 241.62 223.34 241.53 224.46
  Q 241.48 225.05 241.39 224.46
  C 241.08 222.64 239.68 219.34 242.50 219.03
  Z
  M 240.93 228.58
  Q 241.40 227.68 241.02 226.76
  A 0.68 0.68 0.0 0 0 239.71 226.98
  Q 239.66 227.84 240.00 228.57
  Q 240.45 229.51 240.93 228.58
  Z
  M 244.86 227.24
  Q 244.72 227.10 244.57 226.94
  A 0.30 0.30 0.0 0 0 244.07 227.06
  L 243.72 228.22
  A 0.57 0.57 0.0 0 0 244.25 228.96
  L 249.50 229.08
  Q 250.11 229.10 250.02 228.50
  L 249.84 227.29
  Q 249.75 226.66 249.24 227.04
  Q 247.63 228.27 245.48 227.60
  Q 245.13 227.49 244.86 227.24
  Z
  M 255.3550 229.0080
  A 1.06 0.63 101.7 0 0 256.1869 228.0978
  A 1.06 0.63 101.7 0 0 255.7850 226.9320
  A 1.06 0.63 101.7 0 0 254.9531 227.8422
  A 1.06 0.63 101.7 0 0 255.3550 229.0080
  Z
  M 236.0450 233.3788
  A 1.71 0.78 -4.4 0 0 234.2802 232.7323
  A 1.71 0.78 -4.4 0 0 232.6350 233.6412
  A 1.71 0.78 -4.4 0 0 234.3998 234.2877
  A 1.71 0.78 -4.4 0 0 236.0450 233.3788
  Z"
/>
<path fill="#108bb8" d="
  M 256.37 222.93
  L 255.99 225.70
  A 0.41 0.41 0.0 0 1 255.23 225.84
  C 254.87 225.19 254.35 221.77 256.37 222.93
  Z"
/>
<path fill="#108bb8" d="
  M 257.28 223.19
  L 269.60 227.51
  A 0.41 0.41 0.0 0 1 269.64 228.27
  L 268.92 228.60
  A 0.53 0.53 0.0 0 0 268.72 229.40
  L 270.38 231.65
  A 0.39 0.38 -11.5 0 1 269.98 232.25
  L 266.17 231.35
  Q 266.57 231.55 265.75 231.56
  Q 264.85 230.61 263.96 230.83
  Q 263.86 229.97 263.76 230.70
  Q 264.46 227.90 263.55 226.31
  Q 263.04 225.42 263.02 226.45
  Q 262.99 228.46 263.76 230.70
  L 262.98 230.79
  Q 261.60 230.23 259.91 230.66
  L 258.77 230.33
  A 2.31 2.27 73.2 0 1 257.91 229.86
  Q 256.35 228.48 257.09 226.76
  Q 257.27 226.34 257.11 225.91
  Q 256.65 224.65 257.28 223.19
  Z"
/>
<path fill="#108bb8" d="
  M 249.49 223.73
  Q 249.94 223.62 250.21 224.46
  A 0.62 0.61 -1.5 0 1 249.46 225.24
  Q 246.57 224.45 244.18 226.11
  A 0.47 0.47 0.0 0 1 243.44 225.69
  Q 243.51 224.89 243.92 225.03
  L 249.49 223.73
  Z"
/>
<path fill="#10a8d6" d="
  M 242.85 225.54
  Q 243.61 227.34 243.05 228.68
  A 0.52 0.52 0.0 0 1 242.19 228.82
  Q 241.52 228.08 241.24 225.99
  Q 241.04 224.98 242.85 225.54
  Z"
/>
<path fill="#0c4f82" d="
  M 263.76 230.70
  Q 262.99 228.46 263.02 226.45
  Q 263.04 225.42 263.55 226.31
  Q 264.46 227.90 263.76 230.70
  Z"
/>
<path fill="#10a8d6" d="
  M 240.93 228.58
  Q 240.45 229.51 240.00 228.57
  Q 239.66 227.84 239.71 226.98
  A 0.68 0.68 0.0 0 1 241.02 226.76
  Q 241.40 227.68 240.93 228.58
  Z"
/>
<path fill="#108bb8" d="
  M 238.78 226.45
  Q 240.17 228.53 237.41 230.12
  Q 237.00 230.36 236.91 230.82
  Q 236.67 232.02 235.83 232.15
  Q 229.49 233.14 227.94 228.70
  Q 233.05 229.57 238.78 226.45
  Z"
/>
<path fill="#108bb8" d="
  M 245.48 227.60
  Q 247.63 228.27 249.24 227.04
  Q 249.75 226.66 249.84 227.29
  L 250.02 228.50
  Q 250.11 229.10 249.50 229.08
  L 244.25 228.96
  A 0.57 0.57 0.0 0 1 243.72 228.22
  L 244.07 227.06
  A 0.30 0.30 0.0 0 1 244.57 226.94
  Q 244.72 227.10 244.86 227.24
  Q 245.13 227.49 245.48 227.60
  Z"
/>
<ellipse fill="#108bb8" cx="0.00" cy="0.00" transform="translate(255.57,227.97) rotate(101.7)" rx="1.06" ry="0.63"/>
<path fill="#108bb8" d="
  M 224.77 229.83
  C 225.59 229.35 226.43 231.17 224.93 231.68
  Q 222.73 232.25 220.78 233.82
  L 220.35 233.75
  Q 219.70 233.65 219.91 233.03
  L 220.06 232.58
  Q 220.15 232.30 219.89 232.45
  L 213.11 236.34
  Q 209.79 237.45 207.32 240.46
  Q 200.86 243.56 201.67 251.51
  Q 201.76 252.41 200.78 252.22
  Q 199.15 245.51 202.58 239.22
  L 203.75 239.47
  Q 204.23 239.57 204.58 239.23
  Q 211.74 232.31 221.21 230.66
  L 224.77 229.83
  Z"
/>
<circle fill="#0b0a08" cx="289.66" cy="230.84" r="0.87"/>
<path fill="#161a36" d="
  M 258.49 231.03
  Q 256.95 232.40 258.48 232.80
  Q 258.44 232.87 258.40 232.94
  L 258.02 250.89
  Q 257.97 250.50 257.51 251.15
  L 238.85 250.94
  L 237.83 249.72
  L 237.54 237.04
  Q 238.85 235.27 237.09 234.95
  Q 237.03 234.86 236.96 234.77
  L 237.27 234.78
  Q 237.83 234.80 237.77 234.24
  Q 237.60 232.82 238.20 231.58
  Q 238.44 231.08 239.00 231.08
  L 258.49 231.03
  Z"
/>
<path fill="#0c4f82" d="
  M 265.75 231.56
  Q 266.57 231.55 266.17 231.35
  Q 266.47 232.83 266.06 233.64
  Q 265.77 234.22 265.76 233.57
  L 265.75 231.56
  Z"
/>
<path fill="#0c4f82" d="
  M 220.78 233.82
  Q 218.78 235.93 215.80 236.20
  Q 215.27 236.25 214.98 236.70
  C 213.27 239.39 212.21 241.84 212.17 245.31
  Q 212.12 249.61 211.20 254.19
  L 209.84 256.09
  Q 208.42 250.55 208.48 245.27
  L 209.71 244.55
  L 213.11 236.34
  L 219.89 232.45
  Q 220.15 232.30 220.06 232.58
  L 219.91 233.03
  Q 219.70 233.65 220.35 233.75
  L 220.78 233.82
  Z"
/>
<ellipse fill="#108bb8" cx="0.00" cy="0.00" transform="translate(234.34,233.51) rotate(-4.4)" rx="1.71" ry="0.78"/>
<path fill="#108bb8" d="
  M 258.40 232.94
  C 260.18 233.09 259.00 245.03 258.80 246.76
  Q 258.75 247.21 258.93 247.62
  Q 259.94 249.92 258.02 250.89
  L 258.40 232.94
  Z"
/>
<path fill="#108bb8" d="
  M 266.45 235.67
  Q 263.62 236.32 260.49 236.27
  A 0.82 0.81 -46.1 0 1 260.46 234.64
  L 263.58 234.47
  Q 266.61 233.95 266.45 235.67
  Z"
/>
<path fill="#108bb8" d="
  M 231.35 234.70
  L 234.75 235.03
  L 234.71 235.69
  Q 232.00 237.00 231.16 235.33
  L 231.35 234.70
  Z"
/>
<path fill="#10a8d6" d="
  M 236.96 234.77
  Q 237.03 234.86 237.09 234.95
  Q 236.45 236.78 237.54 237.04
  L 237.83 249.72
  Q 237.62 250.02 237.40 250.03
  Q 236.99 250.04 236.98 249.63
  L 236.61 237.47
  C 236.14 236.88 234.94 236.24 234.98 237.41
  Q 232.99 236.28 230.67 237.10
  L 226.19 236.48
  L 226.59 236.01
  Q 229.59 236.85 231.16 235.33
  Q 232.00 237.00 234.71 235.69
  C 234.94 236.45 235.68 236.42 236.06 235.79
  Q 236.57 234.63 236.96 234.77
  Z"
/>
<path fill="#0c4f82" d="
  M 276.38 235.39
  A 0.39 0.39 0.0 0 1 276.44 235.87
  Q 275.95 236.75 275.16 235.73
  Q 274.92 235.41 275.22 235.15
  Q 275.72 234.73 276.38 235.39
  Z"
/>
<path fill="#108bb8" d="
  M 234.98 237.41
  Q 235.02 237.86 234.95 237.95
  L 230.96 238.35
  Q 230.49 238.40 230.27 238.82
  C 229.04 241.15 226.14 240.08 225.74 244.17
  L 225.32 244.64
  Q 225.09 244.91 225.31 245.18
  L 225.57 245.50
  Q 223.63 247.13 221.87 245.56
  L 225.54 241.71
  Q 225.83 241.40 225.71 241.00
  L 225.62 240.72
  Q 225.48 240.29 225.93 240.23
  Q 228.59 239.88 230.67 237.10
  Q 232.99 236.28 234.98 237.41
  Z"
/>
<path fill="#10a8d6" d="
  M 225.57 245.50
  L 225.31 245.18
  Q 225.09 244.91 225.32 244.64
  L 225.74 244.17
  Q 227.99 244.08 228.40 242.69
  Q 228.56 242.16 229.04 241.89
  Q 230.35 241.13 230.76 239.66
  Q 230.93 239.06 231.55 239.01
  L 235.32 238.69
  Q 236.01 238.64 235.94 239.32
  L 235.68 242.08
  Q 235.64 242.49 235.24 242.61
  L 233.04 243.26
  A 0.23 0.22 -50.5 0 0 233.08 243.70
  Q 234.15 243.78 235.17 243.41
  A 0.75 0.75 0.0 0 1 235.98 244.61
  C 235.16 245.55 227.45 245.21 225.57 245.50
  Z"
/>
<path fill="#0c4f82" d="
  M 273.93 240.24
  Q 274.29 240.28 274.53 240.69
  A 0.50 0.49 0.3 0 1 273.85 241.36
  L 271.12 239.79
  A 0.40 0.40 0.0 0 1 271.50 239.09
  L 273.53 240.13
  A 1.21 0.94 -22.4 0 0 273.93 240.24
  Z"
/>
<path fill="#0c4f82" d="
  M 207.32 240.46
  Q 204.90 244.32 204.71 248.32
  C 204.59 250.80 206.30 252.84 205.84 255.88
  Q 205.77 256.37 205.47 256.77
  Q 204.13 258.57 205.39 260.60
  L 202.98 264.27
  Q 201.40 264.35 200.41 266.81
  A 0.25 0.25 0.0 0 1 199.94 266.64
  Q 200.44 265.02 200.68 263.35
  A 0.42 0.41 66.7 0 0 199.93 263.05
  Q 198.41 265.20 199.37 267.41
  A 1.59 1.56 38.7 0 1 199.48 268.34
  Q 198.54 273.60 200.88 278.35
  Q 201.06 278.71 201.23 278.35
  Q 201.30 278.20 201.29 277.91
  L 201.50 280.95
  C 200.38 279.05 196.95 270.97 198.21 269.11
  Q 198.47 268.72 198.27 268.30
  Q 197.36 266.44 198.12 264.33
  Q 200.25 258.49 200.78 252.22
  Q 201.76 252.41 201.67 251.51
  Q 200.86 243.56 207.32 240.46
  Z"
/>
<path fill="#0c4f82" d="
  M 297.29 240.96
  C 301.94 250.54 303.98 259.32 299.45 268.89
  C 297.75 268.46 296.72 267.50 296.76 265.61
  C 296.83 261.84 297.79 257.72 297.76 254.43
  Q 297.70 248.36 296.15 242.43
  A 0.66 0.66 0.0 0 1 296.52 241.66
  Q 297.25 241.32 297.29 240.96
  Z"
/>
<path fill="#0b0a08" d="
  M 209.71 244.55
  L 208.48 245.27
  Q 208.36 244.32 208.59 243.80
  Q 208.89 243.12 209.08 243.84
  Q 209.24 244.45 209.71 244.55
  Z"
/>
<path fill="#10a8d6" d="
  M 233.53 256.82
  C 229.28 258.29 225.60 260.76 226.36 265.46
  Q 226.44 265.91 226.74 266.26
  C 229.75 269.68 233.35 270.41 237.12 272.15
  Q 237.61 272.37 237.95 271.95
  Q 238.34 271.47 238.52 270.66
  Q 240.23 270.04 241.09 268.38
  Q 241.41 267.78 241.75 268.36
  L 242.24 269.16
  Q 242.51 269.61 242.89 269.24
  L 243.39 268.73
  A 0.45 0.44 -44.5 0 0 243.40 268.11
  Q 242.81 267.51 243.11 267.00
  Q 244.57 266.56 245.99 265.35
  A 0.50 0.50 0.0 0 1 246.79 265.56
  L 247.18 266.60
  Q 247.36 267.11 247.91 267.10
  Q 248.41 267.08 248.97 266.65
  Q 250.04 267.50 250.71 267.26
  Q 251.19 267.09 251.16 266.58
  Q 250.78 259.96 251.05 253.35
  Q 251.08 252.78 251.59 253.03
  Q 252.04 253.25 252.24 254.12
  L 252.37 263.47
  Q 251.36 267.12 253.98 269.52
  C 254.53 270.02 254.87 269.65 255.11 269.12
  Q 256.85 269.96 257.25 269.59
  Q 258.74 270.63 258.11 271.94
  A 1.66 1.65 -70.9 0 1 256.24 272.85
  L 252.28 271.92
  L 245.54 269.51
  A 1.04 1.02 37.9 0 0 244.64 269.61
  L 241.73 271.48
  Q 241.35 271.72 241.46 272.16
  Q 242.51 276.23 241.67 280.39
  L 237.70 279.03
  L 235.27 274.00
  Q 235.06 273.56 234.61 273.36
  Q 231.41 271.94 230.33 275.79
  Q 226.31 272.37 223.02 267.26
  Q 221.20 265.01 220.46 260.58
  Q 221.18 260.53 221.91 260.07
  Q 223.11 260.30 224.48 258.24
  Q 225.22 257.81 225.80 257.02
  L 231.89 251.76
  Q 232.52 251.21 231.75 251.54
  Q 229.08 252.71 226.79 254.43
  A 0.91 0.91 0.0 0 1 225.33 253.66
  L 225.57 248.94
  Q 225.59 248.38 226.15 248.26
  Q 230.70 247.30 235.32 248.08
  A 0.56 0.56 0.0 0 1 235.24 249.19
  L 229.76 249.25
  Q 229.53 249.25 229.41 249.45
  L 229.27 249.69
  Q 229.03 250.09 229.50 250.06
  Q 232.85 249.80 236.23 250.06
  Q 236.76 250.11 236.93 250.62
  L 237.19 251.40
  A 0.94 0.93 -0.5 0 0 237.82 252.01
  Q 239.60 252.53 238.96 254.60
  Q 238.81 255.11 238.35 255.37
  Q 236.49 256.43 234.54 255.71
  Q 234.07 255.53 233.78 255.94
  Q 233.55 256.28 233.53 256.82
  Z"
/>
<path fill="#0c4f82" d="
  M 220.01 251.84
  C 216.99 250.62 222.07 248.90 222.84 248.94
  A 0.16 0.16 0.0 0 1 222.85 249.25
  Q 220.78 249.48 220.67 251.42
  Q 220.64 252.10 220.01 251.84
  Z"
/>
<path fill="#108bb8" d="
  M 238.85 250.94
  L 257.51 251.15
  Q 257.36 252.03 256.49 252.53
  Q 256.15 252.73 256.14 253.11
  L 256.03 258.31
  Q 256.03 258.68 256.18 259.01
  L 257.28 261.34
  Q 257.48 261.78 257.96 261.75
  Q 259.81 261.64 261.26 262.37
  Q 261.30 266.70 257.25 269.59
  Q 256.85 269.96 255.11 269.12
  L 252.37 263.47
  L 252.24 254.12
  C 254.90 250.46 253.97 257.44 253.88 258.30
  C 252.17 257.82 252.01 263.58 254.81 263.22
  L 255.21 265.96
  A 0.32 0.32 0.0 0 0 255.77 266.12
  Q 255.90 265.97 256.00 265.85
  Q 256.25 265.56 256.15 265.20
  Q 254.52 259.01 255.15 252.63
  Q 255.20 252.06 254.64 252.07
  L 243.50 252.32
  Q 242.86 252.34 242.96 252.97
  Q 243.41 255.77 243.02 258.55
  A 0.56 0.56 0.0 0 1 241.90 258.46
  L 241.98 252.73
  Q 241.98 252.30 241.56 252.26
  Q 241.44 252.25 241.30 252.32
  A 0.63 0.63 0.0 0 0 240.98 253.03
  Q 241.21 253.93 240.71 254.71
  A 0.55 0.55 0.0 0 1 239.75 254.16
  Q 240.25 253.19 238.85 250.94
  Z"
/>
<path fill="#0c4f82" d="
  M 213.97 263.21
  A 0.99 0.99 0.0 0 1 212.92 262.64
  Q 209.40 255.01 216.93 251.67
  Q 217.46 251.44 217.65 251.98
  C 218.84 255.31 218.99 262.47 213.97 263.21
  Z"
/>
<path fill="#108bb8" d="
  M 249.93 263.69
  Q 249.13 263.32 247.92 264.29
  A 0.97 0.97 0.0 0 0 247.98 265.85
  Q 248.31 266.07 249.00 266.03
  L 248.97 266.65
  Q 248.41 267.08 247.91 267.10
  Q 247.36 267.11 247.18 266.60
  L 246.79 265.56
  A 0.50 0.50 0.0 0 0 245.99 265.35
  Q 244.57 266.56 243.11 267.00
  Q 242.49 264.30 243.23 261.85
  C 244.07 259.08 244.12 257.92 243.95 255.33
  A 0.56 0.56 0.0 0 1 244.99 255.01
  L 245.19 255.34
  Q 245.45 255.79 245.98 255.75
  Q 247.13 255.67 248.00 256.36
  Q 248.68 256.90 248.72 256.03
  L 248.82 253.70
  A 0.58 0.58 0.0 0 1 249.98 253.73
  L 249.93 263.69
  Z"
/>
<path fill="#0c4f82" d="
  M 224.18 257.44
  L 224.06 258.00
  Q 224.01 258.19 224.21 258.24
  Q 224.35 258.28 224.48 258.24
  Q 223.11 260.30 221.91 260.07
  L 224.18 257.44
  Z"
/>
<path fill="#10a8d6" d="
  M 253.88 258.30
  L 254.81 263.22
  C 252.01 263.58 252.17 257.82 253.88 258.30
  Z"
/>
<path fill="#0c4f82" d="
  M 220.46 260.58
  Q 221.20 265.01 223.02 267.26
  L 221.47 268.92
  Q 218.63 271.49 221.28 272.81
  Q 224.15 273.25 224.32 276.47
  Q 224.34 277.19 223.67 277.87
  Q 223.74 275.34 221.70 274.24
  Q 221.27 274.01 221.08 274.46
  Q 220.39 276.19 221.32 277.33
  Q 220.55 281.80 221.30 286.03
  Q 220.31 287.07 221.01 288.26
  A 1.19 1.19 0.0 0 0 222.87 288.50
  Q 223.30 288.07 223.30 287.48
  Q 223.83 287.56 224.30 287.96
  Q 223.62 288.10 223.86 288.99
  Q 224.02 289.56 223.42 289.52
  L 220.61 289.31
  Q 219.89 289.26 219.99 288.54
  Q 220.33 286.01 219.67 284.26
  Q 220.20 283.57 219.84 282.33
  Q 219.69 281.84 219.85 281.35
  C 221.44 276.36 218.41 275.29 217.12 271.73
  Q 214.76 265.20 220.46 260.58
  Z"
/>
<path fill="#10a8d6" d="
  M 249.93 263.69
  Q 250.28 265.23 249.00 266.03
  Q 248.31 266.07 247.98 265.85
  A 0.97 0.97 0.0 0 1 247.92 264.29
  Q 249.13 263.32 249.93 263.69
  Z"
/>
<path fill="#0c4f82" d="
  M 252.37 263.47
  L 255.11 269.12
  C 254.87 269.65 254.53 270.02 253.98 269.52
  Q 251.36 267.12 252.37 263.47
  Z"
/>
<ellipse fill="#0b0a08" cx="0.00" cy="0.00" transform="translate(209.34,267.44) rotate(109.2)" rx="1.93" ry="0.30"/>
<path fill="#108bb8" d="
  M 223.02 267.26
  Q 226.31 272.37 230.33 275.79
  Q 230.17 276.17 230.28 277.20
  Q 230.37 277.99 230.88 277.39
  L 231.53 276.62
  Q 234.71 277.57 235.04 282.88
  Q 235.07 283.40 234.54 283.42
  Q 232.92 283.49 232.35 284.37
  Q 227.11 282.58 227.88 284.69
  Q 226.70 286.23 227.39 287.74
  A 0.88 0.88 0.0 0 0 229.06 287.48
  Q 229.17 286.54 229.92 286.02
  A 0.49 0.49 0.0 0 1 230.66 286.56
  Q 230.12 288.49 228.40 289.95
  Q 225.83 289.56 224.30 287.96
  Q 223.83 287.56 223.30 287.48
  Q 222.63 286.64 221.30 286.03
  Q 220.55 281.80 221.32 277.33
  Q 222.68 278.35 223.67 277.87
  Q 225.60 279.96 228.86 278.84
  Q 229.41 278.65 229.00 278.23
  Q 227.43 276.61 224.32 276.47
  Q 224.15 273.25 221.28 272.81
  L 221.47 268.92
  L 223.02 267.26
  Z"
/>
<path fill="#0c4f82" d="
  M 252.28 271.92
  C 249.45 272.30 246.04 270.30 243.94 272.24
  A 0.71 0.71 0.0 0 0 244.61 273.45
  Q 249.85 272.05 252.18 276.28
  Q 252.75 278.24 251.44 280.09
  Q 251.13 280.53 251.36 281.02
  Q 251.84 282.04 253.53 282.28
  L 253.82 283.04
  Q 253.68 285.78 252.17 288.31
  Q 251.74 289.04 252.52 288.72
  C 254.08 288.08 255.14 283.95 255.38 282.76
  Q 255.05 282.84 255.34 282.06
  Q 257.86 278.73 258.85 274.08
  L 262.76 272.64
  L 268.34 286.43
  Q 268.13 287.01 267.69 286.62
  L 264.76 279.83
  Q 264.55 279.34 264.09 279.07
  Q 263.41 278.66 263.60 277.88
  Q 263.72 277.38 263.52 276.90
  L 262.52 274.48
  A 1.47 1.47 0.0 0 0 259.79 274.53
  L 257.86 279.70
  A 0.49 0.49 0.0 0 0 258.56 280.30
  Q 259.91 279.56 260.59 278.10
  A 1.10 1.10 0.0 0 1 262.68 278.68
  Q 262.50 280.22 263.13 281.68
  A 1.45 1.44 69.9 0 1 262.23 283.63
  Q 259.26 284.52 258.95 281.89
  A 0.93 0.93 0.0 0 0 257.17 281.63
  L 254.90 286.94
  A 0.79 0.79 0.0 0 0 256.28 287.69
  C 257.82 285.42 264.25 282.86 264.93 287.23
  Q 265.01 287.76 265.54 287.78
  L 266.01 287.80
  Q 265.51 288.31 266.12 289.05
  Q 266.43 289.42 265.96 289.31
  Q 265.30 289.16 264.70 288.53
  Q 263.96 285.42 260.10 286.73
  C 258.22 287.37 258.02 288.96 256.44 289.37
  Q 248.61 291.39 240.27 288.84
  Q 239.32 288.64 239.20 285.94
  L 234.61 274.96
  A 1.74 1.74 0.0 0 0 231.57 274.65
  Q 230.80 275.76 231.53 276.62
  L 230.88 277.39
  Q 230.37 277.99 230.28 277.20
  Q 230.17 276.17 230.33 275.79
  Q 231.41 271.94 234.61 273.36
  Q 235.06 273.56 235.27 274.00
  L 237.70 279.03
  L 237.92 280.47
  L 240.62 287.43
  A 0.56 0.56 0.0 0 0 241.69 287.37
  Q 242.53 284.22 241.63 281.34
  Q 241.26 280.20 241.67 280.39
  Q 242.51 276.23 241.46 272.16
  Q 241.35 271.72 241.73 271.48
  L 244.64 269.61
  A 1.04 1.02 37.9 0 1 245.54 269.51
  L 252.28 271.92
  Z
  M 243.57 274.41
  Q 242.60 276.51 243.12 280.32
  A 0.72 0.72 0.0 0 0 243.66 280.93
  L 248.65 282.25
  A 2.06 2.05 -67.6 0 1 249.90 285.27
  Q 248.78 287.19 246.36 286.88
  A 1.52 1.51 -81.7 0 1 245.07 285.13
  Q 245.27 283.95 245.08 282.80
  A 1.05 1.05 0.0 0 0 243.00 282.98
  L 243.00 287.27
  Q 243.00 287.88 243.59 288.04
  C 246.20 288.70 250.95 289.26 252.10 286.16
  Q 252.92 283.93 250.44 281.00
  A 0.90 0.90 0.0 0 1 250.47 279.80
  Q 252.03 278.17 251.08 276.15
  Q 249.54 272.83 243.57 274.41
  Z
  M 260.31 281.71
  Q 260.07 282.68 261.06 282.74
  Q 261.29 282.75 261.58 282.83
  A 1.51 1.03 51.7 0 0 261.40 280.25
  Q 260.73 280.02 260.31 281.71
  Z
  M 246.06 283.57
  L 245.95 285.25
  A 0.65 0.65 0.0 0 0 246.55 285.94
  L 246.71 285.95
  A 2.43 1.34 3.9 0 0 249.23 284.78
  L 249.25 284.48
  A 2.43 1.34 3.9 0 0 246.91 282.98
  L 246.75 282.97
  A 0.65 0.65 0.0 0 0 246.06 283.57
  Z"
/>
<path fill="#0c4f82" d="
  M 291.38 269.41
  Q 292.05 270.53 291.67 271.56
  Q 291.39 272.33 291.31 271.51
  L 291.12 269.58
  Q 290.79 269.79 291.38 269.41
  Z"
/>
<path fill="#0c4f82" d="
  M 212.97 273.64
  L 212.99 274.19
  L 206.46 274.22
  L 206.49 273.50
  L 212.97 273.64
  Z"
/>
<path fill="#10a8d6" d="
  M 267.69 286.62
  L 266.01 287.80
  L 265.54 287.78
  Q 265.01 287.76 264.93 287.23
  C 264.25 282.86 257.82 285.42 256.28 287.69
  A 0.79 0.79 0.0 0 1 254.90 286.94
  L 257.17 281.63
  A 0.93 0.93 0.0 0 1 258.95 281.89
  Q 259.26 284.52 262.23 283.63
  A 1.45 1.44 69.9 0 0 263.13 281.68
  Q 262.50 280.22 262.68 278.68
  A 1.10 1.10 0.0 0 0 260.59 278.10
  Q 259.91 279.56 258.56 280.30
  A 0.49 0.49 0.0 0 1 257.86 279.70
  L 259.79 274.53
  A 1.47 1.47 0.0 0 1 262.52 274.48
  L 263.52 276.90
  Q 263.72 277.38 263.60 277.88
  Q 263.41 278.66 264.09 279.07
  Q 264.55 279.34 264.76 279.83
  L 267.69 286.62
  Z"
/>
<path fill="#10a8d6" d="
  M 239.20 285.94
  Q 238.17 287.16 234.49 285.00
  Q 233.49 285.01 232.35 284.37
  Q 232.92 283.49 234.54 283.42
  Q 235.07 283.40 235.04 282.88
  Q 234.71 277.57 231.53 276.62
  Q 230.80 275.76 231.57 274.65
  A 1.74 1.74 0.0 0 1 234.61 274.96
  L 239.20 285.94
  Z"
/>
<path fill="#10a8d6" d="
  M 258.85 274.08
  Q 257.86 278.73 255.34 282.06
  Q 254.43 281.97 253.53 282.28
  Q 251.84 282.04 251.36 281.02
  Q 251.13 280.53 251.44 280.09
  Q 252.75 278.24 252.18 276.28
  L 258.85 274.08
  Z"
/>
<path fill="#10a8d6" d="
  M 243.57 274.41
  Q 245.58 275.00 246.24 275.63
  Q 244.02 276.83 245.42 279.90
  Q 245.63 280.38 246.16 280.30
  Q 250.42 279.68 248.01 276.22
  L 251.08 276.15
  Q 252.03 278.17 250.47 279.80
  A 0.90 0.90 0.0 0 0 250.44 281.00
  Q 252.92 283.93 252.10 286.16
  C 250.95 289.26 246.20 288.70 243.59 288.04
  Q 243.00 287.88 243.00 287.27
  L 243.00 282.98
  A 1.05 1.05 0.0 0 1 245.08 282.80
  Q 245.27 283.95 245.07 285.13
  A 1.52 1.51 -81.7 0 0 246.36 286.88
  Q 248.78 287.19 249.90 285.27
  A 2.06 2.05 -67.6 0 0 248.65 282.25
  L 243.66 280.93
  A 0.72 0.72 0.0 0 1 243.12 280.32
  Q 242.60 276.51 243.57 274.41
  Z"
/>
<path fill="#0c4f82" d="
  M 297.27 274.75
  Q 297.23 275.38 297.68 275.69
  Q 296.34 277.10 295.86 278.78
  Q 295.50 280.01 295.58 278.73
  Q 295.69 276.67 297.27 274.75
  Z"
/>
<path fill="#0c4f82" d="
  M 246.24 275.63
  L 248.01 276.22
  Q 250.42 279.68 246.16 280.30
  Q 245.63 280.38 245.42 279.90
  Q 244.02 276.83 246.24 275.63
  Z
  M 246.7181 279.2112
  A 1.27 0.97 107.5 0 0 248.0251 278.2917
  A 1.27 0.97 107.5 0 0 247.4819 276.7888
  A 1.27 0.97 107.5 0 0 246.1749 277.7083
  A 1.27 0.97 107.5 0 0 246.7181 279.2112
  Z"
/>
<path fill="#0c4f82" d="
  M 284.54 275.55
  C 285.95 277.50 285.16 284.76 285.08 287.40
  Q 285.06 288.00 285.60 288.28
  Q 285.81 288.39 285.97 288.61
  Q 286.48 289.33 285.60 289.42
  L 284.99 289.48
  Q 284.47 289.54 284.47 289.01
  L 284.37 275.70
  Q 283.58 275.73 284.54 275.55
  Z"
/>
<path fill="#0c4f82" d="
  M 278.51 279.62
  Q 284.75 281.90 282.34 287.21
  Q 282.25 286.65 281.72 286.72
  C 283.94 283.00 280.35 280.07 276.77 280.37
  Q 274.66 280.02 273.30 278.28
  Q 272.96 277.85 273.24 277.39
  Q 274.67 274.99 277.63 275.88
  Q 278.56 276.16 277.72 276.65
  Q 276.73 277.22 275.47 276.95
  A 0.79 0.79 0.0 0 0 274.89 278.40
  Q 276.92 279.66 278.51 279.62
  Z"
/>
<path fill="#0c4f82" d="
  M 209.76 286.26
  L 208.59 284.97
  L 208.91 277.52
  Q 208.93 277.03 209.37 276.80
  Q 211.16 275.90 212.70 277.30
  Q 213.23 277.79 212.53 277.63
  L 210.44 277.16
  A 0.55 0.54 6.0 0 0 209.78 277.69
  L 209.76 286.26
  Z"
/>
<ellipse fill="#10a8d6" cx="0.00" cy="0.00" transform="translate(247.10,278.00) rotate(107.5)" rx="1.27" ry="0.97"/>
<path fill="#108bb8" d="
  M 237.70 279.03
  L 241.67 280.39
  Q 241.26 280.20 241.63 281.34
  L 237.92 280.47
  L 237.70 279.03
  Z"
/>
<path fill="#10a8d6" d="
  M 260.31 281.71
  Q 260.73 280.02 261.40 280.25
  A 1.51 1.03 51.7 0 1 261.58 282.83
  Q 261.29 282.75 261.06 282.74
  Q 260.07 282.68 260.31 281.71
  Z"
/>
<path fill="#10a8d6" d="
  M 237.92 280.47
  L 241.63 281.34
  Q 242.53 284.22 241.69 287.37
  A 0.56 0.56 0.0 0 1 240.62 287.43
  L 237.92 280.47
  Z"
/>
<path fill="#0c4f82" d="
  M 214.50 281.58
  A 0.26 0.26 0.0 0 1 215.01 281.63
  Q 214.77 285.74 210.74 285.96
  A 0.25 0.21 -46.3 0 1 210.77 285.50
  Q 214.02 284.95 214.50 281.58
  Z"
/>
<path fill="#0b0a08" d="
  M 203.19 282.23
  Q 206.21 282.00 203.49 283.25
  Q 203.05 283.45 202.96 282.98
  L 202.89 282.63
  Q 202.81 282.26 203.19 282.23
  Z"
/>
<path fill="#108bb8" d="
  M 255.34 282.06
  Q 255.05 282.84 255.38 282.76
  L 253.82 283.04
  L 253.53 282.28
  Q 254.43 281.97 255.34 282.06
  Z"
/>
<path fill="#0c4f82" d="
  M 275.50 282.29
  L 278.34 283.23
  A 1.63 1.63 0.0 0 1 278.82 286.08
  Q 276.63 287.74 274.25 286.03
  A 0.10 0.10 0.0 0 1 274.32 285.85
  Q 277.67 286.52 278.67 285.33
  A 0.78 0.77 -49.0 0 0 278.60 284.25
  Q 277.19 282.98 274.86 282.70
  Q 275.53 282.43 275.50 282.29
  Z"
/>
<path fill="#10a8d6" d="
  M 255.38 282.76
  C 255.14 283.95 254.08 288.08 252.52 288.72
  Q 251.74 289.04 252.17 288.31
  Q 253.68 285.78 253.82 283.04
  L 255.38 282.76
  Z"
/>
<path fill="#0c4f82" d="
  M 217.81 282.95
  Q 218.46 283.14 218.64 283.58
  Q 216.30 288.34 211.84 289.28
  L 211.46 288.75
  Q 216.58 287.68 217.81 282.95
  Z"
/>
<path fill="#10a8d6" d="
  M 246.06 283.57
  A 0.65 0.65 0.0 0 1 246.75 282.97
  L 246.91 282.98
  A 2.43 1.34 3.9 0 1 249.25 284.48
  L 249.23 284.78
  A 2.43 1.34 3.9 0 1 246.71 285.95
  L 246.55 285.94
  A 0.65 0.65 0.0 0 1 245.95 285.25
  L 246.06 283.57
  Z"
/>
<path fill="#0b0a08" d="
  M 202.09 283.72
  L 202.80 285.45
  C 200.95 285.67 193.58 295.84 191.86 297.90
  Q 191.64 298.15 191.51 297.84
  C 191.34 297.42 200.58 286.40 201.59 285.20
  Q 201.89 284.83 201.98 284.36
  L 202.09 283.72
  Z"
/>
<path fill="#10a8d6" d="
  M 227.88 284.69
  L 234.03 286.31
  C 236.08 286.69 238.09 292.18 240.27 288.84
  Q 248.61 291.39 256.44 289.37
  C 258.02 288.96 258.22 287.37 260.10 286.73
  Q 263.96 285.42 264.70 288.53
  L 248.82 296.54
  L 246.24 295.99
  L 228.40 289.95
  Q 230.12 288.49 230.66 286.56
  A 0.49 0.49 0.0 0 0 229.92 286.02
  Q 229.17 286.54 229.06 287.48
  A 0.88 0.88 0.0 0 1 227.39 287.74
  Q 226.70 286.23 227.88 284.69
  Z"
/>
<path fill="#108bb8" d="
  M 234.49 285.00
  Q 238.17 287.16 239.20 285.94
  Q 239.32 288.64 240.27 288.84
  C 238.09 292.18 236.08 286.69 234.03 286.31
  C 234.88 286.24 234.74 285.73 234.49 285.00
  Z"
/>
<path fill="#0c4f82" d="
  M 269.23 287.27
  Q 268.79 288.53 267.92 289.21
  Q 267.66 287.01 269.23 287.27
  Z"
/>
<path fill="#0c4f82" d="
  M 272.16 287.48
  C 272.67 289.24 276.06 288.92 277.53 289.09
  Q 278.33 289.18 277.55 289.39
  Q 274.61 290.18 271.73 288.41
  L 272.16 287.48
  Z"
/>
<rect fill="#0c4f82" x="-3.35" y="-0.41" transform="translate(257.77,294.30) rotate(-10.8)" width="6.70" height="0.82" rx="0.27"/>
<ellipse fill="#0c4f82" cx="0.00" cy="0.00" transform="translate(293.34,297.02) rotate(50.9)" rx="1.85" ry="0.30"/>
<path fill="#0b0a08" d="
  M 183.21 300.73
  C 181.33 301.45 176.77 308.25 175.14 310.17
  A 0.36 0.35 -60.8 0 1 174.78 310.28
  Q 174.64 310.25 174.58 310.12
  A 0.09 0.08 -34.0 0 1 174.60 310.03
  C 176.13 308.10 181.72 299.87 183.94 300.14
  Q 187.77 300.60 191.01 298.70
  Q 191.49 298.41 191.50 298.97
  Q 191.50 299.12 191.50 299.28
  A 0.45 0.44 82.0 0 1 191.17 299.73
  Q 188.36 300.52 185.45 300.86
  Q 185.09 300.90 184.87 301.19
  L 178.80 308.99
  A 1.44 1.44 0.0 0 0 178.49 309.99
  Q 178.50 310.14 178.50 310.31
  A 0.50 0.50 0.0 0 1 177.89 310.82
  Q 177.40 310.70 177.51 310.25
  Q 177.71 309.40 177.79 309.30
  L 183.86 301.62
  A 0.57 0.57 0.0 0 0 183.21 300.73
  Z"
/>
<path fill="#0b0a08" d="
  M 193.24 298.87
  C 193.87 298.05 195.16 298.67 194.96 299.60
  A 0.65 0.63 81.3 0 1 194.67 300.01
  Q 193.39 300.77 192.68 299.44
  Q 192.54 299.17 192.82 299.07
  Q 192.95 299.01 193.09 298.97
  Q 193.18 298.94 193.24 298.87
  Z"
/>
<path fill="#0c4f82" d="
  M 262.11 301.01
  L 259.20 302.49
  Q 259.43 301.89 258.75 302.03
  Q 260.31 301.01 262.11 301.01
  Z"
/>
<path fill="#0b0a08" d="
  M 301.38 307.10
  C 301.29 305.66 298.16 303.12 297.19 301.40
  A 0.12 0.12 0.0 0 1 297.38 301.25
  Q 299.96 303.90 302.12 306.88
  Q 302.41 307.28 302.90 307.24
  Q 303.47 307.19 303.94 307.44
  Q 304.53 307.75 303.86 307.75
  L 302.06 307.75
  Q 301.41 307.75 301.38 307.10
  Z"
/>
<path fill="#0c4f82" d="
  M 266.33 310.29
  Q 265.30 309.98 265.26 310.96
  C 264.49 310.25 258.58 305.10 258.76 304.73
  Q 258.89 304.45 259.13 304.64
  L 266.33 310.29
  Z"
/>
<ellipse fill="#0b0a08" cx="0.00" cy="0.00" transform="translate(299.19,307.43) rotate(16.2)" rx="1.02" ry="0.73"/>
<path fill="#0c4f82" d="
  M 225.42 306.97
  Q 227.73 307.70 228.60 309.43
  Q 228.97 310.18 228.35 309.62
  L 225.42 306.97
  Z"
/>
<path fill="#0b0a08" d="
  M 307.96 308.14
  C 309.31 309.92 311.11 311.46 312.40 313.49
  Q 313.24 314.80 312.13 313.71
  C 310.14 311.72 308.53 308.77 305.71 308.03
  Q 304.66 307.75 305.75 307.75
  L 307.16 307.75
  Q 307.65 307.75 307.96 308.14
  Z"
/>
<path fill="#0b0a08" d="
  M 311.50 309.74
  L 309.81 308.69
  Q 309.32 308.38 309.89 308.28
  Q 310.86 308.11 311.50 309.74
  Z"
/>
<path fill="#0b0a08" d="
  M 311.50 309.74
  L 320.27 319.35
  Q 320.50 319.61 320.50 319.95
  Q 320.50 320.13 320.50 320.30
  Q 320.50 320.42 320.43 320.33
  L 311.50 309.74
  Z"
/>
<path fill="#0b0a08" d="
  M 171.82 315.49
  A 0.59 0.59 0.0 0 0 172.93 315.75
  Q 174.30 313.19 176.43 311.20
  A 0.19 0.19 0.0 0 1 176.71 311.44
  C 174.92 314.06 171.75 316.68 170.91 319.69
  C 170.67 320.55 171.00 322.13 169.96 322.76
  A 0.31 0.31 0.0 0 1 169.51 322.40
  L 171.30 316.91
  A 2.49 2.43 51.7 0 0 171.41 315.86
  Q 171.16 313.93 172.53 312.66
  A 0.23 0.21 -3.6 0 1 172.88 312.94
  Q 171.76 314.23 171.82 315.49
  Z"
/>
<path fill="#0b0a08" d="
  M 177.06 316.02
  Q 177.36 313.74 177.48 312.69
  A 0.24 0.24 0.0 0 1 177.96 312.67
  C 178.30 314.51 177.10 315.70 177.90 317.60
  A 0.94 0.88 -71.5 0 1 176.30 318.46
  Q 175.76 317.39 176.66 316.71
  A 1.06 1.04 75.7 0 0 177.06 316.02
  Z"
/>
<path fill="#0c4f82" d="
  M 240.88 312.79
  Q 241.79 312.76 242.41 313.14
  Q 242.77 313.36 242.37 313.46
  Q 241.46 313.70 240.78 313.06
  Q 240.51 312.80 240.88 312.79
  Z"
/>
<path fill="#0b0a08" d="
  M 316.46 318.08
  Q 317.02 318.41 317.26 319.03
  A 0.25 0.23 -72.4 0 1 316.84 319.26
  Q 316.06 317.95 314.83 317.77
  A 0.67 0.67 0.0 0 1 314.35 317.44
  L 312.89 314.83
  Q 312.22 313.64 313.22 314.56
  Q 314.63 315.84 315.74 317.42
  Q 316.02 317.83 316.46 318.08
  Z"
/>
<path fill="#0b0a08" d="
  M 315.17 324.23
  Q 314.68 322.07 314.58 319.82
  Q 314.55 319.18 314.77 319.78
  L 316.16 323.55
  Q 316.27 323.85 316.05 324.08
  L 315.73 324.39
  A 0.33 0.33 0.0 0 1 315.17 324.23
  Z"
/>
<path fill="#0b0a08" d="
  M 163.83 322.33
  Q 164.21 321.70 164.89 321.48
  A 0.76 0.75 8.7 0 1 165.74 322.63
  Q 165.21 323.39 164.27 323.28
  Q 163.62 323.21 163.02 323.45
  L 156.49 326.07
  A 1.64 1.63 -85.1 0 0 155.72 326.72
  Q 153.70 329.89 151.03 332.48
  A 0.16 0.16 0.0 0 1 150.80 332.27
  Q 152.78 329.66 154.88 327.16
  C 156.97 324.68 160.19 324.09 163.09 322.95
  Q 163.57 322.77 163.83 322.33
  Z"
/>
<path fill="#0b0a08" d="
  M 320.31 321.41
  A 0.16 0.16 0.0 0 1 320.51 321.51
  L 322.17 326.79
  A 1.49 0.33 72.5 0 1 322.31 328.31
  L 322.19 328.34
  A 1.49 0.33 72.5 0 1 321.43 327.02
  L 319.77 321.75
  A 0.16 0.16 0.0 0 1 319.87 321.55
  L 320.31 321.41
  Z"
/>
<path fill="#0b0a08" d="
  M 168.27 323.12
  Q 168.34 322.97 168.59 322.99
  A 0.30 0.30 0.0 0 1 168.80 323.48
  L 164.46 328.82
  Q 164.28 329.03 164.03 329.15
  L 155.04 333.28
  Q 154.78 333.39 154.60 333.18
  Q 154.51 333.07 154.49 332.94
  Q 154.44 332.64 154.72 332.53
  Q 159.08 330.81 163.39 328.97
  A 1.97 1.93 6.9 0 0 164.17 328.37
  L 168.18 323.30
  Q 168.21 323.26 168.27 323.12
  Z"
/>
<path fill="#0b0a08" d="
  M 154.83 344.85
  C 159.81 340.93 164.06 333.93 168.27 329.02
  Q 168.85 328.34 169.41 326.65
  Q 169.55 326.23 169.50 325.79
  Q 169.38 324.66 170.17 323.94
  Q 170.31 323.81 170.30 324.00
  Q 170.07 327.65 168.76 329.25
  Q 162.87 336.45 157.05 343.69
  C 156.45 344.43 156.50 345.08 156.18 345.89
  A 0.65 0.65 0.0 0 1 155.21 346.19
  Q 154.09 345.43 154.83 344.85
  Z"
/>
<path fill="#0b0a08" d="
  M 326.62 326.35
  C 331.66 329.24 337.07 329.11 339.76 335.41
  A 0.16 0.16 0.0 0 1 339.48 335.56
  Q 335.10 328.30 326.42 327.86
  Q 325.97 327.84 325.99 327.39
  L 326.03 326.67
  Q 326.06 326.03 326.62 326.35
  Z"
/>
<path fill="#0b0a08" d="
  M 329.14 333.30
  C 330.92 334.09 337.03 335.47 337.08 337.60
  Q 337.10 338.42 336.59 337.77
  L 335.71 336.60
  Q 335.43 336.24 335.01 336.08
  Q 332.11 334.95 329.21 333.87
  C 326.88 333.01 325.21 330.62 323.61 328.83
  A 0.17 0.17 0.0 0 1 323.85 328.58
  C 325.63 330.15 327.01 332.35 329.14 333.30
  Z"
/>
<path fill="#0b0a08" d="
  M 329.17 341.07
  A 0.17 0.17 0.0 0 1 328.93 341.03
  L 323.23 332.63
  A 3.08 0.46 55.8 0 1 321.88 329.82
  L 321.89 329.81
  A 3.08 0.46 55.8 0 1 324.00 332.10
  L 329.71 340.50
  A 0.17 0.17 0.0 0 1 329.66 340.73
  L 329.17 341.07
  Z"
/>
<path fill="#0b0a08" d="
  M 130.71 357.12
  L 149.32 334.12
  Q 149.73 333.61 150.33 333.86
  Q 151.69 334.42 152.82 333.06
  A 0.40 0.39 41.3 0 1 153.41 333.03
  L 153.67 333.29
  A 0.20 0.20 0.0 0 1 153.58 333.62
  C 151.21 334.29 149.34 334.82 147.71 336.85
  Q 140.12 346.31 132.40 355.92
  A 0.98 0.98 0.0 0 0 133.16 357.51
  L 181.25 357.50
  A 1.75 1.75 0.0 0 1 183.00 359.25
  L 183.00 429.75
  A 2.25 2.25 0.0 0 1 180.75 432.00
  L 138.38 432.00
  Q 137.75 432.00 137.75 432.62
  L 137.75 439.52
  Q 137.75 440.31 138.53 440.26
  C 142.28 440.04 147.11 439.55 148.56 444.20
  A 0.62 0.61 81.2 0 1 147.98 445.00
  L 111.53 445.00
  A 0.54 0.54 0.0 0 1 111.02 444.29
  C 112.62 439.42 117.50 440.24 121.48 440.21
  Q 122.00 440.21 122.00 439.69
  L 122.00 432.62
  Q 122.00 432.00 121.37 432.00
  L 79.00 432.00
  A 2.25 2.25 0.0 0 1 76.75 429.75
  L 76.75 359.25
  A 1.75 1.75 0.0 0 1 78.50 357.50
  L 129.91 357.50
  Q 130.40 357.50 130.71 357.12
  Z
  M 180.75 360.86
  A 1.37 1.37 0.0 0 0 179.38 359.49
  L 80.12 359.49
  A 1.37 1.37 0.0 0 0 78.75 360.86
  L 78.75 423.38
  A 1.37 1.37 0.0 0 0 80.12 424.75
  L 179.38 424.75
  A 1.37 1.37 0.0 0 0 180.75 423.38
  L 180.75 360.86
  Z"
/>
<path fill="#0b0a08" d="
  M 154.26 334.33
  Q 154.33 334.17 154.46 334.13
  A 0.26 0.26 0.0 0 1 154.74 334.54
  Q 148.13 342.64 141.96 350.45
  Q 141.43 351.11 141.06 352.48
  Q 140.89 353.13 140.32 352.76
  L 139.65 352.31
  A 0.57 0.57 0.0 0 1 139.68 351.34
  L 140.89 350.65
  Q 141.32 350.40 141.62 350.01
  Q 147.75 342.18 154.13 334.54
  Q 154.21 334.45 154.26 334.33
  Z"
/>
<path fill="#0b0a08" d="
  M 348.50 345.31
  L 342.61 338.80
  A 2.40 2.38 -7.7 0 0 341.91 338.27
  Q 341.01 337.83 340.44 337.06
  A 0.44 0.26 15.5 0 1 341.14 336.87
  Q 345.53 340.58 348.50 345.31
  Z"
/>
<path fill="#0b0a08" d="
  M 337.80 338.51
  C 341.84 342.54 345.71 347.13 349.49 351.46
  Q 349.78 351.79 350.20 351.93
  Q 351.26 352.28 351.23 353.43
  A 0.74 0.74 0.0 0 1 349.79 353.64
  C 349.42 352.51 348.95 351.62 348.10 350.69
  Q 342.69 344.84 337.57 338.72
  A 0.16 0.16 0.0 0 1 337.80 338.51
  Z"
/>
<path fill="#0b0a08" d="
  M 335.00 345.81
  Q 336.04 346.49 336.99 347.30
  Q 337.44 347.69 337.02 348.11
  L 336.78 348.35
  Q 336.20 348.93 335.82 348.20
  Q 334.56 345.76 332.56 343.85
  A 0.16 0.16 0.0 0 1 332.75 343.60
  Q 333.79 344.15 334.33 345.09
  Q 334.58 345.53 335.00 345.81
  Z"
/>
<path fill="#0b0a08" d="
  M 348.50 345.31
  C 348.92 345.12 358.57 355.96 359.71 357.16
  Q 360.04 357.50 360.51 357.50
  L 441.75 357.50
  A 2.25 2.25 0.0 0 1 444.00 359.75
  L 444.00 429.25
  A 2.75 2.75 0.0 0 1 441.25 432.00
  L 399.13 432.00
  Q 398.50 432.00 398.50 432.63
  L 398.50 439.69
  Q 398.50 440.24 399.05 440.24
  C 403.03 440.29 407.37 439.31 409.27 443.88
  A 0.81 0.80 78.6 0 1 408.53 445.00
  L 372.28 445.00
  A 0.56 0.56 0.0 0 1 371.76 444.24
  C 373.67 439.28 377.84 440.48 382.15 440.18
  Q 382.75 440.13 382.75 439.53
  L 382.75 432.62
  Q 382.75 432.00 382.12 432.00
  L 340.00 432.00
  A 2.75 2.75 0.0 0 1 337.25 429.25
  L 337.25 359.75
  A 2.25 2.25 0.0 0 1 339.50 357.50
  L 357.18 357.50
  A 0.89 0.89 0.0 0 0 357.85 356.02
  L 348.50 345.31
  Z
  M 441.50 360.64
  A 1.14 1.14 0.0 0 0 440.36 359.50
  L 340.64 359.50
  A 1.14 1.14 0.0 0 0 339.50 360.64
  L 339.50 423.60
  A 1.14 1.14 0.0 0 0 340.64 424.74
  L 440.36 424.74
  A 1.14 1.14 0.0 0 0 441.50 423.60
  L 441.50 360.64
  Z"
/>
</svg>
