<svg xmlns="http://www.w3.org/2000/svg" xmlns:xlink="http://www.w3.org/1999/xlink" width="500" zoomAndPan="magnify" viewBox="0 0 375 374.999991" height="500" preserveAspectRatio="xMidYMid meet" version="1.0"><defs><clipPath id="cc65b57e1b"><path d="M 103 157.03125 L 133 157.03125 L 133 181 L 103 181 Z M 103 157.03125 " clip-rule="nonzero"/></clipPath><clipPath id="8d43c30515"><path d="M 89.378906 157.03125 L 122 157.03125 L 122 194.53125 L 89.378906 194.53125 Z M 89.378906 157.03125 " clip-rule="nonzero"/></clipPath><clipPath id="af9a773dfe"><path d="M 101 164 L 133 164 L 133 194.53125 L 101 194.53125 Z M 101 164 " clip-rule="nonzero"/></clipPath><clipPath id="0ea75b3fb6"><path d="M 92 157.03125 L 130 157.03125 L 130 194.53125 L 92 194.53125 Z M 92 157.03125 " clip-rule="nonzero"/></clipPath><clipPath id="4408125046"><path d="M 115.265625 172.339844 L 116.863281 172.339844 L 116.863281 173.875 L 115.265625 173.875 Z M 115.265625 172.339844 " clip-rule="nonzero"/></clipPath><clipPath id="471afb4fda"><path d="M 116.851562 172.875 C 116.175781 173.851562 115.574219 173.699219 115.425781 173.476562 C 115.273438 173.25 115.425781 172.648438 115.648438 172.5 C 115.875 172.351562 116.625 172.574219 116.625 172.574219 " clip-rule="nonzero"/></clipPath><clipPath id="0b24c3c509"><path d="M 115.71875 172.042969 L 117.3125 172.042969 L 117.3125 173.578125 L 115.71875 173.578125 Z M 115.71875 172.042969 " clip-rule="nonzero"/></clipPath><clipPath id="553fd69a4e"><path d="M 117.300781 172.574219 C 116.625 173.550781 116.023438 173.398438 115.875 173.175781 C 115.726562 172.949219 115.875 172.351562 116.101562 172.199219 C 116.324219 172.050781 117.074219 172.273438 117.074219 172.273438 " clip-rule="nonzero"/></clipPath><clipPath id="1f76145df9"><path d="M 115.867188 171.441406 L 117.460938 171.441406 L 117.460938 172.976562 L 115.867188 172.976562 Z M 115.867188 171.441406 " clip-rule="nonzero"/></clipPath><clipPath id="3b75ecf894"><path d="M 117.449219 171.976562 C 116.773438 172.949219 116.175781 172.800781 116.023438 172.574219 C 115.875 172.351562 116.023438 171.75 116.25 171.601562 C 116.476562 171.449219 117.226562 171.675781 117.226562 171.675781 " clip-rule="nonzero"/></clipPath><clipPath id="6887ac28e1"><path d="M 116.617188 171 L 118.210938 171 L 118.210938 172.527344 L 116.617188 172.527344 Z M 116.617188 171 " clip-rule="nonzero"/></clipPath><clipPath id="0d8da11fe5"><path d="M 118.199219 171.523438 C 117.523438 172.5 116.925781 172.351562 116.773438 172.125 C 116.625 171.898438 116.773438 171.300781 117 171.148438 C 117.226562 171 117.976562 171.226562 117.976562 171.226562 " clip-rule="nonzero"/></clipPath><clipPath id="5d2d348b47"><path d="M 116.316406 171 L 117.914062 171 L 117.914062 172.527344 L 116.316406 172.527344 Z M 116.316406 171 " clip-rule="nonzero"/></clipPath><clipPath id="0a71ffc278"><path d="M 117.898438 171.523438 C 117.226562 172.5 116.625 172.351562 116.476562 172.125 C 116.324219 171.898438 116.476562 171.300781 116.699219 171.148438 C 116.925781 171 117.675781 171.226562 117.675781 171.226562 " clip-rule="nonzero"/></clipPath><clipPath id="ff7885a1cc"><path d="M 115.566406 172.792969 L 117.164062 172.792969 L 117.164062 174.328125 L 115.566406 174.328125 Z M 115.566406 172.792969 " clip-rule="nonzero"/></clipPath><clipPath id="41f4716327"><path d="M 117.148438 173.324219 C 116.476562 174.300781 115.875 174.148438 115.726562 173.925781 C 115.574219 173.699219 115.726562 173.101562 115.949219 172.949219 C 116.175781 172.800781 116.925781 173.023438 116.925781 173.023438 " clip-rule="nonzero"/></clipPath><clipPath id="a189250680"><path d="M 116.167969 172.339844 L 117.761719 172.339844 L 117.761719 173.875 L 116.167969 173.875 Z M 116.167969 172.339844 " clip-rule="nonzero"/></clipPath><clipPath id="14deec2d45"><path d="M 117.75 172.875 C 117.074219 173.851562 116.476562 173.699219 116.324219 173.476562 C 116.175781 173.25 116.324219 172.648438 116.550781 172.5 C 116.773438 172.351562 117.523438 172.574219 117.523438 172.574219 " clip-rule="nonzero"/></clipPath><clipPath id="37f9bfa3d2"><path d="M 115.265625 173.089844 L 116.863281 173.089844 L 116.863281 174.625 L 115.265625 174.625 Z M 115.265625 173.089844 " clip-rule="nonzero"/></clipPath><clipPath id="eb96a3a164"><path d="M 116.851562 173.625 C 116.175781 174.601562 115.574219 174.449219 115.425781 174.226562 C 115.273438 174 115.425781 173.398438 115.648438 173.25 C 115.875 173.101562 116.625 173.324219 116.625 173.324219 " clip-rule="nonzero"/></clipPath><clipPath id="983f4bad34"><path d="M 115.117188 173.089844 L 116.710938 173.089844 L 116.710938 174.625 L 115.117188 174.625 Z M 115.117188 173.089844 " clip-rule="nonzero"/></clipPath><clipPath id="aa9d206d8d"><path d="M 116.699219 173.625 C 116.023438 174.601562 115.425781 174.449219 115.273438 174.226562 C 115.125 174 115.273438 173.398438 115.5 173.25 C 115.726562 173.101562 116.476562 173.324219 116.476562 173.324219 " clip-rule="nonzero"/></clipPath><clipPath id="3b5b4a39b4"><path d="M 115 173.089844 L 116.5625 173.089844 L 116.5625 174.625 L 115 174.625 Z M 115 173.089844 " clip-rule="nonzero"/></clipPath><clipPath id="6758a72880"><path d="M 116.550781 173.625 C 115.875 174.601562 115.273438 174.449219 115.125 174.226562 C 114.976562 174 115.125 173.398438 115.351562 173.25 C 115.574219 173.101562 116.324219 173.324219 116.324219 173.324219 " clip-rule="nonzero"/></clipPath><clipPath id="078c3e539c"><path d="M 115 173 L 116.5625 173 L 116.5625 174.476562 L 115 174.476562 Z M 115 173 " clip-rule="nonzero"/></clipPath><clipPath id="f992880394"><path d="M 116.550781 173.476562 C 115.875 174.449219 115.273438 174.300781 115.125 174.074219 C 114.976562 173.851562 115.125 173.25 115.351562 173.101562 C 115.574219 172.949219 116.324219 173.175781 116.324219 173.175781 " clip-rule="nonzero"/></clipPath><clipPath id="3837b7cce7"><path d="M 115.867188 172.191406 L 117.460938 172.191406 L 117.460938 173.726562 L 115.867188 173.726562 Z M 115.867188 172.191406 " clip-rule="nonzero"/></clipPath><clipPath id="f36ae0968c"><path d="M 117.449219 172.726562 C 116.773438 173.699219 116.175781 173.550781 116.023438 173.324219 C 115.875 173.101562 116.023438 172.5 116.25 172.351562 C 116.476562 172.199219 117.226562 172.425781 117.226562 172.425781 " clip-rule="nonzero"/></clipPath><clipPath id="f47c7a36c1"><path d="M 116.765625 171.742188 L 118.363281 171.742188 L 118.363281 173.277344 L 116.765625 173.277344 Z M 116.765625 171.742188 " clip-rule="nonzero"/></clipPath><clipPath id="b476ea64e1"><path d="M 118.351562 172.273438 C 117.675781 173.25 117.074219 173.101562 116.925781 172.875 C 116.773438 172.648438 116.925781 172.050781 117.148438 171.898438 C 117.375 171.75 118.125 171.976562 118.125 171.976562 " clip-rule="nonzero"/></clipPath><clipPath id="cae10c1f8c"><path d="M 117.199219 171.351562 L 118.976562 171.351562 L 118.976562 172.960938 L 117.199219 172.960938 Z M 117.199219 171.351562 " clip-rule="nonzero"/></clipPath><clipPath id="321547d023"><path d="M 118.125 171.449219 C 118.949219 172.199219 118.5 172.949219 118.273438 172.949219 C 118.050781 172.949219 117.300781 172.273438 117.375 172.050781 C 117.449219 171.824219 118.273438 171.375 118.5 171.523438 C 118.726562 171.675781 118.800781 172.648438 118.574219 172.800781 C 118.351562 172.949219 117.375 172.574219 117.300781 172.351562 C 117.226562 172.125 117.976562 171.449219 117.976562 171.449219 " clip-rule="nonzero"/></clipPath><clipPath id="ff8933e43a"><path d="M 117.816406 171.292969 L 119.414062 171.292969 L 119.414062 172.828125 L 117.816406 172.828125 Z M 117.816406 171.292969 " clip-rule="nonzero"/></clipPath><clipPath id="43fd3cda67"><path d="M 119.398438 171.824219 C 118.726562 172.800781 118.125 172.648438 117.976562 172.425781 C 117.824219 172.199219 117.976562 171.601562 118.199219 171.449219 C 118.425781 171.300781 119.175781 171.523438 119.175781 171.523438 " clip-rule="nonzero"/></clipPath><clipPath id="9abf9c3cb5"><path d="M 116.015625 173.089844 L 117.613281 173.089844 L 117.613281 174.625 L 116.015625 174.625 Z M 116.015625 173.089844 " clip-rule="nonzero"/></clipPath><clipPath id="d590000fdf"><path d="M 117.601562 173.625 C 116.925781 174.601562 116.324219 174.449219 116.175781 174.226562 C 116.023438 174 116.175781 173.398438 116.398438 173.25 C 116.625 173.101562 117.375 173.324219 117.375 173.324219 " clip-rule="nonzero"/></clipPath><clipPath id="5f38763329"><path d="M 116.46875 172.792969 L 118.0625 172.792969 L 118.0625 174.328125 L 116.46875 174.328125 Z M 116.46875 172.792969 " clip-rule="nonzero"/></clipPath><clipPath id="a3a0e099aa"><path d="M 118.050781 173.324219 C 117.375 174.300781 116.773438 174.148438 116.625 173.925781 C 116.476562 173.699219 116.625 173.101562 116.851562 172.949219 C 117.074219 172.800781 117.824219 173.023438 117.824219 173.023438 " clip-rule="nonzero"/></clipPath><clipPath id="1d922d4b86"><path d="M 117.21875 172 L 118.8125 172 L 118.8125 173.425781 L 117.21875 173.425781 Z M 117.21875 172 " clip-rule="nonzero"/></clipPath><clipPath id="4ea8223be3"><path d="M 118.800781 172.425781 C 118.125 173.398438 117.523438 173.25 117.375 173.023438 C 117.226562 172.800781 117.375 172.199219 117.601562 172.050781 C 117.824219 171.898438 118.574219 172.125 118.574219 172.125 " clip-rule="nonzero"/></clipPath><clipPath id="d91650e11c"><path d="M 116.46875 173 L 118.0625 173 L 118.0625 174.476562 L 116.46875 174.476562 Z M 116.46875 173 " clip-rule="nonzero"/></clipPath><clipPath id="cd7f9e63aa"><path d="M 118.050781 173.476562 C 117.375 174.449219 116.773438 174.300781 116.625 174.074219 C 116.476562 173.851562 116.625 173.25 116.851562 173.101562 C 117.074219 172.949219 117.824219 173.175781 117.824219 173.175781 " clip-rule="nonzero"/></clipPath><clipPath id="a918e6f937"><path d="M 116.765625 172.640625 L 118.363281 172.640625 L 118.363281 174 L 116.765625 174 Z M 116.765625 172.640625 " clip-rule="nonzero"/></clipPath><clipPath id="70548bd46a"><path d="M 118.351562 173.175781 C 117.675781 174.148438 117.074219 174 116.925781 173.773438 C 116.773438 173.550781 116.925781 172.949219 117.148438 172.800781 C 117.375 172.648438 118.125 172.875 118.125 172.875 " clip-rule="nonzero"/></clipPath><clipPath id="00807d9005"><path d="M 116.765625 172.191406 L 118.363281 172.191406 L 118.363281 173.726562 L 116.765625 173.726562 Z M 116.765625 172.191406 " clip-rule="nonzero"/></clipPath><clipPath id="204e637801"><path d="M 118.351562 172.726562 C 117.675781 173.699219 117.074219 173.550781 116.925781 173.324219 C 116.773438 173.101562 116.925781 172.5 117.148438 172.351562 C 117.375 172.199219 118.125 172.425781 118.125 172.425781 " clip-rule="nonzero"/></clipPath><clipPath id="73869b86d4"><path d="M 117 172.042969 L 118.511719 172.042969 L 118.511719 173.578125 L 117 173.578125 Z M 117 172.042969 " clip-rule="nonzero"/></clipPath><clipPath id="5d90d3f5ac"><path d="M 118.5 172.574219 C 117.824219 173.550781 117.226562 173.398438 117.074219 173.175781 C 116.925781 172.949219 117.074219 172.351562 117.300781 172.199219 C 117.523438 172.050781 118.273438 172.273438 118.273438 172.273438 " clip-rule="nonzero"/></clipPath><clipPath id="1f8bef749a"><path d="M 117.367188 171.292969 L 118.960938 171.292969 L 118.960938 172.828125 L 117.367188 172.828125 Z M 117.367188 171.292969 " clip-rule="nonzero"/></clipPath><clipPath id="5146e651cd"><path d="M 118.949219 171.824219 C 118.273438 172.800781 117.675781 172.648438 117.523438 172.425781 C 117.375 172.199219 117.523438 171.601562 117.75 171.449219 C 117.976562 171.300781 118.726562 171.523438 118.726562 171.523438 " clip-rule="nonzero"/></clipPath><clipPath id="3d421541e0"><path d="M 117 172 L 118.511719 172 L 118.511719 173.425781 L 117 173.425781 Z M 117 172 " clip-rule="nonzero"/></clipPath><clipPath id="2dd7b1675f"><path d="M 118.5 172.425781 C 117.824219 173.398438 117.226562 173.25 117.074219 173.023438 C 116.925781 172.800781 117.074219 172.199219 117.300781 172.050781 C 117.523438 171.898438 118.273438 172.125 118.273438 172.125 " clip-rule="nonzero"/></clipPath><clipPath id="531071d7d9"><path d="M 116.015625 173.242188 L 117.613281 173.242188 L 117.613281 174.777344 L 116.015625 174.777344 Z M 116.015625 173.242188 " clip-rule="nonzero"/></clipPath><clipPath id="cbfeb8277b"><path d="M 117.601562 173.773438 C 116.925781 174.75 116.324219 174.601562 116.175781 174.375 C 116.023438 174.148438 116.175781 173.550781 116.398438 173.398438 C 116.625 173.25 117.375 173.476562 117.375 173.476562 " clip-rule="nonzero"/></clipPath><clipPath id="b632e70188"><path d="M 115.71875 173.542969 L 117.3125 173.542969 L 117.3125 175 L 115.71875 175 Z M 115.71875 173.542969 " clip-rule="nonzero"/></clipPath><clipPath id="7dd92929b3"><path d="M 117.300781 174.074219 C 116.625 175.050781 116.023438 174.898438 115.875 174.675781 C 115.726562 174.449219 115.875 173.851562 116.101562 173.699219 C 116.324219 173.550781 117.074219 173.773438 117.074219 173.773438 " clip-rule="nonzero"/></clipPath><clipPath id="b880b914a3"><path d="M 115.71875 173.839844 L 117.3125 173.839844 L 117.3125 175.375 L 115.71875 175.375 Z M 115.71875 173.839844 " clip-rule="nonzero"/></clipPath><clipPath id="eb8169abde"><path d="M 117.300781 174.375 C 116.625 175.351562 116.023438 175.199219 115.875 174.976562 C 115.726562 174.75 115.875 174.148438 116.101562 174 C 116.324219 173.851562 117.074219 174.074219 117.074219 174.074219 " clip-rule="nonzero"/></clipPath><clipPath id="2e81ad1353"><path d="M 116.015625 173.089844 L 117.613281 173.089844 L 117.613281 174.625 L 116.015625 174.625 Z M 116.015625 173.089844 " clip-rule="nonzero"/></clipPath><clipPath id="d665a13d12"><path d="M 117.601562 173.625 C 116.925781 174.601562 116.324219 174.449219 116.175781 174.226562 C 116.023438 174 116.175781 173.398438 116.398438 173.25 C 116.625 173.101562 117.375 173.324219 117.375 173.324219 " clip-rule="nonzero"/></clipPath><clipPath id="bad2c51e4a"><path d="M 116.617188 173 L 118.210938 173 L 118.210938 174.476562 L 116.617188 174.476562 Z M 116.617188 173 " clip-rule="nonzero"/></clipPath><clipPath id="2d0d8d8fb8"><path d="M 118.199219 173.476562 C 117.523438 174.449219 116.925781 174.300781 116.773438 174.074219 C 116.625 173.851562 116.773438 173.25 117 173.101562 C 117.226562 172.949219 117.976562 173.175781 117.976562 173.175781 " clip-rule="nonzero"/></clipPath><clipPath id="5138bfd336"><path d="M 115.566406 173.390625 L 117.164062 173.390625 L 117.164062 174.925781 L 115.566406 174.925781 Z M 115.566406 173.390625 " clip-rule="nonzero"/></clipPath><clipPath id="bd04435680"><path d="M 117.148438 173.925781 C 116.476562 174.898438 115.875 174.75 115.726562 174.523438 C 115.574219 174.300781 115.726562 173.699219 115.949219 173.550781 C 116.175781 173.398438 116.925781 173.625 116.925781 173.625 " clip-rule="nonzero"/></clipPath><clipPath id="9bb88955f9"><path d="M 116.167969 173.390625 L 117.761719 173.390625 L 117.761719 174.925781 L 116.167969 174.925781 Z M 116.167969 173.390625 " clip-rule="nonzero"/></clipPath><clipPath id="f7d01002a1"><path d="M 117.75 173.925781 C 117.074219 174.898438 116.476562 174.75 116.324219 174.523438 C 116.175781 174.300781 116.324219 173.699219 116.550781 173.550781 C 116.773438 173.398438 117.523438 173.625 117.523438 173.625 " clip-rule="nonzero"/></clipPath><clipPath id="a49226df55"><path d="M 115.71875 173.089844 L 117.3125 173.089844 L 117.3125 174.625 L 115.71875 174.625 Z M 115.71875 173.089844 " clip-rule="nonzero"/></clipPath><clipPath id="267a09ab57"><path d="M 117.300781 173.625 C 116.625 174.601562 116.023438 174.449219 115.875 174.226562 C 115.726562 174 115.875 173.398438 116.101562 173.25 C 116.324219 173.101562 117.074219 173.324219 117.074219 173.324219 " clip-rule="nonzero"/></clipPath><clipPath id="de68d8049f"><path d="M 115.867188 173.089844 L 117.460938 173.089844 L 117.460938 174.625 L 115.867188 174.625 Z M 115.867188 173.089844 " clip-rule="nonzero"/></clipPath><clipPath id="ff99cb2429"><path d="M 117.449219 173.625 C 116.773438 174.601562 116.175781 174.449219 116.023438 174.226562 C 115.875 174 116.023438 173.398438 116.25 173.25 C 116.476562 173.101562 117.226562 173.324219 117.226562 173.324219 " clip-rule="nonzero"/></clipPath><clipPath id="d5a9a5a448"><path d="M 116.617188 172.339844 L 118.210938 172.339844 L 118.210938 173.875 L 116.617188 173.875 Z M 116.617188 172.339844 " clip-rule="nonzero"/></clipPath><clipPath id="10901f264e"><path d="M 118.199219 172.875 C 117.523438 173.851562 116.925781 173.699219 116.773438 173.476562 C 116.625 173.25 116.773438 172.648438 117 172.5 C 117.226562 172.351562 117.976562 172.574219 117.976562 172.574219 " clip-rule="nonzero"/></clipPath><clipPath id="e22dd7af4e"><path d="M 117 172.042969 L 118.511719 172.042969 L 118.511719 173.578125 L 117 173.578125 Z M 117 172.042969 " clip-rule="nonzero"/></clipPath><clipPath id="5b05050619"><path d="M 118.5 172.574219 C 117.824219 173.550781 117.226562 173.398438 117.074219 173.175781 C 116.925781 172.949219 117.074219 172.351562 117.300781 172.199219 C 117.523438 172.050781 118.273438 172.273438 118.273438 172.273438 " clip-rule="nonzero"/></clipPath><clipPath id="4ff21f56fe"><path d="M 117.21875 171.742188 L 118.8125 171.742188 L 118.8125 173.277344 L 117.21875 173.277344 Z M 117.21875 171.742188 " clip-rule="nonzero"/></clipPath><clipPath id="39d3bfb68a"><path d="M 118.800781 172.273438 C 118.125 173.25 117.523438 173.101562 117.375 172.875 C 117.226562 172.648438 117.375 172.050781 117.601562 171.898438 C 117.824219 171.75 118.574219 171.976562 118.574219 171.976562 " clip-rule="nonzero"/></clipPath><clipPath id="8741072d36"><path d="M 117.367188 171.742188 L 118.960938 171.742188 L 118.960938 173.277344 L 117.367188 173.277344 Z M 117.367188 171.742188 " clip-rule="nonzero"/></clipPath><clipPath id="781252016b"><path d="M 118.949219 172.273438 C 118.273438 173.25 117.675781 173.101562 117.523438 172.875 C 117.375 172.648438 117.523438 172.050781 117.75 171.898438 C 117.976562 171.75 118.726562 171.976562 118.726562 171.976562 " clip-rule="nonzero"/></clipPath><clipPath id="51288840f6"><path d="M 117.515625 171.441406 L 119.113281 171.441406 L 119.113281 172.976562 L 117.515625 172.976562 Z M 117.515625 171.441406 " clip-rule="nonzero"/></clipPath><clipPath id="cabedda6d9"><path d="M 119.101562 171.976562 C 118.425781 172.949219 117.824219 172.800781 117.675781 172.574219 C 117.523438 172.351562 117.675781 171.75 117.898438 171.601562 C 118.125 171.449219 118.875 171.675781 118.875 171.675781 " clip-rule="nonzero"/></clipPath><clipPath id="c51b776366"><path d="M 117 172 L 118.511719 172 L 118.511719 173.425781 L 117 173.425781 Z M 117 172 " clip-rule="nonzero"/></clipPath><clipPath id="be27c4969a"><path d="M 118.5 172.425781 C 117.824219 173.398438 117.226562 173.25 117.074219 173.023438 C 116.925781 172.800781 117.074219 172.199219 117.300781 172.050781 C 117.523438 171.898438 118.273438 172.125 118.273438 172.125 " clip-rule="nonzero"/></clipPath><clipPath id="b0f4235a3c"><path d="M 117.515625 172 L 119.113281 172 L 119.113281 173.425781 L 117.515625 173.425781 Z M 117.515625 172 " clip-rule="nonzero"/></clipPath><clipPath id="e72cd8419c"><path d="M 119.101562 172.425781 C 118.425781 173.398438 117.824219 173.25 117.675781 173.023438 C 117.523438 172.800781 117.675781 172.199219 117.898438 172.050781 C 118.125 171.898438 118.875 172.125 118.875 172.125 " clip-rule="nonzero"/></clipPath></defs><g clip-path="url(#cc65b57e1b)"><path stroke-linecap="butt" transform="matrix(0.75, 0, 0, 0.75, 89.380743, 157.031241)" fill="none" stroke-linejoin="miter" d="M 39.60172 14.786471 L 36.362136 18.963555 C 36.278803 19.07293 36.294428 19.093763 36.419428 19.036472 C 37.836095 18.333347 38.221511 20.69793 39.492345 19.875013 C 39.580886 19.812513 39.622553 19.838555 39.606928 19.94793 C 39.586095 20.114597 39.534011 20.270847 39.450678 20.421888 C 39.440261 20.44793 39.44547 20.468763 39.466303 20.484388 C 39.492345 20.500013 39.513178 20.500013 39.534011 20.473972 L 46.747553 11.29168 C 46.763178 11.265638 46.768387 11.239596 46.752762 11.213555 C 46.742345 11.182305 46.716303 11.171888 46.685053 11.171888 L 33.836094 11.213555 C 33.768386 11.213555 33.716303 11.239596 33.669428 11.29168 L 30.752761 14.94793 C 30.711094 15.000013 30.711094 15.046888 30.752761 15.098971 L 32.804844 17.63543 C 32.862136 17.708347 32.924636 17.713555 32.981928 17.640638 L 35.367344 14.76043 C 35.429844 14.682305 35.513178 14.645846 35.617344 14.645846 L 39.53922 14.661471 C 39.643386 14.661471 39.66422 14.703138 39.60172 14.786471 " stroke="#827342" stroke-width="2" stroke-opacity="1" stroke-miterlimit="4"/></g><g clip-path="url(#8d43c30515)"><path stroke-linecap="butt" transform="matrix(0.75, 0, 0, 0.75, 89.380743, 157.031241)" fill="none" stroke-linejoin="miter" d="M 23.403802 35.380223 C 23.393385 35.395848 23.372552 35.406264 23.351719 35.406264 L 19.278802 35.395848 C 19.25276 35.395848 19.231927 35.385431 19.22151 35.359389 C 19.211093 35.338556 19.211093 35.312514 19.231927 35.291681 L 31.528802 19.614597 C 31.549636 19.588555 31.549636 19.562513 31.528802 19.536472 L 25.101719 11.223971 C 25.091302 11.203138 25.075677 11.19793 25.049635 11.19793 L 12.148593 11.203138 C 12.122551 11.203138 12.101718 11.213555 12.091301 11.239596 C 12.080885 11.26043 12.080885 11.286471 12.09651 11.307305 L 21.497552 23.32293 C 21.53401 23.364597 21.56526 23.364597 21.601719 23.32293 L 23.72151 20.713555 C 23.747552 20.687514 23.747552 20.661472 23.726719 20.63543 L 19.205885 14.765638 C 19.19026 14.744805 19.19026 14.723971 19.200677 14.69793 C 19.211093 14.671888 19.231927 14.661471 19.257968 14.661471 L 23.356927 14.692721 C 23.37776 14.692721 23.393385 14.69793 23.403802 14.713555 L 27.242344 19.536472 C 27.263177 19.562513 27.263177 19.588555 27.242344 19.614597 L 12.080885 38.79689 C 12.06526 38.817723 12.060051 38.838556 12.070468 38.864598 C 12.086093 38.885431 12.101718 38.901056 12.12776 38.901056 L 25.039219 38.901056 C 25.060052 38.901056 25.075677 38.89064 25.091302 38.875015 L 28.117344 35.093764 C 28.138177 35.067723 28.138177 35.041681 28.117344 35.015639 L 25.992344 32.395848 C 25.961094 32.354181 25.924635 32.354181 25.893385 32.395848 L 23.403802 35.380223 " stroke="#827342" stroke-width="2" stroke-opacity="1" stroke-miterlimit="4"/></g><g clip-path="url(#af9a773dfe)"><path stroke-linecap="butt" transform="matrix(0.75, 0, 0, 0.75, 89.380743, 157.031241)" fill="none" stroke-linejoin="miter" d="M 34.461094 21.406264 L 27.341302 30.552097 C 27.299636 30.604181 27.299636 30.656264 27.341302 30.708347 L 33.705886 38.817723 C 33.747553 38.875015 33.799636 38.901056 33.867344 38.901056 L 46.638178 38.901056 C 46.674637 38.901056 46.700678 38.885431 46.716303 38.848973 C 46.737137 38.817723 46.731928 38.781265 46.705887 38.755223 L 37.409011 26.843764 C 37.32047 26.729181 37.231928 26.729181 37.143386 26.838556 L 35.148594 29.333347 C 35.101719 29.385431 35.101719 29.437514 35.148594 29.494806 L 39.60172 35.296889 C 39.653803 35.364598 39.638178 35.401056 39.549636 35.401056 L 35.544428 35.401056 C 35.476719 35.401056 35.419428 35.375014 35.377761 35.317723 L 31.648594 30.744806 C 31.586094 30.666681 31.586094 30.588556 31.648594 30.510431 L 37.268386 23.35418 " stroke="#827342" stroke-width="2" stroke-opacity="1" stroke-miterlimit="4"/></g><g clip-path="url(#0ea75b3fb6)"><path fill="#112a41" d="M 129.917969 193.066406 C 129.917969 193.230469 129.886719 193.390625 129.824219 193.542969 C 129.761719 193.691406 129.671875 193.828125 129.558594 193.941406 C 129.441406 194.058594 129.308594 194.148438 129.15625 194.210938 C 129.003906 194.273438 128.84375 194.304688 128.679688 194.304688 L 94.183594 194.304688 C 94.019531 194.304688 93.863281 194.273438 93.710938 194.210938 C 93.558594 194.148438 93.421875 194.058594 93.308594 193.941406 C 93.191406 193.828125 93.101562 193.691406 93.039062 193.542969 C 92.976562 193.390625 92.945312 193.230469 92.945312 193.066406 L 92.945312 158.535156 C 92.945312 158.371094 92.976562 158.210938 93.039062 158.058594 C 93.101562 157.910156 93.191406 157.773438 93.308594 157.65625 C 93.421875 157.542969 93.558594 157.453125 93.710938 157.390625 C 93.863281 157.328125 94.019531 157.296875 94.183594 157.296875 L 128.679688 157.296875 C 128.84375 157.296875 129.003906 157.328125 129.15625 157.390625 C 129.308594 157.453125 129.441406 157.542969 129.558594 157.65625 C 129.671875 157.773438 129.761719 157.910156 129.824219 158.058594 C 129.886719 158.210938 129.917969 158.371094 129.917969 158.535156 Z M 119.082031 168.121094 L 116.652344 171.253906 C 116.589844 171.335938 116.601562 171.351562 116.695312 171.308594 C 117.757812 170.78125 118.046875 172.554688 119 171.9375 C 119.066406 171.890625 119.097656 171.910156 119.085938 171.992188 C 119.070312 172.117188 119.03125 172.234375 118.96875 172.347656 C 118.960938 172.367188 118.964844 172.382812 118.980469 172.394531 C 119 172.40625 119.015625 172.40625 119.03125 172.386719 L 124.441406 165.5 C 124.453125 165.480469 124.457031 165.460938 124.445312 165.441406 C 124.4375 165.417969 124.417969 165.410156 124.394531 165.410156 L 114.757812 165.441406 C 114.707031 165.441406 114.667969 165.460938 114.632812 165.5 L 112.445312 168.242188 C 112.414062 168.28125 112.414062 168.316406 112.445312 168.355469 L 113.984375 170.257812 C 114.027344 170.3125 114.074219 170.316406 114.117188 170.261719 L 115.90625 168.101562 C 115.953125 168.042969 116.015625 168.015625 116.09375 168.015625 L 119.035156 168.027344 C 119.113281 168.027344 119.128906 168.058594 119.082031 168.121094 Z M 106.933594 183.566406 C 106.925781 183.578125 106.910156 183.585938 106.894531 183.585938 L 103.839844 183.578125 C 103.820312 183.578125 103.804688 183.570312 103.796875 183.550781 C 103.789062 183.535156 103.789062 183.515625 103.804688 183.5 L 113.027344 171.742188 C 113.042969 171.722656 113.042969 171.703125 113.027344 171.683594 L 108.207031 165.449219 C 108.199219 165.433594 108.1875 165.429688 108.167969 165.429688 L 98.492188 165.433594 C 98.472656 165.433594 98.457031 165.441406 98.449219 165.460938 C 98.441406 165.476562 98.441406 165.496094 98.453125 165.511719 L 105.503906 174.523438 C 105.53125 174.554688 105.554688 174.554688 105.582031 174.523438 L 107.171875 172.566406 C 107.191406 172.546875 107.191406 172.527344 107.175781 172.507812 L 103.785156 168.105469 C 103.773438 168.089844 103.773438 168.074219 103.78125 168.054688 C 103.789062 168.035156 103.804688 168.027344 103.824219 168.027344 L 106.898438 168.050781 C 106.914062 168.050781 106.925781 168.054688 106.933594 168.066406 L 109.8125 171.683594 C 109.828125 171.703125 109.828125 171.722656 109.8125 171.742188 L 98.441406 186.128906 C 98.429688 186.144531 98.425781 186.160156 98.433594 186.179688 C 98.445312 186.195312 98.457031 186.207031 98.476562 186.207031 L 108.160156 186.207031 C 108.175781 186.207031 108.1875 186.199219 108.199219 186.1875 L 110.46875 183.351562 C 110.484375 183.332031 110.484375 183.3125 110.46875 183.292969 L 108.875 181.328125 C 108.851562 181.296875 108.824219 181.296875 108.800781 181.328125 Z M 115.226562 173.085938 L 109.886719 179.945312 C 109.855469 179.984375 109.855469 180.023438 109.886719 180.0625 L 114.660156 186.144531 C 114.691406 186.1875 114.730469 186.207031 114.78125 186.207031 L 124.359375 186.207031 C 124.386719 186.207031 124.40625 186.195312 124.417969 186.167969 C 124.433594 186.144531 124.429688 186.117188 124.410156 186.097656 L 117.4375 177.164062 C 117.371094 177.078125 117.304688 177.078125 117.238281 177.160156 L 115.742188 179.03125 C 115.707031 179.070312 115.707031 179.109375 115.742188 179.152344 L 119.082031 183.503906 C 119.121094 183.554688 119.109375 183.582031 119.042969 183.582031 L 116.039062 183.582031 C 115.988281 183.582031 115.945312 183.5625 115.914062 183.519531 L 113.117188 180.089844 C 113.070312 180.03125 113.070312 179.972656 113.117188 179.914062 L 117.332031 174.546875 C 117.617188 174.113281 117.933594 173.648438 118.292969 173.273438 C 118.480469 173.078125 118.476562 172.433594 118.113281 172.652344 C 118.074219 172.675781 118.042969 172.667969 118.023438 172.625 C 117.609375 171.878906 117.085938 171.601562 116.445312 171.792969 C 115.980469 171.929688 115.535156 172.695312 115.226562 173.085938 Z M 115.226562 173.085938 " fill-opacity="1" fill-rule="nonzero"/></g><path fill="#f3bc42" d="M 119.035156 168.027344 L 116.09375 168.015625 C 116.015625 168.015625 115.953125 168.042969 115.90625 168.101562 L 114.117188 170.261719 C 114.074219 170.316406 114.027344 170.3125 113.984375 170.257812 L 112.445312 168.355469 C 112.414062 168.316406 112.414062 168.28125 112.445312 168.242188 L 114.632812 165.5 C 114.667969 165.460938 114.707031 165.441406 114.757812 165.441406 L 124.394531 165.410156 C 124.417969 165.410156 124.4375 165.417969 124.445312 165.441406 C 124.457031 165.460938 124.453125 165.480469 124.441406 165.5 L 119.03125 172.386719 C 119.015625 172.40625 119 172.40625 118.980469 172.394531 C 118.964844 172.382812 118.960938 172.367188 118.96875 172.347656 C 119.03125 172.234375 119.070312 172.117188 119.085938 171.992188 C 119.097656 171.910156 119.066406 171.890625 119 171.9375 C 118.046875 172.554688 117.757812 170.78125 116.695312 171.308594 C 116.601562 171.351562 116.589844 171.335938 116.652344 171.253906 L 119.082031 168.121094 C 119.128906 168.058594 119.113281 168.027344 119.035156 168.027344 Z M 119.035156 168.027344 " fill-opacity="1" fill-rule="nonzero"/><path fill="#f3bc42" d="M 106.933594 183.566406 L 108.800781 181.328125 C 108.824219 181.296875 108.851562 181.296875 108.875 181.328125 L 110.46875 183.292969 C 110.484375 183.3125 110.484375 183.332031 110.46875 183.351562 L 108.199219 186.1875 C 108.1875 186.199219 108.175781 186.207031 108.160156 186.207031 L 98.476562 186.207031 C 98.457031 186.207031 98.445312 186.195312 98.433594 186.179688 C 98.425781 186.160156 98.429688 186.144531 98.441406 186.128906 L 109.8125 171.742188 C 109.828125 171.722656 109.828125 171.703125 109.8125 171.683594 L 106.933594 168.066406 C 106.925781 168.054688 106.914062 168.050781 106.898438 168.050781 L 103.824219 168.027344 C 103.804688 168.027344 103.789062 168.035156 103.78125 168.054688 C 103.773438 168.074219 103.773438 168.089844 103.785156 168.105469 L 107.175781 172.507812 C 107.191406 172.527344 107.191406 172.546875 107.171875 172.566406 L 105.582031 174.523438 C 105.554688 174.554688 105.53125 174.554688 105.503906 174.523438 L 98.453125 165.511719 C 98.441406 165.496094 98.441406 165.476562 98.449219 165.460938 C 98.457031 165.441406 98.472656 165.433594 98.492188 165.433594 L 108.167969 165.429688 C 108.1875 165.429688 108.199219 165.433594 108.207031 165.449219 L 113.027344 171.683594 C 113.042969 171.703125 113.042969 171.722656 113.027344 171.742188 L 103.804688 183.5 C 103.789062 183.515625 103.789062 183.535156 103.796875 183.550781 C 103.804688 183.570312 103.820312 183.578125 103.839844 183.578125 L 106.894531 183.585938 C 106.910156 183.585938 106.925781 183.578125 106.933594 183.566406 Z M 106.933594 183.566406 " fill-opacity="1" fill-rule="nonzero"/><path fill="#112a41" d="M 143.007812 172.148438 C 143.023438 172.175781 143.046875 172.1875 143.074219 172.1875 C 143.105469 172.1875 143.128906 172.175781 143.140625 172.148438 C 144.179688 170.261719 145.21875 168.359375 146.265625 166.445312 C 146.765625 165.527344 147.433594 165.238281 148.269531 165.585938 C 149.492188 166.089844 149.453125 167.136719 148.886719 168.132812 C 147.542969 170.492188 146.203125 172.855469 144.867188 175.222656 C 144.839844 175.265625 144.839844 175.3125 144.867188 175.355469 C 146.410156 178.050781 147.953125 180.746094 149.492188 183.433594 C 149.703125 183.800781 149.816406 184.125 149.828125 184.398438 C 149.878906 185.433594 149.011719 186.21875 148.011719 186.097656 C 147.367188 186.019531 147.058594 185.636719 146.738281 185.050781 C 145.527344 182.828125 144.320312 180.609375 143.128906 178.398438 C 143.117188 178.378906 143.101562 178.371094 143.078125 178.371094 C 143.054688 178.371094 143.039062 178.378906 143.027344 178.398438 C 141.769531 180.730469 140.507812 183.054688 139.246094 185.371094 C 138.316406 187.074219 135.402344 185.660156 136.636719 183.515625 C 138.183594 180.820312 139.726562 178.125 141.269531 175.429688 C 141.292969 175.390625 141.292969 175.351562 141.269531 175.308594 C 139.964844 172.976562 138.660156 170.636719 137.359375 168.289062 C 137.042969 167.71875 136.878906 167.285156 136.867188 166.980469 C 136.820312 165.816406 138.363281 165.054688 139.320312 165.683594 C 139.550781 165.835938 139.777344 166.117188 140 166.523438 C 141.015625 168.398438 142.019531 170.273438 143.007812 172.148438 Z M 143.007812 172.148438 " fill-opacity="1" fill-rule="nonzero"/><path fill="#112a41" d="M 228.957031 172.136719 C 228.972656 172.167969 228.996094 172.183594 229.03125 172.183594 C 229.066406 172.183594 229.09375 172.167969 229.109375 172.140625 C 230.222656 170.097656 231.347656 168.050781 232.488281 166 C 232.585938 165.820312 232.769531 165.679688 233.03125 165.578125 C 234.484375 165.011719 235.785156 166.515625 235.007812 167.871094 C 233.613281 170.308594 232.230469 172.734375 230.859375 175.152344 C 230.808594 175.242188 230.808594 175.328125 230.859375 175.417969 C 232.417969 178.121094 233.972656 180.839844 235.523438 183.570312 C 236.230469 184.8125 235.386719 186.289062 233.9375 186.105469 C 233.082031 185.992188 232.726562 185.128906 232.273438 184.28125 C 231.222656 182.316406 230.164062 180.359375 229.085938 178.414062 C 229.074219 178.394531 229.058594 178.382812 229.035156 178.382812 C 229.015625 178.382812 229 178.394531 228.988281 178.414062 C 227.796875 180.582031 226.621094 182.75 225.460938 184.910156 C 225.203125 185.382812 224.957031 185.703125 224.722656 185.867188 C 223.59375 186.644531 222.019531 185.539062 222.316406 184.195312 C 222.359375 184 222.492188 183.707031 222.714844 183.316406 C 224.21875 180.691406 225.71875 178.066406 227.214844 175.445312 C 227.242188 175.398438 227.246094 175.347656 227.21875 175.300781 C 225.914062 172.953125 224.601562 170.597656 223.28125 168.238281 C 223.035156 167.792969 222.894531 167.449219 222.859375 167.203125 C 222.675781 165.863281 224.195312 165 225.300781 165.710938 C 225.511719 165.84375 225.710938 166.085938 225.90625 166.441406 C 226.945312 168.339844 227.964844 170.238281 228.957031 172.136719 Z M 228.957031 172.136719 " fill-opacity="1" fill-rule="nonzero"/><path fill="#112a41" d="M 153.015625 172.480469 C 157.863281 167.597656 166.28125 170.402344 167.023438 177.308594 C 167.160156 178.589844 166.855469 179.5625 165.378906 179.5625 C 161.640625 179.570312 157.921875 179.570312 154.222656 179.566406 C 154.175781 179.566406 154.132812 179.585938 154.105469 179.628906 C 154.074219 179.667969 154.070312 179.714844 154.085938 179.761719 C 155.335938 183.277344 159.570312 184.476562 162.3125 181.851562 C 163.917969 180.320312 165.882812 182.394531 164.734375 183.953125 C 163.378906 185.785156 160.585938 186.53125 158.4375 186.433594 C 151.394531 186.117188 147.972656 177.558594 153.015625 172.480469 Z M 157.65625 173.363281 C 156.023438 173.796875 154.507812 175.136719 154.136719 176.847656 C 154.121094 176.910156 154.148438 176.945312 154.214844 176.945312 L 163.445312 176.945312 C 163.53125 176.945312 163.566406 176.902344 163.546875 176.816406 C 162.921875 174.300781 160.171875 172.691406 157.65625 173.363281 Z M 157.65625 173.363281 " fill-opacity="1" fill-rule="nonzero"/><path fill="#112a41" d="M 181.707031 184.550781 C 181.707031 184.535156 181.699219 184.523438 181.683594 184.519531 C 181.667969 184.511719 181.65625 184.515625 181.644531 184.527344 C 180.496094 185.847656 179.105469 186.371094 177.324219 186.433594 C 171.273438 186.644531 166.6875 180.152344 169.652344 174.558594 C 172.019531 170.097656 177.878906 168.265625 181.785156 172.128906 C 181.800781 172.144531 181.824219 172.148438 181.847656 172.140625 C 181.871094 172.132812 181.882812 172.117188 181.882812 172.089844 C 182.03125 169.8125 184.960938 169.726562 184.964844 171.988281 C 184.972656 178.183594 184.972656 182.507812 184.964844 184.96875 C 184.953125 189.945312 181.429688 193.449219 176.417969 193.136719 C 174.5 193.019531 174.492188 189.984375 176.566406 189.953125 C 180.011719 189.902344 181.761719 187.980469 181.707031 184.550781 Z M 176.835938 183.269531 C 177.15625 183.269531 177.476562 183.238281 177.792969 183.175781 C 178.109375 183.109375 178.414062 183.015625 178.714844 182.890625 C 179.011719 182.765625 179.296875 182.609375 179.566406 182.429688 C 179.832031 182.246094 180.082031 182.039062 180.3125 181.804688 C 180.539062 181.570312 180.742188 181.316406 180.925781 181.042969 C 181.105469 180.769531 181.257812 180.480469 181.378906 180.175781 C 181.503906 179.867188 181.597656 179.554688 181.664062 179.230469 C 181.726562 178.90625 181.761719 178.578125 181.761719 178.246094 C 181.761719 177.917969 181.730469 177.589844 181.671875 177.265625 C 181.609375 176.941406 181.515625 176.625 181.394531 176.320312 C 181.273438 176.011719 181.121094 175.722656 180.945312 175.445312 C 180.765625 175.171875 180.5625 174.914062 180.335938 174.679688 C 180.109375 174.445312 179.859375 174.238281 179.59375 174.050781 C 179.328125 173.867188 179.042969 173.710938 178.746094 173.582031 C 178.449219 173.457031 178.144531 173.359375 177.828125 173.292969 C 177.511719 173.226562 177.191406 173.195312 176.871094 173.195312 C 176.546875 173.191406 176.226562 173.222656 175.910156 173.289062 C 175.59375 173.351562 175.289062 173.445312 174.988281 173.570312 C 174.691406 173.695312 174.40625 173.851562 174.140625 174.03125 C 173.871094 174.214844 173.621094 174.425781 173.394531 174.65625 C 173.164062 174.890625 172.960938 175.144531 172.78125 175.417969 C 172.597656 175.691406 172.445312 175.980469 172.324219 176.289062 C 172.199219 176.59375 172.105469 176.90625 172.039062 177.230469 C 171.976562 177.554688 171.945312 177.882812 171.941406 178.214844 C 171.941406 178.542969 171.972656 178.871094 172.03125 179.195312 C 172.09375 179.519531 172.1875 179.835938 172.308594 180.140625 C 172.429688 180.449219 172.582031 180.738281 172.761719 181.015625 C 172.9375 181.289062 173.140625 181.546875 173.367188 181.78125 C 173.59375 182.015625 173.84375 182.226562 174.109375 182.410156 C 174.378906 182.59375 174.660156 182.75 174.957031 182.878906 C 175.253906 183.003906 175.5625 183.101562 175.875 183.167969 C 176.191406 183.234375 176.511719 183.265625 176.835938 183.269531 Z M 176.835938 183.269531 " fill-opacity="1" fill-rule="nonzero"/><path fill="#112a41" d="M 200.019531 184.546875 C 198.710938 186.164062 196.613281 186.59375 194.632812 186.410156 C 190.601562 186.035156 187.171875 182.414062 187.132812 178.324219 C 187.09375 174.371094 190.148438 170.847656 193.996094 170.136719 C 196.320312 169.707031 198.386719 170.367188 200.199219 172.117188 C 200.226562 172.144531 200.257812 172.148438 200.289062 172.132812 C 200.324219 172.117188 200.34375 172.089844 200.339844 172.050781 C 200.257812 170.441406 202.363281 169.683594 203.15625 171.007812 C 203.285156 171.230469 203.355469 171.546875 203.355469 171.964844 C 203.398438 178.757812 203.390625 183.269531 203.328125 185.492188 C 203.207031 189.925781 200.101562 192.949219 195.742188 193.148438 C 195.007812 193.179688 194.460938 193.097656 194.101562 192.902344 C 193.210938 192.417969 193.164062 190.722656 194.128906 190.15625 C 194.332031 190.039062 194.648438 189.972656 195.074219 189.960938 C 198.65625 189.847656 199.960938 187.996094 200.136719 184.59375 C 200.136719 184.5625 200.125 184.539062 200.09375 184.527344 C 200.0625 184.515625 200.039062 184.523438 200.019531 184.546875 Z M 195.304688 183.269531 C 195.625 183.265625 195.945312 183.230469 196.261719 183.164062 C 196.574219 183.097656 196.882812 183 197.175781 182.871094 C 197.472656 182.742188 197.753906 182.585938 198.023438 182.402344 C 198.289062 182.214844 198.535156 182.003906 198.761719 181.769531 C 198.988281 181.535156 199.1875 181.277344 199.367188 181 C 199.542969 180.726562 199.691406 180.433594 199.8125 180.128906 C 199.933594 179.820312 200.023438 179.503906 200.085938 179.179688 C 200.144531 178.855469 200.175781 178.527344 200.171875 178.195312 C 200.167969 177.867188 200.136719 177.539062 200.070312 177.214844 C 200.007812 176.890625 199.910156 176.574219 199.785156 176.269531 C 199.660156 175.964844 199.507812 175.675781 199.328125 175.402344 C 199.144531 175.128906 198.941406 174.875 198.710938 174.644531 C 198.480469 174.410156 198.234375 174.203125 197.964844 174.023438 C 197.695312 173.839844 197.410156 173.6875 197.113281 173.5625 C 196.8125 173.4375 196.507812 173.34375 196.191406 173.28125 C 195.875 173.21875 195.554688 173.191406 195.234375 173.191406 C 194.910156 173.195312 194.59375 173.230469 194.277344 173.296875 C 193.960938 173.363281 193.65625 173.460938 193.359375 173.589844 C 193.0625 173.71875 192.78125 173.875 192.515625 174.058594 C 192.25 174.246094 192.003906 174.457031 191.777344 174.691406 C 191.550781 174.929688 191.347656 175.183594 191.171875 175.460938 C 190.996094 175.738281 190.847656 176.027344 190.726562 176.335938 C 190.605469 176.640625 190.511719 176.957031 190.453125 177.28125 C 190.390625 177.605469 190.363281 177.933594 190.367188 178.265625 C 190.367188 178.597656 190.402344 178.921875 190.464844 179.246094 C 190.53125 179.570312 190.625 179.886719 190.753906 180.191406 C 190.878906 180.496094 191.03125 180.785156 191.210938 181.058594 C 191.390625 181.332031 191.597656 181.585938 191.828125 181.816406 C 192.054688 182.050781 192.304688 182.257812 192.574219 182.4375 C 192.84375 182.621094 193.125 182.773438 193.425781 182.898438 C 193.722656 183.023438 194.03125 183.117188 194.347656 183.179688 C 194.664062 183.242188 194.980469 183.269531 195.304688 183.269531 Z M 195.304688 183.269531 " fill-opacity="1" fill-rule="nonzero"/><path fill="#112a41" d="M 209.050781 184.933594 C 203.378906 180.863281 204.953125 172.335938 211.527344 170.3125 C 216.105469 168.902344 221.160156 172.089844 221.921875 176.820312 C 222.160156 178.289062 222.085938 179.5625 220.222656 179.566406 C 216.523438 179.570312 212.832031 179.570312 209.148438 179.566406 C 209.109375 179.566406 209.078125 179.582031 209.054688 179.617188 C 209.03125 179.648438 209.023438 179.683594 209.039062 179.722656 C 210.085938 182.945312 213.773438 184.292969 216.613281 182.386719 C 216.96875 182.148438 217.394531 181.660156 217.832031 181.457031 C 218.695312 181.046875 219.542969 181.472656 219.875 182.332031 C 220.148438 183.046875 219.972656 183.707031 219.339844 184.320312 C 216.558594 187.019531 212.070312 187.097656 209.050781 184.933594 Z M 212.871094 173.304688 C 211.113281 173.644531 209.496094 175.046875 209.085938 176.859375 C 209.074219 176.914062 209.097656 176.945312 209.152344 176.945312 L 218.453125 176.945312 C 218.523438 176.945312 218.546875 176.910156 218.527344 176.839844 C 217.742188 174.351562 215.429688 172.808594 212.871094 173.304688 Z M 212.871094 173.304688 " fill-opacity="1" fill-rule="nonzero"/><path fill="#f3bc42" d="M 115.226562 173.085938 C 115.292969 173.523438 115.589844 173.777344 116.113281 173.855469 C 116.160156 173.859375 116.171875 173.882812 116.148438 173.925781 L 116.125 173.96875 C 116.121094 173.976562 116.125 173.980469 116.132812 173.980469 L 116.71875 174.136719 C 116.773438 174.148438 116.804688 174.183594 116.816406 174.238281 L 116.910156 174.664062 C 116.925781 174.730469 116.96875 174.757812 117.035156 174.738281 C 117.128906 174.710938 117.230469 174.648438 117.332031 174.546875 L 113.117188 179.914062 C 113.070312 179.972656 113.070312 180.03125 113.117188 180.089844 L 115.914062 183.519531 C 115.945312 183.5625 115.988281 183.582031 116.039062 183.582031 L 119.042969 183.582031 C 119.109375 183.582031 119.121094 183.554688 119.082031 183.503906 L 115.742188 179.152344 C 115.707031 179.109375 115.707031 179.070312 115.742188 179.03125 L 117.238281 177.160156 C 117.304688 177.078125 117.371094 177.078125 117.4375 177.164062 L 124.410156 186.097656 C 124.429688 186.117188 124.433594 186.144531 124.417969 186.167969 C 124.40625 186.195312 124.386719 186.207031 124.359375 186.207031 L 114.78125 186.207031 C 114.730469 186.207031 114.691406 186.1875 114.660156 186.144531 L 109.886719 180.0625 C 109.855469 180.023438 109.855469 179.984375 109.886719 179.945312 Z M 115.226562 173.085938 " fill-opacity="1" fill-rule="nonzero"/><g clip-path="url(#4408125046)"><g clip-path="url(#471afb4fda)"><path fill="#f3bc42" d="M 112.425781 169.5 L 119.851562 169.5 L 119.851562 176.773438 L 112.425781 176.773438 Z M 112.425781 169.5 " fill-opacity="1" fill-rule="nonzero"/></g></g><g clip-path="url(#0b24c3c509)"><g clip-path="url(#553fd69a4e)"><path fill="#f3bc42" d="M 112.875 169.199219 L 120.300781 169.199219 L 120.300781 176.476562 L 112.875 176.476562 Z M 112.875 169.199219 " fill-opacity="1" fill-rule="nonzero"/></g></g><g clip-path="url(#1f76145df9)"><g clip-path="url(#3b75ecf894)"><path fill="#f3bc42" d="M 113.023438 168.601562 L 120.449219 168.601562 L 120.449219 175.875 L 113.023438 175.875 Z M 113.023438 168.601562 " fill-opacity="1" fill-rule="nonzero"/></g></g><g clip-path="url(#6887ac28e1)"><g clip-path="url(#0d8da11fe5)"><path fill="#f3bc42" d="M 113.773438 168.148438 L 121.199219 168.148438 L 121.199219 175.425781 L 113.773438 175.425781 Z M 113.773438 168.148438 " fill-opacity="1" fill-rule="nonzero"/><path fill="#f3bc42" d="M 113.773438 168.148438 L 121.199219 168.148438 L 121.199219 175.425781 L 113.773438 175.425781 Z M 113.773438 168.148438 " fill-opacity="1" fill-rule="nonzero"/></g></g><g clip-path="url(#5d2d348b47)"><g clip-path="url(#0a71ffc278)"><path fill="#f3bc42" d="M 113.476562 168.148438 L 120.898438 168.148438 L 120.898438 175.425781 L 113.476562 175.425781 Z M 113.476562 168.148438 " fill-opacity="1" fill-rule="nonzero"/></g></g><g clip-path="url(#ff7885a1cc)"><g clip-path="url(#41f4716327)"><path fill="#f3bc42" d="M 112.726562 169.949219 L 120.148438 169.949219 L 120.148438 177.226562 L 112.726562 177.226562 Z M 112.726562 169.949219 " fill-opacity="1" fill-rule="nonzero"/></g></g><g clip-path="url(#a189250680)"><g clip-path="url(#14deec2d45)"><path fill="#f3bc42" d="M 113.324219 169.5 L 120.75 169.5 L 120.75 176.773438 L 113.324219 176.773438 Z M 113.324219 169.5 " fill-opacity="1" fill-rule="nonzero"/></g></g><g clip-path="url(#37f9bfa3d2)"><g clip-path="url(#eb96a3a164)"><path fill="#f3bc42" d="M 112.425781 170.25 L 119.851562 170.25 L 119.851562 177.523438 L 112.425781 177.523438 Z M 112.425781 170.25 " fill-opacity="1" fill-rule="nonzero"/></g></g><g clip-path="url(#983f4bad34)"><g clip-path="url(#aa9d206d8d)"><path fill="#f3bc42" d="M 112.273438 170.25 L 119.699219 170.25 L 119.699219 177.523438 L 112.273438 177.523438 Z M 112.273438 170.25 " fill-opacity="1" fill-rule="nonzero"/><path fill="#f3bc42" d="M 112.273438 170.25 L 119.699219 170.25 L 119.699219 177.523438 L 112.273438 177.523438 Z M 112.273438 170.25 " fill-opacity="1" fill-rule="nonzero"/></g></g><g clip-path="url(#3b5b4a39b4)"><g clip-path="url(#6758a72880)"><path fill="#f3bc42" d="M 112.125 170.25 L 119.550781 170.25 L 119.550781 177.523438 L 112.125 177.523438 Z M 112.125 170.25 " fill-opacity="1" fill-rule="nonzero"/></g></g><g clip-path="url(#078c3e539c)"><g clip-path="url(#f992880394)"><path fill="#f3bc42" d="M 112.125 170.101562 L 119.550781 170.101562 L 119.550781 177.375 L 112.125 177.375 Z M 112.125 170.101562 " fill-opacity="1" fill-rule="nonzero"/></g></g><g clip-path="url(#3837b7cce7)"><g clip-path="url(#f36ae0968c)"><path fill="#f3bc42" d="M 113.023438 169.351562 L 120.449219 169.351562 L 120.449219 176.625 L 113.023438 176.625 Z M 113.023438 169.351562 " fill-opacity="1" fill-rule="nonzero"/></g></g><g clip-path="url(#f47c7a36c1)"><g clip-path="url(#b476ea64e1)"><path fill="#f3bc42" d="M 113.925781 168.898438 L 121.351562 168.898438 L 121.351562 176.175781 L 113.925781 176.175781 Z M 113.925781 168.898438 " fill-opacity="1" fill-rule="nonzero"/></g></g><g clip-path="url(#cae10c1f8c)"><g clip-path="url(#321547d023)"><path fill="#f3bc42" d="M 114.300781 168.449219 L 121.875 168.449219 L 121.875 175.949219 L 114.300781 175.949219 Z M 114.300781 168.449219 " fill-opacity="1" fill-rule="nonzero"/></g></g><g clip-path="url(#ff8933e43a)"><g clip-path="url(#43fd3cda67)"><path fill="#f3bc42" d="M 114.976562 168.449219 L 122.398438 168.449219 L 122.398438 175.726562 L 114.976562 175.726562 Z M 114.976562 168.449219 " fill-opacity="1" fill-rule="nonzero"/></g></g><g clip-path="url(#9abf9c3cb5)"><g clip-path="url(#d590000fdf)"><path fill="#f3bc42" d="M 113.175781 170.25 L 120.601562 170.25 L 120.601562 177.523438 L 113.175781 177.523438 Z M 113.175781 170.25 " fill-opacity="1" fill-rule="nonzero"/></g></g><g clip-path="url(#5f38763329)"><g clip-path="url(#a3a0e099aa)"><path fill="#f3bc42" d="M 113.625 169.949219 L 121.050781 169.949219 L 121.050781 177.226562 L 113.625 177.226562 Z M 113.625 169.949219 " fill-opacity="1" fill-rule="nonzero"/></g></g><g clip-path="url(#1d922d4b86)"><g clip-path="url(#4ea8223be3)"><path fill="#f3bc42" d="M 114.375 169.050781 L 121.800781 169.050781 L 121.800781 176.324219 L 114.375 176.324219 Z M 114.375 169.050781 " fill-opacity="1" fill-rule="nonzero"/></g></g><g clip-path="url(#d91650e11c)"><g clip-path="url(#cd7f9e63aa)"><path fill="#f3bc42" d="M 113.625 170.101562 L 121.050781 170.101562 L 121.050781 177.375 L 113.625 177.375 Z M 113.625 170.101562 " fill-opacity="1" fill-rule="nonzero"/></g></g><g clip-path="url(#a918e6f937)"><g clip-path="url(#70548bd46a)"><path fill="#f3bc42" d="M 113.925781 169.800781 L 121.351562 169.800781 L 121.351562 177.074219 L 113.925781 177.074219 Z M 113.925781 169.800781 " fill-opacity="1" fill-rule="nonzero"/></g></g><g clip-path="url(#00807d9005)"><g clip-path="url(#204e637801)"><path fill="#f3bc42" d="M 113.925781 169.351562 L 121.351562 169.351562 L 121.351562 176.625 L 113.925781 176.625 Z M 113.925781 169.351562 " fill-opacity="1" fill-rule="nonzero"/></g></g><g clip-path="url(#73869b86d4)"><g clip-path="url(#5d90d3f5ac)"><path fill="#f3bc42" d="M 114.074219 169.199219 L 121.5 169.199219 L 121.5 176.476562 L 114.074219 176.476562 Z M 114.074219 169.199219 " fill-opacity="1" fill-rule="nonzero"/></g></g><g clip-path="url(#1f8bef749a)"><g clip-path="url(#5146e651cd)"><path fill="#f3bc42" d="M 114.523438 168.449219 L 121.949219 168.449219 L 121.949219 175.726562 L 114.523438 175.726562 Z M 114.523438 168.449219 " fill-opacity="1" fill-rule="nonzero"/></g></g><g clip-path="url(#3d421541e0)"><g clip-path="url(#2dd7b1675f)"><path fill="#f3bc42" d="M 114.074219 169.050781 L 121.5 169.050781 L 121.5 176.324219 L 114.074219 176.324219 Z M 114.074219 169.050781 " fill-opacity="1" fill-rule="nonzero"/></g></g><g clip-path="url(#531071d7d9)"><g clip-path="url(#cbfeb8277b)"><path fill="#f3bc42" d="M 113.175781 170.398438 L 120.601562 170.398438 L 120.601562 177.675781 L 113.175781 177.675781 Z M 113.175781 170.398438 " fill-opacity="1" fill-rule="nonzero"/></g></g><g clip-path="url(#b632e70188)"><g clip-path="url(#7dd92929b3)"><path fill="#f3bc42" d="M 112.875 170.699219 L 120.300781 170.699219 L 120.300781 177.976562 L 112.875 177.976562 Z M 112.875 170.699219 " fill-opacity="1" fill-rule="nonzero"/></g></g><g clip-path="url(#b880b914a3)"><g clip-path="url(#eb8169abde)"><path fill="#f3bc42" d="M 112.875 171 L 120.300781 171 L 120.300781 178.273438 L 112.875 178.273438 Z M 112.875 171 " fill-opacity="1" fill-rule="nonzero"/></g></g><g clip-path="url(#2e81ad1353)"><g clip-path="url(#d665a13d12)"><path fill="#f3bc42" d="M 113.175781 170.25 L 120.601562 170.25 L 120.601562 177.523438 L 113.175781 177.523438 Z M 113.175781 170.25 " fill-opacity="1" fill-rule="nonzero"/></g></g><g clip-path="url(#bad2c51e4a)"><g clip-path="url(#2d0d8d8fb8)"><path fill="#f3bc42" d="M 113.773438 170.101562 L 121.199219 170.101562 L 121.199219 177.375 L 113.773438 177.375 Z M 113.773438 170.101562 " fill-opacity="1" fill-rule="nonzero"/></g></g><g clip-path="url(#5138bfd336)"><g clip-path="url(#bd04435680)"><path fill="#f3bc42" d="M 112.726562 170.550781 L 120.148438 170.550781 L 120.148438 177.824219 L 112.726562 177.824219 Z M 112.726562 170.550781 " fill-opacity="1" fill-rule="nonzero"/></g></g><g clip-path="url(#9bb88955f9)"><g clip-path="url(#f7d01002a1)"><path fill="#f3bc42" d="M 113.324219 170.550781 L 120.75 170.550781 L 120.75 177.824219 L 113.324219 177.824219 Z M 113.324219 170.550781 " fill-opacity="1" fill-rule="nonzero"/></g></g><g clip-path="url(#a49226df55)"><g clip-path="url(#267a09ab57)"><path fill="#f3bc42" d="M 112.875 170.25 L 120.300781 170.25 L 120.300781 177.523438 L 112.875 177.523438 Z M 112.875 170.25 " fill-opacity="1" fill-rule="nonzero"/></g></g><g clip-path="url(#de68d8049f)"><g clip-path="url(#ff99cb2429)"><path fill="#f3bc42" d="M 113.023438 170.25 L 120.449219 170.25 L 120.449219 177.523438 L 113.023438 177.523438 Z M 113.023438 170.25 " fill-opacity="1" fill-rule="nonzero"/></g></g><g clip-path="url(#d5a9a5a448)"><g clip-path="url(#10901f264e)"><path fill="#f3bc42" d="M 113.773438 169.5 L 121.199219 169.5 L 121.199219 176.773438 L 113.773438 176.773438 Z M 113.773438 169.5 " fill-opacity="1" fill-rule="nonzero"/></g></g><g clip-path="url(#e22dd7af4e)"><g clip-path="url(#5b05050619)"><path fill="#f3bc42" d="M 114.074219 169.199219 L 121.5 169.199219 L 121.5 176.476562 L 114.074219 176.476562 Z M 114.074219 169.199219 " fill-opacity="1" fill-rule="nonzero"/></g></g><g clip-path="url(#4ff21f56fe)"><g clip-path="url(#39d3bfb68a)"><path fill="#f3bc42" d="M 114.375 168.898438 L 121.800781 168.898438 L 121.800781 176.175781 L 114.375 176.175781 Z M 114.375 168.898438 " fill-opacity="1" fill-rule="nonzero"/></g></g><g clip-path="url(#8741072d36)"><g clip-path="url(#781252016b)"><path fill="#f3bc42" d="M 114.523438 168.898438 L 121.949219 168.898438 L 121.949219 176.175781 L 114.523438 176.175781 Z M 114.523438 168.898438 " fill-opacity="1" fill-rule="nonzero"/></g></g><g clip-path="url(#51288840f6)"><g clip-path="url(#cabedda6d9)"><path fill="#f3bc42" d="M 114.675781 168.601562 L 122.101562 168.601562 L 122.101562 175.875 L 114.675781 175.875 Z M 114.675781 168.601562 " fill-opacity="1" fill-rule="nonzero"/></g></g><g clip-path="url(#c51b776366)"><g clip-path="url(#be27c4969a)"><path fill="#f3bc42" d="M 114.074219 169.050781 L 121.5 169.050781 L 121.5 176.324219 L 114.074219 176.324219 Z M 114.074219 169.050781 " fill-opacity="1" fill-rule="nonzero"/></g></g><g clip-path="url(#b0f4235a3c)"><g clip-path="url(#e72cd8419c)"><path fill="#f3bc42" d="M 114.675781 169.050781 L 122.101562 169.050781 L 122.101562 176.324219 L 114.675781 176.324219 Z M 114.675781 169.050781 " fill-opacity="1" fill-rule="nonzero"/></g></g></svg>