<?xml version="1.0" encoding="UTF-8" standalone="no"?>
<!DOCTYPE svg PUBLIC "-//W3C//DTD SVG 1.1//EN" "http://www.w3.org/Graphics/SVG/1.1/DTD/svg11.dtd">
<svg xmlns="http://www.w3.org/2000/svg" version="1.1" viewBox="0.00 0.00 50.00 50.00">
<path fill="#000000" d="
  M 50.00 5.32
  L 50.00 45.80
  Q 49.54 46.98 48.50 46.99
  Q 31.63 47.20 0.00 46.85
  L 0.00 5.46
  Q 0.52 3.03 2.56 3.02
  Q 25.00 2.96 47.43 3.02
  Q 49.29 3.03 50.00 5.32
  Z
  M 48.00 5.74
  A 0.74 0.74 0.0 0 0 47.26 5.00
  L 2.74 5.00
  A 0.74 0.74 0.0 0 0 2.00 5.74
  L 2.00 9.26
  A 0.74 0.74 0.0 0 0 2.74 10.00
  L 47.26 10.00
  A 0.74 0.74 0.0 0 0 48.00 9.26
  L 48.00 5.74
  Z
  M 48.00 12.57
  A 0.57 0.57 0.0 0 0 47.43 12.00
  L 2.57 12.00
  A 0.57 0.57 0.0 0 0 2.00 12.57
  L 2.00 44.43
  A 0.57 0.57 0.0 0 0 2.57 45.00
  L 47.43 45.00
  A 0.57 0.57 0.0 0 0 48.00 44.43
  L 48.00 12.57
  Z"
/>
<path fill="#000000" d="
  M 15.55 20.01
  L 22.01 26.68
  Q 22.39 27.07 22.00 27.44
  L 15.48 33.86
  Q 15.00 34.34 14.52 33.85
  L 14.13 33.47
  Q 13.64 32.98 14.13 32.49
  L 19.17 27.46
  A 0.58 0.57 -43.9 0 0 19.19 26.67
  C 18.16 25.50 12.82 21.33 14.76 19.94
  A 0.61 0.60 -39.6 0 1 15.55 20.01
  Z"
/>
<rect fill="#000000" x="-7.49" y="-1.00" transform="translate(29.49,33.00) rotate(-0.1)" width="14.98" height="2.00" rx="0.97"/>
</svg>
