<?xml version="1.0" encoding="UTF-8" standalone="no"?>
<!DOCTYPE svg PUBLIC "-//W3C//DTD SVG 1.1//EN" "http://www.w3.org/Graphics/SVG/1.1/DTD/svg11.dtd">
<svg xmlns="http://www.w3.org/2000/svg" version="1.1" width="1000" height="424" viewBox="0.00 0.00 840.00 212.00">


<path fill="#adafc4" d="
  M 102.57 0.00
  L 110.31 0.00
  C 118.21 0.48 132.92 1.22 137.36 7.30
  C 142.15 13.86 138.86 22.96 130.79 24.82
  Q 128.24 25.40 123.77 24.57
  Q 85.21 17.39 55.43 40.09
  C 29.13 60.13 17.64 93.31 25.08 125.44
  C 34.44 165.89 74.33 193.93 116.23 188.58
  C 165.73 182.24 197.77 136.56 187.64 87.62
  Q 186.86 83.89 187.31 81.79
  C 189.22 72.78 200.65 69.39 206.76 76.37
  Q 209.09 79.04 210.25 84.85
  C 223.24 149.86 175.41 208.83 109.94 212.00
  L 102.19 212.00
  C 45.67 208.74 2.82 166.08 0.00 109.45
  L 0.00 102.45
  C 2.58 45.56 45.97 3.48 102.57 0.00
  Z"
/>
<path fill="#adafc4" d="
  M 347.92 42.92
  C 338.90 51.82 329.83 60.60 320.99 69.69
  A 2.27 2.26 -41.0 0 0 320.78 72.62
  L 348.85 111.14
  A 2.59 2.59 0.0 0 1 346.76 115.25
  L 324.67 115.25
  A 2.07 2.04 71.7 0 1 323.01 114.40
  L 305.02 89.79
  A 2.59 2.59 0.0 0 0 301.05 89.53
  L 293.70 97.26
  Q 293.33 97.64 293.33 98.18
  L 293.22 112.77
  A 2.50 2.49 -89.8 0 1 290.73 115.25
  L 272.75 115.25
  A 2.50 2.50 0.0 0 1 270.25 112.75
  L 270.25 4.00
  A 2.00 2.00 0.0 0 1 272.25 2.00
  L 291.25 2.00
  A 2.25 2.25 0.0 0 1 293.50 4.25
  L 293.50 59.08
  A 2.47 2.47 0.0 0 0 297.71 60.83
  L 320.29 38.37
  A 1.28 1.26 22.1 0 1 321.19 38.00
  L 346.24 38.00
  A 2.74 2.74 0.0 0 1 348.48 39.16
  Q 349.81 41.04 347.92 42.92
  Z"
/>
<path fill="#adafc4" d="
  M 727.36 41.90
  A 0.45 0.45 0.0 0 0 728.00 41.49
  L 728.00 4.63
  A 2.63 2.62 -90.0 0 1 730.62 2.00
  L 748.46 2.00
  A 2.54 2.54 0.0 0 1 751.00 4.54
  Q 751.00 36.87 751.01 69.67
  Q 751.01 81.01 749.55 86.20
  C 738.99 123.81 682.35 125.24 673.04 86.88
  C 665.24 54.77 697.16 27.73 727.36 41.90
  Z
  M 712.3166 93.4188
  A 16.65 15.54 90.7 0 0 728.0588 76.9599
  A 16.65 15.54 90.7 0 0 712.7234 60.1212
  A 16.65 15.54 90.7 0 0 696.9812 76.5801
  A 16.65 15.54 90.7 0 0 712.3166 93.4188
  Z"
/>
<path fill="#adafc4" d="
  M 125.33 69.26
  C 141.74 69.04 153.97 56.22 155.11 40.29
  Q 155.42 35.92 156.32 33.89
  C 161.38 22.49 176.21 19.97 184.59 29.18
  C 192.37 37.72 189.10 51.83 178.36 56.18
  Q 176.52 56.92 171.01 57.47
  C 151.36 59.44 139.78 76.78 144.06 95.76
  C 151.83 130.25 117.00 157.92 85.67 139.38
  C 66.48 128.03 60.81 101.49 74.54 82.88
  C 83.46 70.80 98.15 64.62 113.44 67.55
  C 117.46 68.32 121.41 69.32 125.33 69.26
  Z"
/>
<path fill="#adafc4" d="
  M 424.4901 62.5886
  A 39.88 38.54 -20.6 0 1 400.7200 112.6957
  A 39.88 38.54 -20.6 0 1 349.8299 90.6514
  A 39.88 38.54 -20.6 0 1 373.6000 40.5443
  A 39.88 38.54 -20.6 0 1 424.4901 62.5886
  Z
  M 387.3090 93.6593
  A 17.08 16.68 89.5 0 0 403.8394 76.4344
  A 17.08 16.68 89.5 0 0 387.0110 59.5007
  A 17.08 16.68 89.5 0 0 370.4806 76.7256
  A 17.08 16.68 89.5 0 0 387.3090 93.6593
  Z"
/>
<path fill="#adafc4" d="
  M 437.06 77.25
  C 437.34 41.11 479.73 26.70 505.15 48.41
  Q 505.54 48.74 505.93 48.42
  Q 521.04 36.01 539.25 38.47
  C 554.59 40.55 566.95 50.05 570.96 65.20
  Q 572.42 70.73 572.49 85.06
  Q 572.55 97.67 572.48 110.26
  A 3.51 3.51 0.0 0 1 568.97 113.75
  L 552.78 113.75
  A 3.51 3.51 0.0 0 1 549.27 110.26
  Q 549.20 94.60 549.28 78.54
  Q 549.31 73.22 548.07 70.10
  C 542.71 56.71 523.20 56.22 517.55 69.63
  Q 516.25 72.71 516.25 78.71
  Q 516.26 94.96 516.25 110.49
  A 3.27 3.26 -89.9 0 1 512.99 113.75
  L 496.54 113.75
  A 3.09 3.09 0.0 0 1 493.45 110.62
  Q 493.68 93.47 493.20 75.75
  C 492.61 54.18 460.31 54.13 460.50 77.69
  Q 460.63 94.34 460.30 110.30
  A 3.52 3.52 0.0 0 1 456.78 113.75
  L 440.51 113.75
  A 3.49 3.49 0.0 0 1 437.02 110.28
  Q 436.94 94.03 437.06 77.25
  Z"
/>
<path fill="#adafc4" d="
  M 659.6875 62.2705
  A 39.86 38.53 -21.1 0 1 636.3707 112.5667
  A 39.86 38.53 -21.1 0 1 585.3125 90.9695
  A 39.86 38.53 -21.1 0 1 608.6293 40.6733
  A 39.86 38.53 -21.1 0 1 659.6875 62.2705
  Z
  M 623.3575 93.4184
  A 16.65 15.55 90.8 0 0 639.1385 76.9871
  A 16.65 15.55 90.8 0 0 623.8225 60.1216
  A 16.65 15.55 90.8 0 0 608.0415 76.5529
  A 16.65 15.55 90.8 0 0 623.3575 93.4184
  Z"
/>
<path fill="#adafc4" d="
  M 840.00 74.54
  L 840.00 78.07
  Q 836.94 102.62 816.23 111.71
  C 794.20 121.38 766.91 110.34 761.71 85.93
  C 754.80 53.53 786.73 29.52 816.59 41.11
  Q 837.64 49.28 840.00 74.54
  Z
  M 799.6852 93.6250
  A 17.07 16.67 92.4 0 0 817.0554 77.2681
  A 17.07 16.67 92.4 0 0 801.1148 59.5150
  A 17.07 16.67 92.4 0 0 783.7446 75.8719
  A 17.07 16.67 92.4 0 0 799.6852 93.6250
  Z"
/>
<path fill="#adafc4" d="
  M 293.57 148.00
  L 301.13 148.01
  A 0.37 0.37 0.0 0 1 301.49 148.29
  L 311.80 187.88
  A 0.37 0.37 0.0 0 0 312.52 187.88
  L 322.38 148.28
  A 0.37 0.37 0.0 0 1 322.74 148.00
  L 330.20 148.00
  A 0.37 0.37 0.0 0 1 330.56 148.47
  L 316.39 199.72
  A 0.37 0.37 0.0 0 1 316.04 199.99
  L 308.74 200.00
  A 0.37 0.37 0.0 0 1 308.38 199.73
  L 297.70 161.61
  A 0.37 0.37 0.0 0 0 296.98 161.61
  L 286.32 199.73
  A 0.37 0.37 0.0 0 1 285.96 200.00
  L 278.65 200.00
  A 0.37 0.37 0.0 0 1 278.29 199.73
  L 264.13 148.47
  A 0.37 0.37 0.0 0 1 264.49 148.00
  L 271.92 148.00
  A 0.37 0.37 0.0 0 1 272.28 148.28
  L 282.18 187.82
  A 0.37 0.37 0.0 0 0 282.90 187.82
  L 293.21 148.28
  A 0.37 0.37 0.0 0 1 293.57 148.00
  Z"
/>
<path fill="#adafc4" d="
  M 362.43 186.25
  L 342.77 186.25
  A 0.39 0.39 0.0 0 0 342.40 186.51
  L 337.81 199.74
  A 0.39 0.39 0.0 0 1 337.44 200.00
  L 329.99 200.00
  A 0.39 0.39 0.0 0 1 329.63 199.48
  L 348.00 148.26
  A 0.39 0.39 0.0 0 1 348.36 148.00
  L 356.84 148.00
  A 0.39 0.39 0.0 0 1 357.20 148.26
  L 375.55 199.48
  A 0.39 0.39 0.0 0 1 375.19 200.00
  L 367.73 200.00
  A 0.39 0.39 0.0 0 1 367.36 199.74
  L 362.80 186.51
  A 0.39 0.39 0.0 0 0 362.43 186.25
  Z
  M 344.90 179.26
  A 0.36 0.36 0.0 0 0 345.24 179.74
  L 359.96 179.74
  A 0.36 0.36 0.0 0 0 360.30 179.26
  L 352.94 157.81
  A 0.36 0.36 0.0 0 0 352.26 157.81
  L 344.90 179.26
  Z"
/>
<path fill="#adafc4" d="
  M 391.52 193.25
  L 413.98 193.25
  A 0.52 0.52 0.0 0 1 414.50 193.77
  L 414.50 199.48
  A 0.52 0.52 0.0 0 1 413.98 200.00
  L 383.77 200.00
  A 0.52 0.52 0.0 0 1 383.25 199.48
  L 383.25 148.52
  A 0.52 0.52 0.0 0 1 383.77 148.00
  L 390.48 148.00
  A 0.52 0.52 0.0 0 1 391.00 148.52
  L 391.00 192.73
  A 0.52 0.52 0.0 0 0 391.52 193.25
  Z"
/>
<path fill="#adafc4" d="
  M 431.55 193.25
  L 454.28 193.25
  A 0.30 0.30 0.0 0 1 454.58 193.55
  L 454.54 199.70
  A 0.30 0.30 0.0 0 1 454.24 200.00
  L 423.66 200.00
  A 0.30 0.30 0.0 0 1 423.36 199.70
  L 423.55 148.30
  A 0.30 0.30 0.0 0 1 423.85 148.00
  L 430.95 148.00
  A 0.30 0.30 0.0 0 1 431.25 148.30
  L 431.25 192.95
  A 0.30 0.30 0.0 0 0 431.55 193.25
  Z"
/>
<path fill="#adafc4" d="
  M 471.89 193.25
  L 495.93 193.25
  A 0.47 0.47 0.0 0 1 496.40 193.72
  L 496.38 199.53
  A 0.47 0.47 0.0 0 1 495.91 200.00
  L 464.17 200.00
  A 0.47 0.47 0.0 0 1 463.70 199.53
  L 463.76 148.47
  A 0.47 0.47 0.0 0 1 464.23 148.00
  L 495.53 148.00
  A 0.47 0.47 0.0 0 1 496.00 148.47
  L 496.00 154.28
  A 0.47 0.47 0.0 0 1 495.53 154.75
  L 471.71 154.75
  A 0.47 0.47 0.0 0 0 471.24 155.22
  L 471.31 170.34
  A 0.47 0.47 0.0 0 0 471.78 170.81
  L 493.88 170.62
  A 0.47 0.47 0.0 0 1 494.35 171.08
  L 494.46 176.88
  A 0.47 0.47 0.0 0 1 493.99 177.36
  L 471.82 177.21
  A 0.47 0.47 0.0 0 0 471.34 177.69
  L 471.42 192.78
  A 0.47 0.47 0.0 0 0 471.89 193.25
  Z"
/>
<path fill="#adafc4" d="
  M 519.65 154.75
  L 504.28 154.75
  A 0.35 0.35 0.0 0 1 503.93 154.40
  L 503.91 148.35
  A 0.35 0.35 0.0 0 1 504.26 148.00
  L 543.65 148.00
  A 0.35 0.35 0.0 0 1 544.00 148.35
  L 544.00 154.40
  A 0.35 0.35 0.0 0 1 543.65 154.75
  L 528.20 154.75
  A 0.35 0.35 0.0 0 0 527.85 155.10
  L 527.77 199.65
  A 0.35 0.35 0.0 0 1 527.42 200.00
  L 520.35 200.00
  A 0.35 0.35 0.0 0 1 520.00 199.65
  L 520.00 155.10
  A 0.35 0.35 0.0 0 0 519.65 154.75
  Z"
/>
</svg>
