<?xml version="1.0" encoding="UTF-8" standalone="no"?>
<!DOCTYPE svg PUBLIC "-//W3C//DTD SVG 1.1//EN" "http://www.w3.org/Graphics/SVG/1.1/DTD/svg11.dtd">
<svg xmlns="http://www.w3.org/2000/svg" version="1.1" viewBox="0.00 0.00 48.00 48.00">
<g stroke-width="2.00" fill="none" stroke-linecap="butt">
<path stroke="#937a20" vector-effect="non-scaling-stroke" d="
  M 36.93 31.17
  L 33.60 33.25
  Q 33.15 33.54 32.70 33.24
  Q 31.79 32.65 32.02 31.31"
/>
<path stroke="#899195" vector-effect="non-scaling-stroke" d="
  M 32.02 31.31
  C 35.58 30.12 33.40 23.37 32.23 23.74
  Q 32.01 23.80 32.13 24.00
  Q 33.82 26.67 32.58 29.65
  A 0.37 0.37 0.0 0 1 31.87 29.56
  C 31.59 27.68 31.73 26.11 30.98 24.42
  Q 29.25 20.53 27.77 16.45"
/>
<path stroke="#937a20" vector-effect="non-scaling-stroke" d="
  M 27.77 16.45
  Q 27.82 15.79 27.42 14.98"
/>
<path stroke="#899195" vector-effect="non-scaling-stroke" d="
  M 27.42 14.98
  Q 28.36 13.25 27.26 11.56
  A 1.36 1.35 -38.0 0 0 25.20 11.31
  Q 24.12 12.33 23.97 13.94"
/>
<path stroke="#937a20" vector-effect="non-scaling-stroke" d="
  M 23.97 13.94
  Q 23.53 14.07 23.00 13.96"
/>
<path stroke="#697077" vector-effect="non-scaling-stroke" d="
  M 23.00 13.96
  Q 23.29 12.42 22.23 11.59
  A 0.91 0.90 54.0 0 0 21.38 11.45
  Q 19.44 12.14 19.75 14.30"
/>
<path stroke="#f6d87c" vector-effect="non-scaling-stroke" d="
  M 32.02 31.31
  C 28.86 30.08 29.42 34.29 29.36 36.00"
/>
<path stroke="#f6d87c" vector-effect="non-scaling-stroke" d="
  M 27.42 14.98
  Q 26.45 15.20 26.31 14.51"
/>
<path stroke="#899195" vector-effect="non-scaling-stroke" d="
  M 26.31 14.51
  Q 27.13 14.27 26.98 13.24
  A 0.90 0.89 -10.7 0 0 25.89 12.50
  Q 24.70 12.78 25.02 14.25"
/>
<path stroke="#f6d87c" vector-effect="non-scaling-stroke" d="
  M 25.02 14.25
  L 23.97 13.94"
/>
<path stroke="#f6d87c" vector-effect="non-scaling-stroke" d="
  M 27.77 16.45
  Q 24.56 20.18 20.61 17.67"
/>
<path stroke="#d6b85e" vector-effect="non-scaling-stroke" d="
  M 23.00 13.96
  Q 22.64 14.07 22.22 13.93"
/>
<path stroke="#697077" vector-effect="non-scaling-stroke" d="
  M 22.22 13.93
  Q 22.00 13.23 21.62 12.82
  Q 21.13 12.27 21.07 13.00
  Q 20.92 14.78 19.85 14.80"
/>
<path stroke="#937a20" vector-effect="non-scaling-stroke" d="
  M 22.22 13.93
  Q 19.24 15.64 20.61 17.67"
/>
<path stroke="#899195" vector-effect="non-scaling-stroke" d="
  M 20.61 17.67
  C 20.95 20.64 18.58 23.31 17.37 25.92
  Q 17.31 26.05 17.19 25.98
  L 16.96 25.84
  Q 16.74 25.71 16.70 25.96
  L 16.02 29.61
  A 0.89 0.88 -62.7 0 0 16.27 30.41
  Q 18.56 32.69 21.08 34.70
  Q 21.55 35.07 21.13 35.50
  L 20.45 36.17
  Q 19.95 36.67 20.57 37.01
  Q 25.09 39.49 29.36 36.00"
/>
<path stroke="#937a20" vector-effect="non-scaling-stroke" d="
  M 29.36 36.00
  L 28.97 39.93"
/>
<path stroke="#937a20" vector-effect="non-scaling-stroke" d="
  M 21.00 39.98
  Q 19.30 33.58 14.11 29.80"
/>
<path stroke="#937a20" vector-effect="non-scaling-stroke" d="
  M 26.31 14.51
  Q 25.82 14.07 25.02 14.25"
/>
</g>
<path fill="#263238" d="
  M 36.93 31.17
  L 33.60 33.25
  Q 33.15 33.54 32.70 33.24
  Q 31.79 32.65 32.02 31.31
  C 35.58 30.12 33.40 23.37 32.23 23.74
  Q 32.01 23.80 32.13 24.00
  Q 33.82 26.67 32.58 29.65
  A 0.37 0.37 0.0 0 1 31.87 29.56
  C 31.59 27.68 31.73 26.11 30.98 24.42
  Q 29.25 20.53 27.77 16.45
  Q 27.82 15.79 27.42 14.98
  Q 28.36 13.25 27.26 11.56
  A 1.36 1.35 -38.0 0 0 25.20 11.31
  Q 24.12 12.33 23.97 13.94
  Q 23.53 14.07 23.00 13.96
  Q 23.29 12.42 22.23 11.59
  A 0.91 0.90 54.0 0 0 21.38 11.45
  Q 19.44 12.14 19.75 14.30
  C 17.61 6.36 26.62 2.66 29.71 9.08
  C 31.27 12.32 29.88 15.73 32.77 19.45
  Q 37.12 25.06 36.93 31.17
  Z"
/>
<path fill="#eceff1" d="
  M 27.42 14.98
  Q 26.45 15.20 26.31 14.51
  Q 27.13 14.27 26.98 13.24
  A 0.90 0.89 -10.7 0 0 25.89 12.50
  Q 24.70 12.78 25.02 14.25
  L 23.97 13.94
  Q 24.12 12.33 25.20 11.31
  A 1.36 1.35 -38.0 0 1 27.26 11.56
  Q 28.36 13.25 27.42 14.98
  Z"
/>
<path fill="#adafb6" fill-opacity="0.996" d="
  M 23.00 13.96
  Q 22.64 14.07 22.22 13.93
  Q 22.00 13.23 21.62 12.82
  Q 21.13 12.27 21.07 13.00
  Q 20.92 14.78 19.85 14.80
  Q 19.68 14.49 19.75 14.30
  Q 19.44 12.14 21.38 11.45
  A 0.91 0.90 54.0 0 1 22.23 11.59
  Q 23.29 12.42 23.00 13.96
  Z"
/>
<path fill="#263238" d="
  M 22.22 13.93
  Q 19.24 15.64 20.61 17.67
  C 20.95 20.64 18.58 23.31 17.37 25.92
  Q 17.31 26.05 17.19 25.98
  L 16.96 25.84
  Q 16.74 25.71 16.70 25.96
  L 16.02 29.61
  A 0.89 0.88 -62.7 0 0 16.27 30.41
  Q 18.56 32.69 21.08 34.70
  Q 21.55 35.07 21.13 35.50
  L 20.45 36.17
  Q 19.95 36.67 20.57 37.01
  Q 25.09 39.49 29.36 36.00
  L 28.97 39.93
  L 21.00 39.98
  Q 19.30 33.58 14.11 29.80
  Q 14.03 27.53 15.84 24.32
  Q 17.58 21.19 19.69 18.25
  Q 19.98 17.86 19.87 17.39
  Q 19.55 16.03 19.85 14.80
  Q 20.92 14.78 21.07 13.00
  Q 21.13 12.27 21.62 12.82
  Q 22.00 13.23 22.22 13.93
  Z"
/>
<path fill="#263238" d="
  M 26.31 14.51
  Q 25.82 14.07 25.02 14.25
  Q 24.70 12.78 25.89 12.50
  A 0.90 0.89 -10.7 0 1 26.98 13.24
  Q 27.13 14.27 26.31 14.51
  Z"
/>
<path fill="#ffc107" d="
  M 22.22 13.93
  Q 22.64 14.07 23.00 13.96
  Q 23.53 14.07 23.97 13.94
  L 25.02 14.25
  Q 25.82 14.07 26.31 14.51
  Q 26.45 15.20 27.42 14.98
  Q 27.82 15.79 27.77 16.45
  Q 24.56 20.18 20.61 17.67
  Q 19.24 15.64 22.22 13.93
  Z"
/>
<path fill="#eceff1" d="
  M 27.77 16.45
  Q 29.25 20.53 30.98 24.42
  C 31.73 26.11 31.59 27.68 31.87 29.56
  A 0.37 0.37 0.0 0 0 32.58 29.65
  Q 33.82 26.67 32.13 24.00
  Q 32.01 23.80 32.23 23.74
  C 33.40 23.37 35.58 30.12 32.02 31.31
  C 28.86 30.08 29.42 34.29 29.36 36.00
  Q 25.09 39.49 20.57 37.01
  Q 19.95 36.67 20.45 36.17
  L 21.13 35.50
  Q 21.55 35.07 21.08 34.70
  Q 18.56 32.69 16.27 30.41
  A 0.89 0.88 -62.7 0 1 16.02 29.61
  L 16.70 25.96
  Q 16.74 25.71 16.96 25.84
  L 17.19 25.98
  Q 17.31 26.05 17.37 25.92
  C 18.58 23.31 20.95 20.64 20.61 17.67
  Q 24.56 20.18 27.77 16.45
  Z"
/>
<path fill="#ffc107" d="
  M 14.11 29.80
  Q 19.30 33.58 21.00 39.98
  C 19.70 44.27 12.50 40.48 9.51 39.68
  A 0.80 0.79 18.1 0 1 8.97 38.63
  Q 9.83 36.40 9.20 34.09
  A 0.59 0.59 0.0 0 1 9.65 33.35
  Q 12.42 32.79 14.11 29.80
  Z"
/>
<path fill="#ffc107" d="
  M 32.02 31.31
  Q 31.79 32.65 32.70 33.24
  Q 33.15 33.54 33.60 33.25
  L 36.93 31.17
  Q 37.18 34.67 39.59 35.74
  A 0.76 0.76 0.0 0 1 39.69 37.07
  C 37.55 38.47 30.33 45.12 28.97 39.93
  L 29.36 36.00
  C 29.42 34.29 28.86 30.08 32.02 31.31
  Z"
/>
</svg>
