<?xml version="1.0" encoding="UTF-8" standalone="no"?>
<!DOCTYPE svg PUBLIC "-//W3C//DTD SVG 1.1//EN" "http://www.w3.org/Graphics/SVG/1.1/DTD/svg11.dtd">
<svg xmlns="http://www.w3.org/2000/svg" version="1.1" viewBox="0.00 0.00 48.00 48.00">
<g stroke-width="2.00" fill="none" stroke-linecap="butt">
<path stroke="#01ace5" vector-effect="non-scaling-stroke" d="
  M 24.16 6.07
  Q 20.80 14.91 20.93 24.28
  Q 20.94 24.82 21.49 24.84
  L 25.60 24.97
  Q 26.12 24.99 26.11 25.50
  L 26.01 33.60"
/>
<path stroke="#1a81a6" vector-effect="non-scaling-stroke" d="
  M 26.01 33.60
  Q 19.07 33.86 13.76 29.60
  A 0.90 0.90 0.0 0 0 12.31 30.17
  Q 12.17 31.13 13.04 31.75
  Q 20.17 36.84 28.72 35.35"
/>
<path stroke="#71cced" vector-effect="non-scaling-stroke" d="
  M 28.72 35.35
  L 29.75 40.98"
/>
<path stroke="#8a969a" vector-effect="non-scaling-stroke" d="
  M 28.72 35.35
  C 30.31 35.03 39.27 32.24 37.72 29.68
  A 0.94 0.94 0.0 0 0 36.31 29.45
  Q 32.91 32.33 28.24 33.26"
/>
<path stroke="#71c1d9" vector-effect="non-scaling-stroke" d="
  M 26.35 6.01
  Q 23.87 13.45 22.93 21.86
  A 0.99 0.98 -85.7 0 0 23.87 22.96
  L 27.62 23.09
  Q 28.20 23.11 28.21 23.70
  L 28.24 33.26"
/>
<path stroke="#1a7592" vector-effect="non-scaling-stroke" d="
  M 28.24 33.26
  L 26.01 33.60"
/>
<path stroke="#1a81a6" vector-effect="non-scaling-stroke" d="
  M 16.7831 14.7347
  A 0.87 0.87 0.0 0 0 15.9362 13.8422
  L 15.8362 13.8396
  A 0.87 0.87 0.0 0 0 14.9438 14.6865
  L 14.8569 18.0053
  A 0.87 0.87 0.0 0 0 15.7038 18.8978
  L 15.8038 18.9004
  A 0.87 0.87 0.0 0 0 16.6962 18.0535
  L 16.7831 14.7347"
/>
<path stroke="#8a969a" vector-effect="non-scaling-stroke" d="
  M 34.10 18.50
  L 34.14 14.16
  A 0.41 0.41 0.0 0 0 33.74 13.75
  L 33.29 13.74
  A 1.29 1.20 -89.4 0 0 32.07 15.02
  L 32.05 17.60
  A 1.29 1.20 -89.4 0 0 33.23 18.90
  L 33.68 18.91
  A 0.41 0.41 0.0 0 0 34.10 18.50"
/>
</g>
<path fill="#00b7f9" d="
  M 24.16 6.07
  Q 20.80 14.91 20.93 24.28
  Q 20.94 24.82 21.49 24.84
  L 25.60 24.97
  Q 26.12 24.99 26.11 25.50
  L 26.01 33.60
  Q 19.07 33.86 13.76 29.60
  A 0.90 0.90 0.0 0 0 12.31 30.17
  Q 12.17 31.13 13.04 31.75
  Q 20.17 36.84 28.72 35.35
  L 29.75 40.98
  L 8.49 40.97
  A 3.49 3.48 0.1 0 1 5.00 37.48
  L 5.01 9.32
  A 3.03 3.03 0.0 0 1 7.99 6.29
  L 24.16 6.07
  Z
  M 16.7831 14.7347
  A 0.87 0.87 0.0 0 0 15.9362 13.8422
  L 15.8362 13.8396
  A 0.87 0.87 0.0 0 0 14.9438 14.6865
  L 14.8569 18.0053
  A 0.87 0.87 0.0 0 0 15.7038 18.8978
  L 15.8038 18.9004
  A 0.87 0.87 0.0 0 0 16.6962 18.0535
  L 16.7831 14.7347
  Z"
/>
<path fill="#01a0d0" d="
  M 24.16 6.07
  L 26.35 6.01
  Q 23.87 13.45 22.93 21.86
  A 0.99 0.98 -85.7 0 0 23.87 22.96
  L 27.62 23.09
  Q 28.20 23.11 28.21 23.70
  L 28.24 33.26
  L 26.01 33.60
  L 26.11 25.50
  Q 26.12 24.99 25.60 24.97
  L 21.49 24.84
  Q 20.94 24.82 20.93 24.28
  Q 20.80 14.91 24.16 6.07
  Z"
/>
<path fill="#e1e1e1" d="
  M 26.35 6.01
  L 40.00 6.01
  A 4.00 4.00 0.0 0 1 44.00 10.01
  L 44.00 37.00
  A 3.99 3.99 0.0 0 1 40.01 40.99
  L 29.75 40.98
  L 28.72 35.35
  C 30.31 35.03 39.27 32.24 37.72 29.68
  A 0.94 0.94 0.0 0 0 36.31 29.45
  Q 32.91 32.33 28.24 33.26
  L 28.21 23.70
  Q 28.20 23.11 27.62 23.09
  L 23.87 22.96
  A 0.99 0.98 -85.7 0 1 22.93 21.86
  Q 23.87 13.45 26.35 6.01
  Z
  M 34.10 18.50
  L 34.14 14.16
  A 0.41 0.41 0.0 0 0 33.74 13.75
  L 33.29 13.74
  A 1.29 1.20 -89.4 0 0 32.07 15.02
  L 32.05 17.60
  A 1.29 1.20 -89.4 0 0 33.23 18.90
  L 33.68 18.91
  A 0.41 0.41 0.0 0 0 34.10 18.50
  Z"
/>
<rect fill="#334a53" x="-0.92" y="-2.53" transform="translate(15.82,16.37) rotate(1.5)" width="1.84" height="5.06" rx="0.87"/>
<path fill="#334a53" d="
  M 34.10 18.50
  A 0.41 0.41 0.0 0 1 33.68 18.91
  L 33.23 18.90
  A 1.29 1.20 -89.4 0 1 32.05 17.60
  L 32.07 15.02
  A 1.29 1.20 -89.4 0 1 33.29 13.74
  L 33.74 13.75
  A 0.41 0.41 0.0 0 1 34.14 14.16
  L 34.10 18.50
  Z"
/>
<path fill="#334a53" d="
  M 28.72 35.35
  Q 20.17 36.84 13.04 31.75
  Q 12.17 31.13 12.31 30.17
  A 0.90 0.90 0.0 0 1 13.76 29.60
  Q 19.07 33.86 26.01 33.60
  L 28.24 33.26
  Q 32.91 32.33 36.31 29.45
  A 0.94 0.94 0.0 0 1 37.72 29.68
  C 39.27 32.24 30.31 35.03 28.72 35.35
  Z"
/>
</svg>
